<mxfile host="app.diagrams.net" agent="Mozilla/5.0 (Macintosh; Intel Mac OS X 10_15_7) AppleWebKit/537.36 (KHTML, like Gecko) Chrome/140.0.0.0 Safari/537.36" version="28.2.5">
  <diagram id="-Jylc1kf2nl2Jxtt9iz9" name="Page-1">
    <mxGraphModel dx="-135" dy="1608" grid="1" gridSize="10" guides="1" tooltips="1" connect="1" arrows="1" fold="1" page="1" pageScale="1" pageWidth="50" pageHeight="50" math="0" shadow="1">
      <root>
        <mxCell id="0" />
        <mxCell id="1" parent="0" />
        <mxCell id="C_XI61WrGr2y75dWy_v_-19" value="Driver Finder DB" style="shape=image;verticalLabelPosition=bottom;labelBackgroundColor=none;verticalAlign=top;aspect=fixed;imageAspect=0;image=data:image/png,iVBORw0KGgoAAAANSUhEUgAAAgAAAAIACAYAAAD0eNT6AAAAAXNSR0IArs4c6QAAAERlWElmTU0AKgAAAAgAAYdpAAQAAAABAAAAGgAAAAAAA6ABAAMAAAABAAEAAKACAAQAAAABAAACAKADAAQAAAABAAACAAAAAAAL+LWFAABAAElEQVR4Aey9CbQsyVnf+dW+3Lr7/vZ+/bpbrW6paam1oq1hwAIJZA4jZjR4YOAM9syAkQTCYw5mps9YxsbL2ByDPQzIEqA5Z2hsAwPCICE1SC0hqbul3tf3Xr9++923urf2qvn+kZX31q13l6pbmVWZWf/ojpdZuURG/qJuxT8ivvgiJAwkQAKOEHjooVp49s1PJJOpSqoYqaWi4UQqXKqmKuFaKhSqpapVSYVD4ZRILVnVzyH9XNPPIcF53dfPosdrEhqoVqtDtZoMVmvVZLVaS1SlFq9VNUotVq3VYrof0/2o7kf1uqjuR2q1WkhfZDvW8FbWMeyFzGec1xvq+zhuAm4SzYQGc8rs1ff1OBLGcfs2s2+O6Tk9XsW+7uC6qrkupG+nGdJ7K3pFUZ9aDIVCBb2mEBbJ6zU5Pbel12/p/pbemdWMbYUi4Q3ltBEJ19Y1ufVqLbwm4dBqqFxeLUl1JZuR1YcefLCs9zCQAAl0SED//hhIoL8JoOK+47ufGS6WK8NaoQ5rtTWs9dZIWLdaYQ1LWKOERsxxfLbiCLb6B4Rr0rqf1JjQ2LOA+lbzYupd7Ou77PpszuN4wzWN95jrcU/DfT17mQMebH606qJERUU5HAoV9fK87uc0bur+RkhCa6pnVrTclsNhWVQYc6pGboYioRvhcOXaUrx6hULiAMg81RcEKAD6opj74yUfeuSR6GxkcDJZDE1WItUprekmQ+HQVK0a0m1tXOs1U3mjUtcvvqnAlQyOZTTyb2GPr8m+osEWEtpcr2BftxAQlfoW93k9qFioaUTvhYqIcEG/AQXd39LvzKZuV7SnYr4qoWuRsFzRzxcrtcj5kXTxxZ948EH0YDCQgO8J6PeagQS8SeDhhx+OrI2dmghFIpPhanhKW+KToWptSn+oJ7U1N6W9zZNab+tWdCvYolLnd1oh9DpAADQKgmaB0Pi513lt9/na4wDhUFLRoL0OklXBsKrDHEt6bE6HNa7psSvaj3IhXI2cX9kaefmhH7kHPRQMJOA5Avyx9FyRBD9DZqz8u56YjherJ6qhyImw1E7oL+oJ7bzWGDqufdCo5FGhj2nkdzTgXwkIhUZBYH9u7Fmwz/sRRV0wFHWLIYpV3c7pVnsVahdCEnmhGgo9tZYuPsshCT+Wrr/zzB9Xf5ef53KPbvhT4YHZWil6IhyqasWulbuETugXDZV7vZKXY5rxqOcyzwx5mgAGFWwhgG2zQGj87IchiGbYkXC4rMIgpwJhVbfzur2qfzcXtefrBTWSfHo4XX6Kww/N1Pi5EwIUAJ3Q68N7P/3II8laZfhsLVw5F5bQOf1RPo2WuxpdaUWPSl5mNOrwKQMJ9I7Adi+CCoUyxEJT9KNAAE0VBZVwOJzXLYwcF3QY4rVwOPSM/pB/o1Iof+XjP/Tgau+o88l+I0AB4LcS60J+f+OR5zLJWuF2Ea3kQ1rJV+WcdsSf00cjHtfI700XyoGPcI9AsyDAZyMUKhVju+Dek91NWcVBJRIKbahdwpwK9Ivak/CcivNvSiX25Y996O1z7j6dqfuNAH/I/VZiDuX30498e0QnamsrvqIVfMhU8NqCP6dfCFTy0w49hsmQgO8IoHfAFgh270FZhQH2MfTg16BivhoJR7I6LXJBRcElFQfP67HHIhL+8s984Dtf8+t7Md9HJ0ABcHR2vrjzU5//1jGJVO9Vw+V7tAPxXu2u162p5Md98QLMJAl4iICZ2VAXA7YowBaCwc9BhUBNbRA2tdfgejgSfkFC4W9EQuE//9nvf+e3/fxezPvBBCgADubjm7O/85ffGK+EQ/fWQpF7QzWt5ENyr3qB0QpfRn3zEswoCfiUAHoN0ENgi4FGceDTVzLZrguDdbUzuBoORZ5Tu4OvhqrV//LRH3jvK35+L+bdIkAB4LNvwqcefXQwXErdo/OM71VHN1rh1+7V7jy06mF8x0ACJOAxArYYKKHnQGOpXPa1nQHwmuGESASzFS6ro6SntefgK9WIfO7j73/PDY/hZ3YOIEABcACcXp/63b94aqoYK71FTerfqgX1Zh2jf4Pm6VSv88XnkwAJdEbAGB1CDNSj3XPQWaq9vxtTGdUQcVkFwYs6lPBIJFR7+Ge//z3P9z5nzMFeBCgA9qLSg2OwvE/VNrWSj7xVh+Peot33b9Vs6BQ7BhIggX4gAPsC9A6YXoK6MPC7bQHKDaJA7QluqiB4SnsOPi/l2O9zRoI3vtEUAD0oh998/PFYYj30Rv2Df6uu0fYWnVWHyv5ujZw/34Py4CNJwKsEIApsQVBUcRCE4QOwVlFQiIXDl7W34An9+LlULf2f/94PPLDl1XIIar4oALpQsp/+62/fIeXy29Xl51sUOCr779DY05XjuvDafAQJkIALBGBsCCEAQYAYhF4CVETRCKYohi6oseHX1bbgP33sA+/6ggv4mGQDAQqABhhO7f72I0+ci1TlQTXQe5+miQjXtwwkQAIk4DgB9BLYvQNmq8MHQQg6XFBRUXBFhw++Eo7K73z0+97zxSC8l5fegQLAgdL4zBcfv70algd1RbD3qaHe+zRJeMtjIAESIIGuE8CURBgXbosC3fer6+NGePByGA2Hr0QioS+Ha5HPfPSD73qk8Tz32ydAAdA+M/kPf/nY2VpEK/yqVvah0Ps0CfjAZyABEiABTxKAGChgyKBUMuLAk5lsM1N1QaDTEMNf1qmIn9bZBn/dZhJ9fzkFQAtfAUzHK8XL36+W+d+lS3i+T2852cJtvIQESIAEPEcAQwYFFQJGFOgWn4MQ6oJAF0eKPBIN1/5PTj88vFQpAPZh9KkvPXaXwvmQGuZrrL1dL6OF/j6seJgESMC/BMxwgQoB00OgvQRBCWo/sKHxK7o40r/96Afe/edBeS8n34MCoE7zoYdq4ZPvfeKd4VrtB6sS+pCCudNJ0EyLBEiABLxOALYCds9APkC9AzpMUIxFIk/q8sm/szpQ/r8fevDB4CidDr5UfS0AfvNPHk/HM/K9+qX/QZ2L/0HlONkBS95KAiRAAoEiADGQLxYlSGJAZxdU45HIhXAk8p/K1fK/+sQPPLgYqEJr42X6TgCYRXMikR/Sbv0flFrov1JWqTZ48VISIAES6EsCEAM5FQOwHwiK3YD6GxDtGZjTmQV/Ea7KJ/ttkaO+EAAPPfJI9JQMvV9q1Z+ot/TjffkXzJcmARIgAQcIQASgVyBQYkC5xKLR69Fo9LeHU6V/+hMPPph3AJWnkwi0APjMl755T7UW/gldGvfvaClMe7okmDkSIAES8BkBzB/A1MIcxID2DgRjPoG12mEsEv1WNBL65Ec/8J4/9lmxtJzdwAmA/+crT48WS8WP6HK5aO0/0DIJXkgCJEACJHBkAhgWwBDBVqEQCPfENgidSbAZi0b+NBqt/eLf/1vvfdU+HoRtIATAww8/HNkYv+17dTznf9BC0Wl79LMfhC8n34EESMCfBDClMKdCAMMEQQmoLHWI4IrG31rJjv7qQz9yT9Hv7+ZrAfDZP/v6UCkV/Z9VeP6sFgT97fv928j8kwAJBIoAFipCrwBiEBYtsgsH6xTEo9HPqyT4qZ/7gXdes4/7betLAfCbjzw+EauGPqZL6f60Ah/xG3TmlwRIgAT6jQB6AzA8gNkEQQna61xLxKJfi4fCP/kzH3j3y357L18JgN965OsnItXoJ9So76cUdNpvsJlfEiABEuh3AvA8uJHLBU0IYHjgSZ1B8Hc/9n3f+ZhfytgXAuDTf/3tO6RS+V/VwvS/V7CcwueXbxfzSQIkQAL7EEBPQDafD5YQ0HeNR6IvR6LRn/nYB971hX1e3TOHPS0APvWlb90XksovqjX/h5UYffF75mvDjJAACZCAMwRgMJjVHgH0DAQpJKJRXakw8omPffDdf+DV9/KkAPjNLzw+HI/KP1Pjvr+n4DyZR68WKPNFAiRAAn4kAKdCG9ojUA6aEIjHnk/G5P0//bfee8Vr5eK5yvXTX3z8w1rl/5p29896DRbzQwIkQAIk4C4BzBiAjUBQ3A2DFtYfSMZiv/axD77n59yl117qnhEAv/3Fb52OhKq/oRX/B9p7BV5NAiRAAiQQJAJVnT64piIAvQJBCmooOB8Ph37oox9879e88F49FwBw4rM5cfajWvH/HwpkwAtQmAcSIAESIIHeE0BvwLoKASxTHJSABYi0N+D/W9sa/3CvnQn1VAB85ktPvFm7eX5Lu/zvD0rh8j1IgARIgAScIwAHQmtbW4GaLQA66mI4p8sS/10dFvisc7TaS6lnAuA/fPGxj0go9BnNLqf1tVdmvJoESIAE+o4AnAjBSDBQvQFaiol4/Nd/7oPv+fu9KNCeCIBPfemJXwhJ7Vf1hXvy/F6A5jNJgARIgAQ6I4CpgivZbKAMBEEkGY9/TkXABzuj0/7dXa2AH3qoFj75nif+jT60J2qnfTy8gwRIgARIwEsEME1wOYAiQF0KP7WRqT3w0IMPds1XctcEwKcfeSQptaHP6jK9P+ylLxPzQgIkQAIk4C8CRgRsbgpmCwQp6AJD1yKV2r0f/6EHV7vxXl0RAL/9518bC8fjf6wv9K5uvBSfQQIkQAIkEGwCMA5ET0CQVhlEicUi0fVELPamn/3+77zgdgm6LgAefvi5eHYi92V9kbe5/TJMnwRIgARIoH8IBFcERLLpIZn96QcfzLpZmq7719+YyP1rfQFW/m6WItMmARIggT4kEAmHZTgdvIVh1dgxk8+G/8btInVVAHz6S4//d9rF8L+4/RJMnwRIgARIoD8J6Li5pOLBm02uXhDv/dd/8pVfd7NUXRsC+NSjjw6GisnzmvkpN1+AaZMACZAACfQ3AawbsLi+HrjpgVhDIJGKnfj4+99zw40Sdq0HIFRK/gPNMCt/N0qNaZIACZAACWwT0IpSBlOp7c9B2VFhE5aSPOzW+7jSA1C3+sfSh8EbnHGrJJguCZAACZBARwQwK6BY7to0+o7y2urNWDtgIJE858asAFd6ACLx2N/Wl2Pl32oJ8zoSIAESIIGOCaQDaAsA18fVWuWXOoazRwKuCAB1zfDhPZ7FQyRAAiRAAiTgGgGdP+9a2r1MuFSu/IAbz3dcAKha0Q6L0INuZJZpkgAJkAAJkMB+BNBdHtNZAUEL6vlwAq70nX4vxxP8vc8/PamZTDidUaZHAiRAAiRAAocRgG+AoIWavtDYW7/yOqffy3FStVTtjNOZZHokQAIkQAIk0AqBiPYCBDGEwhHHHeo5LgDOTAy9IYjw+U4kQAIkQAIk0CsCx4cz73X62Y4LgMFkYsHpTDI9EiABEiABEmiFQNAWB7LfeSSdvGbvO7V1XACMDqbXgzgG4xRwpkMCJEACJOAegSAKABg3DqeTjjeuHRcAKNaxTPA8Mrn3dWXKJEACJEACThCAS2BdSMeJpDyVRjruzvRGVwTA5HDGU/CYGRIgARIggeAT0AV0AvmSYwPuNKpdEQATg2mJRlxJOpCFy5ciARIgARLonMBmodB5Ih5LAescTLvUq+5KLQ0bgNOTox7DyOyQAAmQAAkElQAqf3WYE7jXm9QGdcylBrUrAgAlcGJ8WJIujVsEroT5QiRAAiRAAkcmAMO/bD5/5Pu9emMUjemxIdey55oAQLfFXccmJZguGVwrDyZMAiRAAiTQJoH1XE6waE7QwumxYXHTsZFrAgAFgdkAZ6bHglYmfB8SIAESIAGPEIDhXxCN/yYHB2Rq0B3jP7voXBUAeMgZtQWY0BdhIAESIAESIAEnCWDK39rWlpNJeiItLGt8bmLY9by4LgDwBvecmpYpTg10vTD5ABIgARLoFwKo/FeyWcHc/yCFTCIu9x4b78ordWXdRNgD3HNyWhLRiFxZWuvKi/EhJEACJEACwSRQLJdlZXMzcOP+o+mUvG66ezPoutIDYH8Fz81OyLmZ7igb+5nckgAJkAAJBIdAUCv/6aFMVyt/fCO60gPQ+NU7OTEiiVhUXrg6H7ium8b35D4JkAAJkICzBGDst4qWv7PJ9jQ1zJQ7qdb+x4e7byvXdQEA0rAHiOtwwDOXb6rjhmpP4fPhJEACJEAC3iaACj+rU/2C5ukPw+O3w1B+INmTAujqEEDjG46ob+O3njvJGQKNULhPAiRAAiSwiwCM/ZY2NgJX+cPS/w3qK6dXlT8g96QHwC5dDAW84fSMLKxvyivXF6Wghh0MJEACJEACJAAC8O4XNA9/cJV/YnRIjg2le17IPRUA9ttPDg3IqDoNunhzWa4vrwVqfMd+R25JgARIgARaIwCf/pjfH7SlfUfSSZ3fP+Kab//W6O5c5QkBgOzA5/GdxyZkZjQjL11bUNVX3Mkl90iABEiABAJPAO58Mc6/qS3/IBn6xSIROasV/1g64aky9IwAsKkMpZLywO0n5MrimlxaWJZKNUhfA/stuSUBEiABErAJ4Fc+pxU/uvuD5NgnpEZ+k5m03KaL44U9uDCO5wQAvhCAdmpyRHsDBtVx0KpcX1qXsq72xEACJEACJBAsAlvFomnxY0W/oATUYXDqc1rrsGQs4tnX8qQAsGlhquDt0+NyemJUrqptwFXtFQjamJD9rtySAAmQQD8RyGnFjxZ/kCp+TOsb1xb/aR3KRre/14OnBYANLxoJm0WFTo6PyPWVdR0eWNXVnzhjwObDLQmQAAn4hUBenfmg4oehX1ACLPsnB9NyamRQIl7s698HtC8EgJ13gD2pYynHx4ZkbnVDXltYlVyxZJ/mlgRIgARIwIMEMK6PFj/G+YM0nIvG6bSudntiJKNj/B4c5D/ku+ArAWC/C0DP6jzKGY0La1ljMLiey9unuSUBEiABEvAAAQzZbmmlj1Y/LPyDEhLRqEzr9PVeuO91kqEvBYANAHoLboURtwpFubGyITe1Z6BYDk7Xkv2u3JIACZCAHwigos9phY/WfpBsttDNP6yz1ODAZzAZ90NRHJpHXwuAxrdL6xrKt+tKg2fVaHA5u2XEwNLGZqCmlDS+L/dJgARIwEsEMKYPi3509QeltY9G5oDWLRjfn9bov07+g78hgREA9mtiGGZcCwqxpAsNwVYAvQIbuYJ9CbckQAIkQAIOEKjq1D1076PFXwqQK/e4dvGP63o1x4bTEveBNf9RizJwAqARREwNNE6o0SDipnoWvKFCAIKAQwSNlLhPAiRAAq0TgEFfXlv5qPiLAar0YVs2rK56Z3VsfzggXfyHlWqgBUDjyw9ogZ7TIYLbp8d0Pem8LOrwwKIuQpTndMJGTNwnARIggVsImEpfK3xU/EGq9DGuP5hMaGs/qavypTzpre+WwnDwQN8IAJuZ8dCkCw9h8aE7Zid0PmpBhcCWEQQcJrApcUsCJNDvBFDpF+qVfpBWakX3/nAqYZbhHdFtP4e+EwDNhZ1R9Yd4ZmrUOBeyega2tJcgRwPCZlj8TAIkEGgCMORDCx8Vf1AqfRjuJeMxGVEL/qnBlKR1GXoGiwBJNHwTEvrFOD4GR0PDxlnF8obVM7Ck27IaFDKQAAmQQJAIwFofFX2xXuEHxS0vxvNhvT+qY/pT2tsLezCGWwlQANzKxBzB8sS2jwH8kaxt5WVFewVWsjkzowDdYwwkQAIk4DcCmJuPFj5a+kEZz7da+XEZwwwwbemnouG+G88/yveQAqAFarAbGFEDEcTbpsQsUQxBgGECxHWdYhiUea8t4OAlJEACPiKAqXpo5dst/aA0XlLarT+aGZBjo8NyenJUsHgcwur6hqxuZH1UQr3LKgXAEdhjTYIx7VZCREC3mekh0N4BCIINNSxkB8ERwPIWEiCBjgng98hu3WNuflB87ydjqPDTWuEPaYU/JhiyZeiMAAl2xs/cjakkY/rFRETAH9yaTjXEkAEEQRY9BOYM/yEBEiABZwmgSx8VPip7bIPSwk+gwtde11m08NVIO6WfGZwlQAHgLE+TGuwHbG+EOAADQkwxxIJFGC7APpczdgE8kySBgBPAUGNRK3y7skflH4ThRzSiYLQ3MqAud4cH5bg6b0MXP4O7BCgA3OVrUseSkfA7gGgHeCOEINjYgjCAKMgb18X2eW5JgARIABU8pubZrXzs+z3AQh9rtwynUzKpC7lh1tWQGu4xdJ8ABUD3mZsnwmBlQteRRrRDrliq9xRYgmAjVzT2BfZ5bkmABIJJAK14DB2aMft6hY/K3u9DhzCgRtf9kE7HmxjKmGXcG3/zglma/nkrCgAPlRW6vBAx/RABhoRY5tgeNtjUfaxpgNYAAwmQgD8JoLJvbNnb+/58m51co2UPhzsDCXWtqw2b2ZFB/S0blLAaTTN4kwAFgDfLxeRK/54Eaxggzo4ObucUwwcQAtm6ILCFQVCceGy/KHdIwOcE8DeJlrxp3WNbj35+LbTqYYGPih6L54zrVLypkQy78X1YqBQAPiw0DB/Em2wK8BpY2AjCwBYEWd1HD0JQrIJ9WFTMcp8QsCt5bBsrfT8b6KGix28NKnqM0WMKHnon7dlOfVK0gX5NCoAAFW9SVTkiZiDYAWOIuUJpWxRAHMDWAJHujW1K3JLA4QTscfpKvUXfWOkffrd3r0DXfUwXyMHwI1bGQ0U/qeP1E1rZ04Gud8vNiZxRADhB0cNpYPQtnYiZOKnrXDcGjD1CHEAMbNVFQa5QNp9pZ9BIivv9QgCVPFrwdkTXvd2ix9avAZU8VsFDJY8hRdOi1yl3Y0NpyWgLn6E/CVAA9Ge5m7eORSISS0eMhW4zBvQO2D0F2wKhLhZgg8BAAn4lANe4dsVuV/SmktfjOOfXgLn0diWPFU5heQ9HOjDIQ8XPQALNBCgAmonwsyEA3wWDulY2YnPAj2WuaPUU5LGKWFEXF1EPZHBuBDsEeCPDDAYGEugFAdi84DuKytyu2LG1o1/H5a0KXu1/tCUPa3v07A0mrbH5ce22p2vcXnzb/P1MCgB/l19Pco8foox2IyLuFVD5QwRAEEAYQBQUSliBjCJhL148djgB0zWvXyxU6qjgTeW+z+fDU/PeFfAeGoNxb72bPmUqdxXgWsGjJY8ue06n8165+T1HFAB+L0EP5l+HG01r5KAWya0iYUcglHSIAcMMsENAxLUMwSRgWuqHVOio8P3caodgRo+aabmrkS684EE8s3IP5nfaT29FAeCn0gpQXlsRCXhd1P2wtjaCoEEYWJ+x6pntJlW3uo9rqRd6+0WxW+jbXfH1Cn6vz73NaftPhzFdBLYzWqHDhgaVeiIWMV3y8HiHyt1U8ClsE7Sibx8x7+giAQqALsLmo9ongFkMxlhRf2zlVnOEWxJEb4HpOYBYQA9CXTTAqBGGX2ar+5UqxELDMXQtVykdABStbZAw23rrG6ZxjZ+xb45hbB37DV3zXqeI+e2oyNGlHgmFtULXFrpppTdU7NpSh+EcxtkH4nDGlTCL1bAbHt8QhqAQoAAISknyPQwB9CwYR0lwYNImE1RqtkgwxmMQCE0iodL4WfdtwzKr1avGZ6Yy1AqxVtUKs80MHPFyPHu7ctY07H1zvOHz9vHmY/XPdjr60XMBlbapuDVnIa24w1KvwOsVN7rYY+GIRKPa1R6JSlxb5Yl66xzLymI4KhWHn4yYoEuegQRIQIQCgN8CEqgTQAWz3dvgABVUuNuCQHsXIAoqZosWMz7XrdV1i892Sxqiwuq5QA+F3VMBD3O4Hp+t+8z4uR4z7XUVG2avvkUTHvoDeUDYvW+dtM5oharnUalG6h3WEFE4ao7b+7q1du3j5pOplLFnKuj61txtKmwrFbSuwxGrtY2KGp8bW92m9a0VN7Y2fxjEWZV5hBU2gDKQgAsEKABcgMokSQAEUClGUZuywckvBAmQgAcJ8KfJg4XCLJEACZAACZCA2wQoANwmzPRJgARIgARIwIMEKAA8WCjMEgmQAAmQAAm4TYACwG3CTJ8ESIAESIAEPEiAAsCDhcIskQAJkAAJkIDbBCgA3CbM9EmABEiABEjAgwQoADxYKMwSCZAACZAACbhNgALAbcJMnwRIgARIgAQ8SIACwIOFwiyRAAmQAAmQgNsEKADcJsz0SYAESIAESMCDBCgAPFgozBIJkAAJkAAJuE2AAsBtwkyfBEiABEiABDxIgALAg4XCLJEACZAACZCA2wQoANwmzPRJgARIgARIwIMEKAA8WCjMEgmQAAmQAAm4TYACwG3CTJ8ESIAESIAEPEiAAsCDhcIskQAJkAAJkIDbBCgA3CbM9EmABEiABEjAgwQoADxYKMwSCZAACZAACbhNgALAbcJMnwRIgARIgAQ8SIACwIOFwiyRAAmQAAmQgNsEKADcJsz0SYAESIAESMCDBCgAPFgozBIJkAAJkAAJuE2AAsBtwkyfBEiABEiABDxIgALAg4XCLJEACZAACZCA2wQoANwmzPRJgARIgARIwIMEKAA8WCjMEgmQAAmQAAm4TYACwG3CTJ8ESIAESIAEPEiAAsCDhcIskQAJkAAJkIDbBCgA3CbM9EmABEiABEjAgwQoADxYKMwSCZAACXiZQLick1C15OUsMm8tEIi2cA0vIQESIAES6EMC4dKGpOYfl8TCUxLNL0g4vyyRwpKEy3lDoxoblEpyXOOYlAaOSX7qASmMv0Fq4Vgf0vLfK1MA+K/MmGMSIAEScI1AuLQlA1c+L6m5b0hi5QWRWnXfZ0EgIMY2Lkly4VsyeOlPpRpNSmHiftma+U7ZOvYukRA7mvcF2OMTFAA9LgA+ngRIgAS8QABd+plLn5OhC38g4eLGkbOE3oHUzb8xcejC78vaXT8uuem3Hjk93ugeAQoA99gyZRIgARLwBYH0tS/L8Eu/K9HcvKP5jW1ckYnHPymFsXtk5Z6fktLQWUfTZ2KdEWDfTGf8eDcJkAAJ+JZAqFqR0Wf/Lxl/8l86Xvk3QkksPyfTX/0FgdBg8A4B9gB4pyyYExIgARLoGoFwKSvj3/rnklx8sivPxBADhEYse1mHBX5UnxnqynP5kP0JsAdgfzY8QwIkQAKBJBAprMjUVz/Rtcq/EeLQ+YdVePyLA40LG6/nvnsEKADcY8uUSYAESMBzBNASn3j8VyS2eb1neUvfeFSGX/ydnj2fD7YIUADwm0ACJEACfURg9Olfl/jqSz1/46GLfygDV7/U83z0cwYoAPq59PnuJEACfUVg8OIfycC1RzzzzqPP/IYnxIhngHQ5IxQAXQbOx5EACZBALwhEc4s61e/3evHofZ+J4Yixp3+D9gD7EnL3BAWAC3xrmuZ6rqAxL9l8UXJF+sx2ATOTJAESaIPA0Muf9aT/fngRHLj2V228CS91igCnATpFUtPJl8pybXlN5lazUtD9xhCNhGUwlZChVFKG0tY2Ho00XsJ9EiABEnCFgNcrWYiTrWPv5hoCrpT+/olSAOzPpq0z2XxBnrx0Q0rlyp73lStVWcnmTLQvSMaiKgpsQZAwAiESZqeMzYdbEiABZwgMv/RZT3ezY3gic+nPZOPsh5x5YabSEgEKgJYwHXzR+lZennrthqCSbyegxyCvzjgW1rPmtpD6xUgn4rt6CQb0M44zkAAJkMBRCIRLm2ahnqPc28170je+TAHQTeD6LAoAB4C/dH2h7cp/r8fW1HhgU20GEG+sWFdEwiHTM4CegkwybiJEQpiqYC+EPEYCJNBEIDn/hI797x6SbLrEEx/jq+clkl8yywt7IkN9kAkKgA4LeTm7ZQz9Okxm39sr1ZqsbuZNtC9C3Z+Kx2QgkTCCYKAuDJJ6jJ0FNiVuSYAEQCA193WfgKhpXr8p2dPf55P8+j+bFAAdluHVpbUOU2j/dvQUbBVKJi6s79wf1t4CDBkYQVDfYj8RZTHvUOIeCfQPAbT8kwtP+OaFU3PfoADoYmmxZugQdqG0t9Ffh8ke6faq9hZs6PRDxMYQ0xkIA8nEtjgYSMQkpZHCoJES90kgeAQihSUJl3O+ebFo9opv8hqEjFIAdFiKVTTHPR5Kapy4upkzsTGrsC/AsEFaI4YUTIQ40P2EzlDgcEIjLe6TgP8IhPN1YyKfZD1SWNWc4jeVvz7dKDIKgI4pe18A7PeKsC+wjQ6br4GRYTIeNWLACIS6MIA4wPTFEI0Qm5HxMwl4jkCksOy5PB2UIXgGxDLF1djgQZfxnEMEKAA6BDmeSetYfPftADrM9qG3o2fDtjNYaroalT9EgN1rAKGAHgMMKeB4PBbhLIUmZvxIAr0gEPVZDwAYRTTPFADd+bZQAHTIeWZ0UK70wBCww2x3dHtNxQHcGx/k4hheDo0oUEEAUQBxYH3eOc6pjB0VA28mgUMJhCr5Q6/x2gWhin9sFrzGrt38UAC0S6zp+owa141lUrKsXv4YdggU1SMiYrNB4s4VIjGIhHqvQbM4gICIRazI0YZGatwngdYJVOLDrV/skSuriRGP5CT42aAAcKCM7z01I0++et0sAORAcn2TBNwmI8KN8n4BpkBRCIFoWOIqFjCjwYiDukDYFgr62doP0z5hP5g83hEB9HyVq1WB3S++a34IleSoH7K5K4+VhP/yvOsFfPSBAsCBwoL//jeeOSbPX7nJngAHeDYmARPLUkWFgkbYJLQSsPDSLmFgBAR6E8IqJqwYCUesfS07c0y38KPAEEwCqLRReVf0e4Qt3HZvb+v7FWxvOa7X67EK7lWjWTtg+Aq9VsPppNw2NWpm09jnvLT1W2VajaV1QaC4lxAGOi8UAA4VLyqX+1QEoMv78uKqLK5vih+mCDr0+p5KxvyI64+2Soe28oUfdYg5WyRE6/sRiAb7uL3VY40iAuLBut/acpZEW+gPvBjVrqmc7YrbVNKVPY7VK/B6hd1YmaMCdzLgb9u2g5lfy8qJ8WE5Oz3uuXU7qskxJ1/b9bQqCX/l13UgLj+AAsBhwFjy956T09pNWDMugtdVEGCxIGy3CkWHn8bknCSAH/Vqvbeh03RhtxAOWb0KjcLAPgYfDDhuCQeIicbPDceRkPk/tF25QFygr8IWGdYl9nW3Hsd5JGLdU9+3LjczrtE6xvcV/6GRa/bxWffBxPxXP24+29fsd725ZyedxjTNPlKsp4/tdpomvZ1zOG63vpFrrwbkE6Jfsci5mXFPZbMSH5FS5oTEslc9la/9MlMYv3e/UzzuAgEKABegIkn8OEMMIB4fGzJPwY8ZegjWc5YggDCAoRxD8AhonSCVGrqNg/dufKO9CVxRETCoRsHTI5m9L+jR0dz021UA/McePb29xyKvDN0jQAHQPdama3lUZwwg2qGgSwIbQbAFYWC58XW6u9J+FrckQALuErgwt+Q9ATDzNhm64H0BUI2mpTD+BncLiKnvIkABsAtH9z/AkGgylpHJIavVgJYjhgpsUZDF8sD6maKg+2XDJ5JAuwQg6OFdE4tweSUUR+4UGANGCt52C5yferMaAMa8gq0v8kEB4LFixngtfjwQZxtmw+SLZckWCpbrXhUEEAY5tYrH+CMDCZCAdwgs6RLhXhIAsP/InvmgDL/0e96BtEdONjSPDN0lQAHQXd5Hfhrc7SJODA5spwEDqi31yGf788+qMMB+Xo9RFmxj4g4JdJUApqx6LWzc9oOSee1z6mbXm2sD5KbfJsXRu72GLfD5cVwAzK1uDE8PcyGHbnxzYGg4kNDeAo3S4PDLLPJTFwMYPthURzub+ZIUyuVuZIvPIIG+JgDX114LtUhC1u/4iIw+8xtey5p2UIRl7XU/7r18eSxH2Xxpp/XnUN4c/6YurG9OUQA4VDpHTAZTyoZ09gFiY4AdQU6HEsz8ZR0+QO+BPZcZY5cMJEACnROAXY8XQ/bk90jm1T/23JTA7MnvNVMVvcjMS3naKBQc95Hs+De1WCoOoDLx6h+Blwq023mBk5uM2hYgNoeqTtCGGGgUBbAxwGeKg2Za/EwCexOAB8qRgZ1ZPntf1aOj2tJeetM/lKmvfULCZW8sElQaPCNrd/9kj4D457ElnU9cLJcd/2I5LgCA9NrymvGK5R+8zCkc0tjGh800YGho9xRAFNj7eRV6EAeNLlKb7+VnEugnArdNjRmvkV5959LgKVn+jp+Xicd/RbPYW0shOClafMs/kmo06VVcnsnXivqMiakNmNPB+RQ1h5cXVygAnC6pHqYHj3XbtgZ7mHfAwZEtBiAIEPNqb2DvF0rqttVhV6w9xMFHk8CeBLAuwOyo5fRrzws8chAGd2t3/ajOCvhsz3KE6X6LD/yilFNTPcuDnx68tJmTmfgeP74dvoQrAmBudd3MZU/DOI0h8ATgOz8T2XtowX55iAQjDOoCAQaJu0UDRYLNilv/EZgdHZQ7j01uu2v2+husn/sR9fNckuFXfr/rWcWCP0v3/wKt/lskX1BvsWs6u2umxevbucwVAYAu46cuXZN33HVbO3nhtQEmYC2wY/k32O81IRLgGhnTqMxW94vwzY9ju/ar5hr6QNiPJI93gwB6xjDePzMy6Dnvf628//qdPyrlwdMy9tSvSaiy/5LcraTV6jWlgWOy9MAvq9Hf8VZv6fvrLq+sm7Uz3ADhigBARi8tLMvrjk+r29u0G/lmmgEkYK/CJ9KaNzAIhm2xUBcKxbJ1zAiGupgwAkKv5TBEAL80Dr0SHHBtrwRpVnzU5aJ1u2slyIZVIWNq7DecSvp+Cemt2XcJKmXYBERz8w7R3DuZ/OSbtOX/Camq51OG1ghsqhH2YjbX2sVHuMo1AYC8fP2VS/K9973O/GEdIW+8hQQOJGALhlS8NcEAk6fda75ba8PfutSstawsBANEhon1fYqIA4ukJye17r6lot6pzLUiR8XdUHlvn2s61pPMe+ChpaGzcvN9/04GX/0TGdQ1A8KlTUdzVRo4rvP8f0xyM+9wNN2gJ4YezvMLq66+pqsCYFUNF755/rK8484zrr4EEyeBVgigorArg1au3+sa/Zs0PQk7oqBi3DFjGmVFT2JbNasA2vvYVs01mC2BP2rrWj1W/7xz3LrOPr7X8714zCxPrHCx4LBOJjErYVrHrCWI0VWOFjaObe/j6vpx61j9mvpxOx34tIiGI1YF31Bho3WOsrRb6F7k4qc81cJxWb/9hwVz8ocu/IFkLv2ZhKqdLV9eSYwY50ObmmZNy5ChPQIXdXVJTMN2M7gqAJDxS/NLMq7DAHceo7WnmwXJtLtDABVZpyKilZyitwLCAYKjhv9wQAPcP5vd+tY6bh3b3jf3WNfuvqcprfo0MFMBm4p3p/K2K2BU4XjngyppkzH+EwgCVbU0X9V5+WtqH5BceELSN/9GkvOPt9wrUE5NS2727ZKbepsUxl6vX6hwILh0+yVurG/Kgotd//b7uC4A8KAnLl4xY7X3nJy1n8stCZDAAQS0zuXQ2QF8eMpdAnAdnJt5p4mhalli6xfURmBBIrklCReWJVpYklooJpXkuMYxsy2nj0lp8KS7GeuD1K+tbsjllY2uvGlXBADe5OnXruvUwJI8cPtJ0/XXlbfjQ0iABEiABDoiUAtHpThyl4kdJcSbDySAnr1XF9dkbsNZG4yDHtrV/pnzNxfkKy9coDX2QSXCcyRAAiRAAn1FALZBL80td7XyB+CuCgA8EG6Cv/jMy8YpDD4zkAAJkAAJkEC/EoBB8XM3lgTufrsdHBcAaix06LJyS9rF8YWnX5SNXHecT3QbKp9HAiRAAiRAAocRgDfUZ24sSlaXbT8shNVd02HXtHvecQEwNDCw1EomUPn/l28/Ly9cnXPNy1Er+eA1JEACJEACwSGAFrXXA2bsXF/LylPXFoxL9FbyOxCPrbdyXTvXOG4EODs6vNBqBuBU5clLV9Vr4JK89dxpGR8caPVWXkcCJEACJEACtxCoVB1vKN/yjE4OoLV/UY394OWvnTA8kHbcK5DjPQCpeKQ8qC4y2wlwGPSFp16UJy5Y0wXbuZfXkgAJkAAJkIBNoNhmxWrf5/YWDr9eXVqTZ64vtl35J2NRnRbsgyEAQDw5PtI2S0yBePnGvHzuiefk6pLjQqft/PAGEiABEiABfxEoFIuenGW2rAZ+T16dl5vq4OcoYXygvUZ1q89wvAcADz41Mdrq82+5LqfqDVMFETdbMIy4JQEeIAESIAES6EsCm7nuW9IfBBpL+WJ6HyJWNj1qGNdVJ90IjtsAIJNYAXBqeFDm147uzQi9ANd1yuDpyTF5/YkZGUq7o4DcgMo0SYAESIAEukugVC7LxuZWdx+6z9Nyat1/bTUrizq8DffdnYShpC6j3uKCZ+0+xxUBgEzcf9sJ+YsnX2g3P7uuh3OEV3UtAcQTOqxwz8kZGcvQUHAXJH4gARIgARKQpdW1jivbTjFm1dstXPmiy9+pcGZs2KmkbknHNQEwpr0At02Nm8r7lqce4QB6BBCnRwblnhOzZnuEZHgLCZAACZBAwAhkt3KS7+GQ8ZpOa7+m0/qwdTJMaj06kGhtufOjPNc1AYDMvFn9/sPpz7qD4zJzqq4QMWUQQwPoGWAgARIgARLoTwJYNXNlzfEp8i3BREsfXf2tOPJpKcGGi1Jq+X/buHutfzzKVQEQi0TkXXeflc/rFD+nnTNAWMBQcFhtA+48Ni2n1fAwFuWa0w3fH+6SAAmQQOAJLGvlD58y3Qp41uJmXm5oix9j/W4ELL9959QYpv65kfx2mq4KADxlOJ2Sd951Vr764kVXCmlNFdhj51+Tb+mSw5h+eHZ6gsMD28XLHRIgARIILgGM+6P7vxsB3fvz2S1Z1sof9mluBavyH5V03PXq2d0eABvQcTViePDeO+TLz1+QolpquhGgyi4tLJs4kIjLbdPjxgYhk0y48TimSQIkQAIk0EMCiyurrlf+mMY3v7ElC1rxY9/tEA2H5XXTYzKolv/dCO5LjPpbTA5l5HveeJf81XOvuD6/H/4Dnr18w8RpnY54VsXASR0iiChcBhIgARIgAf8SQNt7cXlVNnPutPzRul/SVv6CVvxreWeN+g6intAh7LtnxgVj/90K3XuSvhHm8n/Pfa+Tv37uvKx0ab7mnPoiQHxc3QyfmhyVszozYULFCAMJkAAJkIC/CGBO/YJW/lt556bZ2QQ28kXTxb+kc/fhtrebAfP8XzczJnG1m+tm6KoAwIul9EW/+413yqMvXJSbq92z3CypF6YLNxdNTOsQAYYlMIMADosw5sJAAiRAAiTgXQLG+E4r/1zBmVY5xMSaVvorakcGa/5iF7r496I7nErIXV0w+Nvr2V0XAMgEZge8955zxnDvlRstLx64V/6PdGxLhwjwXETkZXZ0yIgBXclQ4pxJcCSmvIkESIAE3CIAF7/LavDXqbV/WW3FVrcKpsJf1TS73dJv5jMzNCBnxoYk1KNGaE8EACCg1f3A7aeMq19Y8cOavxcBPQOXF1dMRCFMDWfkxNiI9hCMyECXDDF68d58JgmQAAl4nQDm+C9pT3En4/0w3kMLHy39dR3Td9GAv2WcGOe/fWKka8Z++2WsZwLAzhCMA99//+vlhas35bkrNztWeHa6R9miS8h2NPSETisc0QUYjBjQoQJ4NmQgARIgARLoDgGM82OaX6XS/hx/uOS1u/a3PLQ8MBq+J0Yyckwbmr1q9TeWXs8FADIDKPecnNVVBMfksQuvmUq4MZO92l9VYxDEZ6/cMLYLsBfArAJsB3XchoEESIAESMBZAlU1wFtea29+f14d8mA8Hy389Vyxo5X3nH2bndQw1n9WPfslu2jlv/P0vfc8IQDsrKFS/a577zTrB3z71atScMnLkv28drZYpvg19TOAiABjRlsMTOn6BIP0N9AOTl5LAiRAArsIoAd2Y0un3m1kD231o8Jf1wof0/S8WuHbLxeNhM04P/z6ey14SgDYcLCI0DG10n/mtetycW6pp8MCdp6atxAEtuMhnMPMAtgP2L0EdEDUTIyfSYAESOBWAphwt6kV/+p6Vl3G7+1sx67w0cJHS79XFvu35n7/I+jZnhpMy8nRQYGDHy8GTwoAgEpEo8ZI8F4dGnjx+pycv7EoMNjzasDMgkvz6olQI4IlCDBkYIkCCgKvlhzzRQIk0CsCm+rGd1Vb/KUmD7F5NdxbV9e7fqrwbYbw3z+ti9VhnD+mrX8vB88KABtaUrvav+PMCV35b1Zevj5vYqHpy2Jf66WtJQiWVBAsmWwldNxnPDNgVjEcU1WIfRxjIAESIIF+I7ClU/BWNjakpF35WChuQxtQm9qrCuM9rKxXOoLhX68ZopU/OzwgmNrn1RZ/MyPf1ECYn3/vqVl53fFpOX9zQV68NifohvdLgD3D9ZU1E+08o1cAswuwtPGYCgLsY7yIgQRIgASCRgBd/Vn1AHt1cVk9wea2K/tu+Nh3kyW89x3Tin9aK350+/sp+EYA2FBRQUIE3HlsytgHYPpgVseF/BiQb0T4IUDAtBAsbwwxMF7vJRjWqYh++1L5sSyYZxIgAWcJwKf+mlb0Czq2P6dz+Vd0QR1Myeuuk11n36kxNVjzo5t/KpPyxJS+xry1uu87AWC/GCrFczMTcrsu9HNtec2IAbSwYUnq14C821MPL85Zb4EFjEZVBEAUQAyMqEDAEssxeiz0azEz3yQQOAIlHbNfw3i+OttBpb+c3TTrvfTa057ToNHAH0kljXHfqP4W+6u9fysN3woA+1XQaoZPf0RYimLM/VWNqEiDEIz/641NWdTYGGBkiN4CiAFEOC3CZ6542EiJ+yRAAk4SwO8RvLbi9xUVvhXzApunIIe02qKhpT+hw7ReN+xrpxx8LwAaXxZdMhgeQFzW7qZXdQohpuoVfWA02PgerezjDw7xxsrOgkpQowNqV2AJgh1xgFUYOYzQClVeQwIkAALovl9Ha75eya/q8rjY39QhS//2sbZXtjDkm9BKf0or/YFErL2bfXJ1oARAI3MY1CHef/aEXFtalYvaK4DK0s9DBI3vt9e+MbKp2xVcs2YjmsvQSwInSyP13oKM7sNxEYwQORNhL5I8RgL9QQDGybBD2sDvhk67QyW/qnFD94P8W7lf6aIRhWHWSa34x3TrBXe9++XVieOBFQA2HLR8T06Mmmic9+g8/ctqhYoegn4J+EOGmkcUsQwO7XeHLQGEgC0IGsUBhhkYSIAE/E0APYWNlfz2vlb6GLtn0J5TbeFP6DAqWvyw6u+XEHgB0FiQcN9794lpEyEGrmrPwDVdXxoLAKHLqx8DfgBgnYvYHGBPkNEVESEQMmr40igSMioOgq6Om3nwMwl4kQAEPubOowW/XbnrPHvsZ9VrXqdL6HrxnTvNE367hvW3Da380YFkX1X6jez6SgA0vjjEwB2zkybCwyCGBzBUgJkEfnAz2fgubu3bBj/WUs1rux6DP6ABFQGI6ClIq4JOxXf2cQzeHBlIgAQ6IwDHZ5bNT8lsc0XY/1j7m1rxI/Zjd327VDGmP5JW3yta6cOSHx77+j3wF1q/ATHt8jmlwwSI+EOa13mrEAOYXggVzXArAdPqMC2M/fmgBwHWsxADKY3oZtslElQw0AbhVrY80j8EMAa/1VCho3Lf1Mo9p5W6qfS1p5It+KN/HxI6xGm38ocSCe21PHpaQbyTAqCpVNGyxSp/iG86e9JMd8EwAcQA7AaotJuAHfARP1wwLkLcL9giAQLB9CSoYMBsjoS91f1kLGaEAmcy7EeRx71EAMOJqNjzpVJ9W5aCVuSYpgxHOKjYTQXPyt3xYkP9jmHLUTV0xjx9NEAY9idAAbA/G3MG8+sR79FFiTBUsLCmXq3WNkxchSA45H6ePphAKyLBTgEGi0YcqCCwtjviYK/PtFGwyXHbCQGIflTet1TqzZW8Vvi4joZ1ndBu/95BrfDhTn1mZEiOqT+YHGYy6AJDDIcToAA4nNH2FRgqwDLFiAiwFVhYVzGgRoQQBUFxPrT9wh7bwQ8rIqYotRKwfoTde4ChBpQfRAS2OGd/3rVfv4YOlVoh7J9rIDTx3SmqiDffI93i73fXfsM5VPZ2hU+bIG+VMwyQJ1Dhj2qFPzZyyzBiMFzAdYc5BUAHnFFxHNcvICICHA7N2z0EKgowp5ahdwTww21+vI9QDBhugFjAlCAjGhr3jYBQQVEXEVifAtdjC+FgxVDDftisDham0VFLX4ZqtSZlrbBRae/E2vY+Vo9DNzu26JUzFbv+7W3v2xV5Q4Xfr7N8WgLu8YtgaDyha6OghX9cW/gJ7QFkcIYABYAzHE0qcbV6t90S4wBaEOgZmNe4pK580UPAHyIHgbuYlD2OizJ0MjQKBFglR/YRDeacng+paMC4JgSG/q/72Nb3sdVz1ufG/daus/WI1rfGtgXDWejuNnF73z6H4/b+4deBn0lPE0clvrtC36nMK1qJW+d2jumjGfqUAL7LGTUWHh1Iy/TIoP6ejgqWhGdwhwAFgDtcTarodrZnF+AAWjYruhzmki6UsbxhbTfUOQ9+KBn6g4Ddou2Pt+VbksDBBGCkZ62AmpbJIV1Zb3jIiOKD7+JZpwhQADhFsoV00AUMYxVEmbVuQLclnPAsqSDACloQB5vqvIOBBEiABIJEAIa6wzr/Hi7aJ7SyRws/Rl8hPS1iCoCe4rd8EEzplENEO6DbubGXYFmHD2BdzEACJEACfiAAA9thON3RrvxxU9kPqQ8QduV7rewoALxWIpofDB0cG9XZBhrtgLnDZqGO+qpc2IeHPnQpM5AACZBALwjANgXd+PZiY6Pauh/Xxgws9Rm8T4ACwPtlZHJouduNy2yDKIDtADwVrm2vzW2t072hfsBpbOiTgmU2ScAHBGCcl9aGCdYFwZg9fKOMZgZkRCt8iAAGfxKgAPBnuZlc488OC/QgYvaBHWDFvV5f2hPiAMt7orcAYgHnGEiABEhgLwL4TYHVPZzrDOl4PSr6MbVZQmXPin4vYv4+RgHg7/LbM/dQ61DpiKLrG9gBwwXrWCVMxYG9/rdx1avHsDoiAwmQQH8QgA8TdN1jjj0aEEPplAybVn3a+K/oDwp8SwqAPvoOYA465tciNgeIA/QQwMverm0+L1s6K4H9Bs3E+JkEvE0AVvcpdZozkIzpmDyW9Eb3PVybpyWu5xhIgN8CfgcMAYgD/DggNgfYE0AUNK43bgmFvFmKFP4NGEiABLpLAF3yMBhGSx4L4GB8flC77c3fsbbm8TfNQAIHEaAAOIgOzxkC+KHBeCDiXgFTFK3VzXbWKbeXMrW2ReMEaa97eYwESOBWAvibQzc9WvGI1kqZWslrKx4VfUb/Fjmt7lZuPNIeAQqA9njx6j0I2D9So3Lr0IJ9OXwb2GJgS9c732ufPQk2LW6DTMC03LVyR+sdlTgiWvFp7aYf0Jb8YFKXsdUtbHkYSMBNAhQAbtJl2tsE8GOHeKhIKBatVdiKWI3NWl4V4mHX2ur6GR4UGUjAKwQi6uXTXmUygcpdPdzh+w6LeqxImVL/9um4NQ6P4wwk4AUC/CZ6oRSYB0PAFgmt4IDRoiUMdpZt3fl8q3DAynEMJNAqge0K3az8iOWjUaFbrXZU6Mk4DOziktKWOrrnUfkzkIDfCFAA+K3EmF9DAAZOtnOkVpDAkHHXevBYC157Ecya8PbysdjW95uP4zO9LrZCuvfXoIsdqylieebtre6jkjZRW+gYXzcxEjUW8bCKtwRozBxHGgwkEHQCFABBL2G+nyFgxl3rP/JHRQInSsVGsVAXEehdqNSXvYVIsOLO8rb43NI1el3Q7SBQDttRu82xj9Z2OKRLI2OrEeLOijv79vLIOI6K3d6iZR6rd7mbCl3LGOcYSIAEDidAAXA4I15BAoYAjLLM2K7LK5hBLJQrZSmrqKhCFKjw0P91WzVbCBHrmHUcn/EfxAMmZO4+Z92j/xovkEjHvl6Ts95L68sQ/tP30//NNmw+Y1/37GM4r3eEUFE3X2/ute5HZY57rIpeK+uI3SKPmLStp/JfEiCBXhOgAOh1CfD5JNBEwHRdR7iYuG8T4QAAQABJREFUShMWfiQBEnCYAPvKHAbK5EiABEiABEjADwQoAPxQSswjCZAACZAACThMgALAYaBMjgRIgARIgAT8QIACwA+lxDySAAmQAAmQgMMEKAAcBsrkSIAESIAESMAPBCgA/FBKzCMJkAAJkAAJOEyAAsBhoEyOBEiABEiABPxAgALAD6XEPJIACZAACZCAwwQoABwGyuRIgARIgARIwA8EKAD8UErMIwmQAAmQAAk4TIACwGGgTI4ESIAESIAE/ECAAsAPpcQ8kgAJkAAJkIDDBCgAHAbK5EiABEiABEjADwQoAPxQSswjCZAACZAACThMgALAYaBMjgRIgARIgAT8QIACwA+lxDySAAmQAAmQgMMEKAAcBsrkSIAESIAESMAPBCgA/FBKzCMJkAAJkAAJOEyAAsBhoEyOBEiABEiABPxAgALAD6XEPJIACZAACZCAwwQoABwGyuRIgARIgARIwA8EKAD8UErMIwmQAAmQAAk4TIACwGGgTI4ESIAESIAE/ECAAsAPpcQ8kgAJkAAJkIDDBCgAHAbK5EiABEiABEjADwQoAPxQSswjCZAACZAACThMgALAYaBMjgRIgARIgAT8QIACwA+lxDySAAmQAAmQgMMEog6nx+RIgARIgASCSKBWlUhxTcL5JYnml6UWjkolOSGVxKhU44NBfOPAvxMFQOCLmC9IAiRAAu0TCFVLklx4UlJzX5fE4lMSKSxJqFrZM6FaOC7lgVnJTb9F49ulOHKHXhfa81oe9A4BCgDvlAVzQgIkQAI9JxBffVkGL/6RVv6PS7icbyk/oWpRYhuvmTh0/j9qz8CYbM28UzZu/2HdH28pDV7UfQIUAN1nzieSAAmQgOcIxDavy9BLn5X0jUc7zltEhwgGL/2pZC5/XjbOfsgIgWo03XG6TMBZAhQAzvJkaiRAAiTgKwLo6h9+4TNaWf/Zvl38R30h9AwMnf8DGbj8F7J290/I5onvPmpSvM8FAhQALkBlkiRAAiTgBwKRwqpMPP5PJL76kqvZjRTXZeypX5PY2nkVAv+jGhBGXH0eE2+NAKcBtsaJV5EACZBAoAigMp5+9OOuV/6N0AYvfU4mH/vfJVzcaDzM/R4RoADoEXg+lgRIgAR6RSC+8qJMf+0fSkSn9HU7JBaflqm/+QcSLmW7/Wg+r4kABUATEH4kARIggSATiOaWZOKJX9Hx/mLPXjOWvaZ5+FXHbQ569kI+fTAFgE8LjtkmARIggXYJoNKfeOKTOqd/td1bHb8+sfSUjDz/W46nywRbJ0AB0DorXkkCJEACviYw+vS/U0O8C555h8xrfyYDV/7SM/npt4xQAPRbifN9SYAE+pIAHPwMXPuS5959+MXfbdnhkOcy7/MMcRqgCwWYK5ZkYX1TpCYSDockEg7LYCouA4m4hEJ0j+kCciZJAiRwCIGRFz9zyBW9OR0prkrm1T+U9Ts+0psM9PFTKQAcLPzl7Ja8trAiq5t7u8+EGBhMJmQolZShNLYJScZjDuaASZEACZDArQSS849LYunZW0945MjgxT+UzVPfpwsLjXgkR/2RDQoAh8r55uqGvHhtQWo1bfbvE6rVmqxt5U2U+uybWCRSFwOWKBhUcRCLcGRmH4Q8TAIkcAQCw6/8v0e4q3u3YM2BzMU/VidBP969h/JJQgHgwJfg5sqGvHBt/kgplSoVWdrYMtFOIKW9AlYPgYoC7SXIaAxz6MDGwy0JkEAbBKK5RXX283Ibd/Tm0vTNr1EAdBk9BUCHwKva4r8w56wzDdgQIM6tWo4yYDeQScZNHNAhhIzaEgzo53iU7jQ7LD7eTgKBJ4DlfP0Qols3zGqCpcHTfshuIPJIAdBhMc5p13+xvPca2R0mvX07hhU2cgUTRXZcaGL4AMIAYgDRFgYwOmQgARIgARDwiwBAXtM3vy5rFABA0ZVAAdAhZoz99ypg+GBlM2diYx6S8aiZcZDR3gLMPIBISCViHEZohMR9EugDAqFKQeLLz/nmTWGsuHbHf+Ob/Po9oxQAHZZguVLtMAXnb88Xy4II2wI7YBghrbYFprdARQHsDCAKsKXRoU2JWxIIFoFobsFX7nYjublgFYDH34YCoMMCgg2AHwKGETYLRROb8xvVWQcQB5iSiK0tDCAOaGfQTIufScA/BMKFFf9kVnOKZYOlpo2qEIcxu1FwFAAdUg4H4IuKXox1tTFAbA6wJ0jpkILdY2AEAkSCxkSMX59mXvxMAl4iEMn7SwCg8o8U19QfwKiXMAY2L/wF77Bop4Yzks3fWnF2mKxnbq9Uq/p+RRObM4WpiRACsDlIRDWqILBj0uxHjBfE5vv4mQRIoDsEIoXl7jzIwaeE88sUAA7yPCgpCoCD6LRwbmYkI6/qNEB/DAS08EJtXILhj/2GFexkMLzQKA5sYWALBWyjnLVg4+KWBBwlEBLv2Sgd9oIhDAEwdIUABUCHmFGBnZwYkcuLvV9es8NXceV2DC+UK3vbHtgPhADYEQQRsw/bA0xzjOk2Xt/iM/0h2dS4JYHDCVQSY4df5LErqj7Ms8cQtpwdCoCWUe1/4e0z44IpeTfUIyBD+wTKOsxQ3sdAsTk1SxSEjXHiLQKhQSxYAiLMxZeaAfJzywTQw2UJWP1+6ne0AjFbrai7bzEi1R76ajnBHlxYTvptLD2k3f/DPSDVn4+kAHCo3O86NmV+FK4trRsx4FCyTKaJAIQW4lah1HRm748YgoBQsHsUIvoZPQ44bmJ9H8aOex3bO1Ue9ToBVN5WhY0eqHqE0DSVeL0yr1fo9jH7Oti9YL+VGT4Y0jo7PS7TOhToxVCN+6sHoBIfklqY1VK3vksk7RBpdE3fNjUmpyZG5ebquiysbRrPfWg5MPSOgP2jDtfK7QaU6bYwMAIhYsRDs4jANRFd6RFGkWb5Z50Zgq39GVtc0/i53bwE+XrYz2CaqhXFVLzY326Bb7e+96jMtaKuaKu8uRJvpfJ2gmm+VJbnr87JlaVVeePpWc9Nm62kxq0pdT4ZV6+mJp0oFqbRIgEKgBZBtXoZKoLjY8Mm4odtS7u217cwxS5vtpuFgulCbDU9Xtc7AujqtQWE07mwhAJEQl0s1AWDJSR2iwU4cYIY0f+3hzTMMfMZObPPW9udz9b1uHfnmH0tDukJfUetek3lq4tVblfEqEDx/qYiNucbz+2xr9c03mNV4PXrzLnGe3bSNpU+sufzAFfdz1+Zk/vOHDNYvfI61WhaiiN3SXzlBa9k6cB85CbfdOB5nnSWAAWAszx3pYbfXbjiRZwdHTTnKvorix8LWxBgW9BWBEN/EcDS0FWtGLW9218vHuC3hVvuV+eXdUjAW93uuZm3+0cATL8twN8Q770aBUCXywQtvJGBpIn2o7GY0PqW9hDUewngkAfjkAwkQAL+InBteU2HAke3e2q8kPvc9Ntl+IVPeyErB+ahrMMVxZE7DryGJ50lQAHgLM8jpQYDtYmhARORANqF9tABnAyZufbqjMftVQePlHneRAIksE0AQ0ZrKuZHBlLbx3q9UxqYFSyxG9t4rddZOfD5uel3HHieJ50nQAHgPNOOU2wcOhCxhg6QaEl7CrKYLqdiwETdh5c+9hZ0jJwJkIBjBFayOU8JALzY+rkfkfFv/wvH3tHphGrhmGTP/m2nk2V6hxCgADgEkJdOwynOaDQlo02tC1giQxBADMDIEPuYJtctS2gvMWJeSKDnBKDgPRa2jr1Lhi7+ocTWznssZ1Z2smc+IOXUlCfzFuRMUQAEoHQxFxlxfDC9/TawrsbUN0sUWD0GW/o5rxGGiAwkQALuEMDfovdCSFbu/nGZ+vovey5r1Vha1m//sOfy1Q8ZcvybmitWoqlYpB/YefodMU0srbMPEJtDoVyWnPYQ5Iq6VUGwHfUY/RY00+JnEmiPQDIWa++GLl1dGL9PctNvldTcN7v0xNYes37uI1KN7wx1tnZX/12lDTfHK1bHBcCNlbXJs+oQh8G7BMziPLp638jArXmEnYHdU4CtEQcFSyjAAx8DCZDA/gQyybiMZLxjANic0+X7Pi5TX/15iW1ebz7Vk89bx94tG2c/1JNn++2ha5tbI07n2XEBsLq5NVGreWsajNPQgpwe7AyGEdPJW14TFs7bvQUYTlDbA/gwsGNJzzOQQD8TODc7YRw2eZVBNTYgSw/8skx97eclXNrqaTYx5W/5vo/2NA9+eTgGbTdLZccXSXBcAEitGlnZ3JKxzB7NS7/QZj73JABf+YOphIl7XQDbAiMGdIjBFgUUCXuR4rEgEjilq4I2G+h68T1LmeOydP8vyORj/1jnHPdGtFeS47L45l9Sv/+3DlF6kVmv87QJo26l5XQ+nBcAmkMsjUsB4HRReT89ODlKJ2Im7pdbeMCDDUKzMLA+V9TXQVkX+9GvOvzQMpCADwhgjYe7jk/KzIh/xrHzk2+Whbf8bzo18J93vSegNHSbLD7wj6SS5FBxq1/vJfUyOaQO5JwOrgiAK4sr8h1njjudV6YXAALwgZ+Kx0w86HUgAmCPAOdHZgXAhn1zDJ+xMmD9PPXCQTR5zmkCMLLFMNl4Ji2TwwOHfp+dfr4T6eXV7/78O/+VjD/+j7tmEwCvhEv3/7zUIgknXqFv0lj2kwCA97rXFpbl9CQVXt98Qx1+0ZhZxjd8YG9C4yMtkVDd7kGwRQKOY7+s23JF13evrxwH50mcDtlIsL/2UYHvuSx043LRu5aIjkjzKpBo+fs9YDhg/jv/pYw99W9cnR0ARz/r5/5rWb/jv1Vk/ufWzXJfVMdSef0NcyO40gOAjD516ZqcGB8xy6C6kXGmSQKNBGKRiCBiCKLVgGGGsg5JVCAOVBDYS8ruWkfeXopWeyT2ugbXcrCiVeLOXNdYeWOZZYjF5srZrtyt5Zx1Geemih09UQwWgWosY7rkE0vPyMiLvyPx1ZcdRBOSrePvlrW7foyOfo5AFc7cLq+sH+HO1m5xTQDAf/0Luk72vadmW8sJryKBLhNARRKLIHZmW4M/UrO6n27Rs2B/Rg9DVY2s7HPYVsy11jXWedzb/Nm6D+fNcrmqMHTPLM8LROZYfWt9bjxfX2q34TyuaSegYauLBpsFbVBPgpMdzec9z4kubWzu0mute8znxn1z363nkPZ+6cKuxKq8rUocFTqOMThPoDD+BpnT3oD0jUdlUL0GxlfhNfBo8hYt/vzk/bJ2x0ekNHy785ntkxSvr2XVZsqd1j8QuiYAkPizV27I5FBGpn1kHIN8M5BAOwRQ0YVVSFjBcV8d7WRlz2t3BANO2wLB2iLXVuW+UzHvmQgP9g2Brdl3CWIkv2yGBVLz35DE4tMSqpYOZFCJD0t+6s3qbOhtUpi4X6pR543WDsxAwE6u6aqwV1c2XH0rVwUAfni+9tJFef/9r/elkYyr5Jk4CXSJgKng8SyjUWyh0qWH8zG+JQAr/ezp95sI4RgprklYRQGEQTS/pJPSYsaSv5IY1+24wKUvgzMEYOD8ysLKEftfWs+DqwIA2cD0rr967hV53z13UAS0Xi68kgRIgAQ8RCAklfiIiaWhsx7KV/Cygsr/hZvLZjq022/X2eBni7lb1SkMX3jqRVnP5Vu8g5eRAAmQAAmQQH8RyGmD+dnri8YdezfevCsCAC8Co8AvPPWSLK5nu/FefAYJkAAJkAAJ+IbAhi7jjsrfTaO/ZhhdEwB4MLy8fenZV+Tq0mpzPviZBEiABEiABPqSwPJWXp6/uWSmGncTQFcFAF4M06QefeGCnL+50M335LNIgARIgARIwHME5jY25aW5ZTN9uNuZc9wIMB6Lbx72EphZ+tj5y7K2mZf71GUw5vkykAAJkAAJkECnBOCHww8Bfj7g5Ofm+qFVpnmdWCTm+PKNjguAyaGB+Vbhv3xjXq4ur8qbz540XgNbvY/XkQAJkAAJkMBeBODZ0+sBXf6vLq0ZN+Wt5nUomVhr9dpWr3NcAKjTnzV460JXfythS40Dv6JDAnAbDCGQTnB5yFa48RoSIAESIIFbCWDdD68GrEuCih8CoJ0AZ2OZZKy1roI2EnZcAODZWBbz2nJ7YgWGgTdX1+WNp4/LnbOTxjtZG+/BS0mABEiABPqcANxqF4oHeyzsBSIMSqCr/4p2+aPrv90wnHJn9URXBt9PToy2+37meizG8q2LV+Tz6jNgOev4cMeR8sSbSIAESIAE/EFgS1ei9VrYLJTkmesLcklb/kep/PE+4wPuuFV2pQfg+NiIMexDhX6UgMofIuDs9Li8/sSMdn24o36OkjfeQwIkQAIk4E0CG5uO95If+UXhBReL+cxvbHXk0heLX42mfSQA4tGI3K0V9zOvXT8yPKwjcOHmolycW5JT2qNwz8kZGU6njpwebyQBEiABEggugY3NLU90/28Vy3JtbUOWsrmOKn67pI4NZwTLW7sRXOkBQEbvPj4t528sSK7D8RgIgdcWlk1EzwKEwPjggBssmCYJkAAJkIAPCVS0t3llfb2nOc+qQfvV1aystGngd1Cm45GIQAC4FVwTAJgJ8MDtp4yFv1OZv6ZTBhGxvPA9J2a5zLBTYJkOCZAACfiYwPLaulSPYFznxCtj2d5r2tWPrdPhtolhwQwAt4JrAgAZxtQ+DAW8cPWmo/mfW90QRPQEwEYAz2EgARIgARLoPwK5QkE2c7muvzim8l3TFj9a/m4EtPzHXBr7t/PrqgDAQ+47fUyW1dXhnI6JOB2WNF34EICR4G1qMHh2apx+BJyGzPRIgARIwKMESrq+zOJKe1POO3kVLNSzoEbqC2rYl9d9t8Kw1mmnxobcSn47XdcFQEi7L97z+nPy6IsX5IbOgXQjZHXqBwwOn9U4PTJkZg+gVwDDEAwkQAIkQALBI1BUK/u5xaWWnc4dlQBcCy+r2/p5rfjd6OZvzteIzvm/c2pM3Ov433mi6wIAj4Kv//eqCPjm+deMVf/O453dM84W1JkQHArFdCbC6YkxIwZoNOgsZ6ZGAiRAAr0kUCyV5OaiLqDTosfZo+QVXfvzGzlZ3My5LjLs/E0NpuWsNl5dHPa3H2W2XREAeBJ6At52xxlJx+Py7JUbuzLhxoeSds9gxUHEYR1HOTs9IWdUVSVjMTcexzRJgARIgAS6QKBQLMrcEir/9j3qHZa9ks4mQBc/5u7ntIehm+GEGrefHB3s5iOlawLAfqs3qE0A/P0/duGyYIpfN8KaGmt8+9Wr8uSla3JsdEhOTY7pdljgr4CBBEiABEjAHwTyaJWj8new7ihrL8LqVsG09Fdzea2XussCXf23TYzItLb+ux26LgDwgrfPTEgyHpOvvnixa10reC4EB9YoQESPxNRQRo5rd8vxsWF6GwQgBhIgARLwKIG1jaysanSi4QhjPljxr+jY/rrOIuh2pW8jxhS/O6dGXfP0Zz9nv21PBAAyg0r3/fffLY+dvyzzLswQ2O+F7eP4EmFmAiLWHxgZSGmeRnRK4bCMZehoyObELQmQAAn0koBl6b/asZe/rPrkh5MeVPxbHTqoc4LHUDIuZ7Xln4r1rBru/hBAI7ihVFK++w13qmHgonbRX9O1kbs75tKYl1U19EB8Tu0TUto7YYuB6eEhCasvZgYSIAESIIHuEljPbqqHv40jtfoxTLCeLxoLflT8RY8sEwy3vqd1ih8M/nodeic9Gt4cBnrHtPX9bW2JX1K3v70OcF9sGxBiBsOs2gugx2J6eJB+BnpdOHw+CZBA4AmUtYt+cWVV8mrw104o6n1rOi0cFf6qeuY76up77TyznWsnMik5o3VJTOsVLwRPCACASGo3yDvuus049MGwAOb2eyFgRcMriysmIj9wOjSlQgBiYEo9NcGgkYEESIAESKBzAhiLx4p+rbb6rQq/qC39gqxrhe+mc55O3i6pBufo7h/WOf5eCp4RADaUGXXk8/1ver08e/mGvHhtzlFrT/sZnWwhTBAxbIEAQWDEgE7hwBbDBwwkQAIkQALtEchu6TCsdveXD+iqRzf+eq5oWvno3seSu14OMDY/NjwgmOLnpk//ozLwnADAi8CD331njpvZAi9cnZOL84uuzPk8KrTG+2xBcKEuCAbRQ1AXA+gpoCBopMV9EiABEthNAH78V9ezAmO/5uC3Ct/OPyr7yUxajo1kBK1/rwZPCgAbFlrXbzl3Su49NWt6AzAujy55L4cN7R3YuFmQCzetHoJB7fKBEJjQhYswuwBOiaAKGUiABEignwls5XWcXit+ePVDwPR72F/BWh9e+NZ80MI3GW/4J6IG49P6Wz+rrX4s5ev14GkBYMNDK/r+207IPSdn5KXr8/Ly9YWezhiw89XKdkPHpRBtQQCjwtGBtFnJEC6Kx1QlQugwkAAJkEA/EMDqfejqX1dDPVT0doWPrZMOfrrJEpb9M0NWxY99vwRfCAAbZjwalTecOiZ3H58xVvqwEYBi9FNAD8aCql5EOyTUABK9A+M6LQSiYFz3cYyBBEiABIJAIK+/09eXVnUZ9zX1uqcVv372em9uK9zRykdrH61+tP79FnxZy6AV/brj03Ln7JSxD3jp2rwahuT9xn47vwU1ZLmhS1oi2mFAnURACFi9BFZPAd6bgQRIgAS8TAAV+7L601/WOfxo6GDZdr811A7jC+c9qPgxzu9F477D8m+f96UAsDMPBz3nZiZNXNQv2atqiPeaTtnDQkB+D5s6/oV4Wd/HDhgqgA3BcDolw+q5cES3cKZER0U2IW5JgAS6RQCL8aDhtarW+2vqRG0NW7Tu1Q4qiAHG6RMDSZnUntrBgEz/9rUAaPySwcgO8U1nT8pV7Wq6OLek3U3rxrCk8To/79szDrCWgR1gUIiZBxAEEAcQBRAIMD6ksaFNiVsSIIGjEoDbdNgxoYI3lb1W8qjwYfDshF/+o+arW/dh7v6UtvTHtPL3c2t/L16BEQD2y0GlndbV/hC31MDk1fkl7RlYMl9W+5ogbfEHCBWOeKXhxfBFHar3FmCdA7vngAaHDZC4SwIksIsAGhl2Sx6u0bEPYz2/Gufterk2PsAx3aR67UPFH+RVYwMnABrLGF767jk5ayLGotArAK9+pQMcTTTe7+d9/MHa6xu8trDzJhBIEAHoIcC2cX9AebHXYIcV90ggaATQYNiE5T2mK2ur3u5VtPcrujRuvwYY8Y1rYwmV/qDaYPVDCLQAaCzAyaGMID5w+0m5rl3oVzVi28sFiBrz1619/IFbCj93yyPRawARkKmLg0G1L7BFQkb/ICAeGEiABLxNAH/jWbUf2qncrXH5rFb4qPz7rTV/UGlhyt5oOmGW4x3VHtOgdfEf9O441zcCwAaBSuzkxKiJUMPoGYAYuKZ2A/iD6eeAHwbjyGgfDuhRMT0G6DmoiwQIBhxPqq8G/02C6efS5rv7lQAc5mBaHYY47dY8Knf87eI3DMcZ9icAz3yj2tIf04of9lP9/LvVdwKg8WuB7m546UN8kzoaQsv46pKKgeVVM3Wl8Vrui/lhwY/L/NrGLTjAEg6bIAiwhSgwsWGfIuEWbDxAArsINFbu+FvDuvVmq/uYSocKH9t+ML7bBabDDxn9PRrTFj5a+el4X1d7u0iSRAMOM71OLejhcRB/ZLC2R8/AnFZ4/Tw21oBo3138INk/VPtdZIuEZmGQpkjYDxmPB4jAQZW7XdGzcnemwNGVD+t9VPjo4veDW15n3ry9VCgA9uGFVuy5mQkT4djipk4phBCYW90wPQX73MbDBxBoVSQktIsuEYuZJaLhETGp+wlV7bDM3X08qha6/AofgJynXCYAGyKsSAdnXta2ZG2L+Fzadbyg/knYcnevQAYSMeM8bUQr/lQ03Hfj+Uchy1/PFqjBA9+J8RETcTn+2CEG0BWOLabJMDhDAD+Q+CFF3PF2sH/a6FWwRALEQV0smO1usYBzMXXbiSk9NGbcn2c/n0EvH9aXxywh/I3fUqmb72VjpV5mhd7DLwx6DifUKc+0LiF/fGxEUtrNj4B1BlY3dlyt9zCLnn80BcARigiVySk1JEREgEHOjiDI6vQaCoIjYD3SLUYwKH+UQasB3YMxFQIQBNiie9Bs9zi2fY32NGzv6/X0vtgq7e5cB690WDoWXkBRgaNlbu9ju/ucdV3jMVxD6/julNVRn5LSXkC4R59Rm63jEyNqY8RF1I7K0r6PAsAm0cEWxm228yEkg3E8Iwh0uADbfp9d0AFaV27FD73dwjvqA9CLYAsCTCXCHGIcM1F7jBo/W+d3H7Ou1XvMtdZ9t6Sj6UFowEoZPR1+ChBmGPNGxYyW9U6sSbnxsw6vVfa4Btfvug7XmGvttKx07Eoe1zMEiwCG/CZ0Tr5p4WsP7IBa7DM4S4ACwFmeJjXYD5xRT4SICDCOw4IYS7pABrYruu0HZ0Tm5QP6j12hYZy3W8EWAhAD0AOQBmaLz4372+fq5xvP6b5qCiMocC+C1tWmK1vrWK209T9U3tv71jnreH1/+9we19Urfitl/ksCrRGAYMaUvFE1wp5Qfy3To0PqrCzZ2s286sgEKACOjK71G+0pcfA/gKC/n7KhdgNLulrW8oaKAt2ubG6Z1pK5gP+QwB4E8L1B5Wxq5z3O8xAJ+IEAhuAwLW9EfetjtdPJoUEZ1Uqfbsa6X3oUAN1nrm0wMX764av/tqlxkwN0S2OBDYiBJRUFWEoTK2uZH/we5JGPJAESIIFOCeC3Lq3W+VikbFwN9lDZj+sYfsTufur0Aby/IwIUAB3hc+5mqOJRHe9CPDdjpYtuZrOutg4bYIuVuLDoD8ZVGUiABEjASwTwGwbLfKwzMqa/Y+jKn1ILfdi2MHiTAAWAN8vF5AqGYvYaBnY20SMAl5/oLejHpTltDtySAAn0hgBa9bbXzyE429FV88YyGRnV7nyIAAb/EKAA8E9ZmZzCAGxIjWMQT4plU4AT6BVA74ARBfVlPDGEwBkIPitgZpcEPEQAlvgYr8dwJbrxx7SSH9OpeJi9wuB/AhQA/i9D8waYLjaiC1wgyuTOS8GLob2+t70KIJb+hE9x2hfscOIeCfQrATTak+rnAsbKaNEPD+hQpEYY6ME/BkNwCVAABLdszZvBiyH+kBEbAyr/rIoAaxUx7SmwVxPTLXoN6BSlkRb3ScDfBNBziFXwMEY/oEt7Y8rdkLboh02jIe07PxP+Lg3v5J4CwDtl0dWc4AcBPwKIszK069kwMYTvAlscoMcAosDe0unKLlz8QAKeIIDxd3jLS8fjZlVOGONhLj0WORvUip6W954oJk9lggLAU8XhjczAjAfL+iJOy+AtmYKnQ0sM5M1QgrUKoC5bWtTlS1U4YNiBgQRIwFkCcJaT0K56jMvbS25ntDU/lE6bljz+XhlIoB0CFADt0OK1hgB+fBCnhjN7EoF7VksM1NcyN8JgZz9XKNET4p7keLBfCdiVO9YZSdUreCPCtYcug5a8tuJR+TOQgJME+I1ykibTMgRgODQc1fFF/dHaL+wnEnIqFsxqgNrLAH/9tEXYjyCP+4EAhtriaoeDVSixdLUtnmFwhwoelXtGu+lZufuhNIOXRwqA4JWpL96oFZGAF4FQyOvKbgUVBNZ6603rrjcs0UrB4Iui93UmUaHH1D9HTNebxyqSaLGjYk/q2HsyZvWMpXQMHt7vUrpaHSp+BhLwKgEKAK+WDPNlCEAoIMJYsZWA9dwLukDPjliwehIKetxeOQ5be913+xgNG1uhG5xrYDBnVl/U1jkqdMyWiWqFjtY6vm+o1K3u+JhW7hpRoWvFjn26ugnO96Df34QCoN+/AQF7f6urVQXD/qMPe74xhhpsMWAEQsPa8nt9xmqO9nFrmdqdZW85bLEn4o4PovWNihvW7PB7YSpxVNxokdcrcGztZZpRiVvRqtDj2lqHAV1CK3Hcy0AC/U6AAqDfvwF8f0MAFQJafIidBvhYaFzjfmdd+/qa9jVd096sbb8jGpqvKVcrZjYFPDxW9XqkCWGh/9e32LePYbHe+kqBZosVJ61rzRk9aZ+3tnhD6zz2rLrQXjq4vlSwOdGw5HB9SWHreiw+vHMdKmZTnWKrO/hktvoP/MWFtYKGkRtcWzdGtLrx2W6JY4tWOLzMxcKR7VY5jkUjSJOVNvgzkIBTBDr/tXMqJ0yHBAJCABUVKixUcAwkQAIk4FUC/IXyaskwXyRAAiRAAiTgIgEKABfhMmkSIAESIAES8CoBCgCvlgzzRQIkQAIkQAIuEqAAcBEukyYBEiABEiABrxKgAPBqyTBfJEACJEACJOAiAQoAF+EyaRIgARIgARLwKgEKAK+WDPNFAiRAAiRAAi4SoABwES6TJgESIAESIAGvEqAA8GrJMF8kQAIkQAIk4CIBCgAX4TJpEiABEiABEvAqAQoAr5YM80UCJEACJEACLhKgAHARLpMmARIgARIgAa8SoADwaskwXyRAAiRAAiTgIgEKABfhMmkSIAESIAES8CoBCgCvlgzzRQIkQAIkQAIuEqAAcBEukyYBEiABEiABrxKgAPBqyTBfJEACJEACJOAiAQoAF+EyaRIgARIgARLwKgEKAK+WDPNFAiRAAiRAAi4SoABwES6TJgESIAESIAGvEqAA8GrJMF8kQAIkQAIk4CIBCgAX4TJpEiABEiABEvAqAQoAr5YM80UCJEACJEACLhKgAHARLpMmARIgARIgAa8SoADwaskwXyRAAiRAAiTgIgEKABfhMmkSIAESIAES8CoBCgCvlgzzRQIkQAIkQAIuEoi6mDaTJgESIAESCAiBULUkkfyyRAoadVsLR6WSHJdKYkzjiEiI7Um/FTUFgN9KjPklARIggS4QCJXzklp4QlJz35DE4pNa8a/u/1St/MvpGclNvUVyM2+XwujdFAT70/LMGQoAzxQFM0ICJEACvSeQWH5OBi/+oSQXnpRQtdhahmpViW5el8FX/9jEanxIhcA7ZP3ch6WcmmotDV7VdQIUAF1HzgeSAAmQgPcIxDYuy/BLv6st/m92nLlwcV0GLv+FpK9+SbJnPmCEQDU22HG6TMBZAhQAzvJkaiRAAiTgKwKhSlFGnv8tyVz5goi25J0MsBsYvPhHMqBpr931Y5I9/X1OJs+0OiRAAdAhQN5OAiRAAn4lEMkvysTj/0TiaxdcfYVwaVNGn/335jkr9/5PxoDQ1Qcy8ZYIUAC0hIkXkQAJkECwCMRXXpSJJ/6pGvetdO3FBq58Xm0FrsrSm39RKvHhrj2XD9qbAOdt7M2FR0mABEggsAQSS8/K1Nd/qauVvw0zsfy8TH31FwR2Agy9JUAB0Fv+fDoJkAAJdJVANDcvE9/6Z2rhX+rqcxsfFt26aXofQrVK42Hud5kABUCXgfNxJEACJNArAqFKXsf8P+mJ1jemG44+8+97hYLPVQIUAPwakAAJkECfEBh7+t9KbP2SZ94WNgEZnS7I0BsCFAC94c6nkgAJkEBXCSTU6C99/StdfWYrDxt+6fckXN5q5VJe4zABzgJwGCiS28wXZWF906QcDoUkEglJJpmQwVRC8JmBBEiABLpNYPiFT3f7kS09D8aAgxf+s/oJ+DstXc+LnCNAAeAcS1nc2JTX5ldkPVfYM9WQVv6ZZFyGVAgMpZIylE5IOhHf81oeJAESIAGnCBh//isvOJWc4+nAhTA8BlYSo46nzQT3J0ABsD+bts5cX16Xl68vSO2Au2q1mmyoOEC8JtYUmGg4bHoGhtIqCFQYDKooSERZLAdg5CkSIIE2CQy98vtt3tHdy0OVgll/YPXun+zug/v8aaxpHPgCoPJ/SSv/o4RytSormzkT7fsTsajVS2CLAhUGERUKDCRAAiTQLgFM+4uvnW/3tq5fn7r5N0IB0F3sFAAd8q5qq/7V+eUOU9l9e6FUlgXEuh0BrAYwVJBJxWUgkTDDCAM6lJBUocBAAiRAAgcRSN38xkGnPXMuujWnMxReldLQbZ7JU9AzwhqkwxK+sbIhxbK7ziwwrLBZKJookt3OMXoFYFMAMTAAgVDfj0Ui29dwhwRIoL8JpOa+7hsAyCsFQPeKiwKgQ9ZzqxsdpnD02ys6fLC2lTexMZV4NGJEQUZ7C4w4MAIhxmGERkjcJ4E+IBAq5wUOd/wSUvNPyPodH/FLdn2fTwqADosQlbDXAnokilm1K9DYGFLx2HZvAfZT8aikEjEaHTZC4j4JBIhAVFf7c3qJXzfxRNRegaF7BCgAOmQNGwC/hFyxJIiLYvkosPMdCYckqYIgbUQBhEE9QhyonQE9F9ikuCUBfxEId3GlPyfIRIprlmAJ0ejZCZ6HpUEBcBihQ84HwTq/Uq0Z50VwYNQc4LgoiZ4CWyCoKLAFAowQ4duAgQRIwJsEIgVnDZRdf0ttUEUKq1JJjrn+KD5AhAKgw2/B1HDGzOvvMBnP3o4ejq1CycSlplyi8ocIQERPgR2tzxHzmQaJTdD4kQS6SCCSX+ni05x5VER7LSgAnGF5WCoUAIcROuT8zMigXJxbEh+NBBzyRq2fhmMje1hhv7vQg2ALA2wbxQEcHuEYjBYZSIAE3CDgnyHKnbf3Y553cu+nPQqADksLldfpiVG5tOA/pd3hq7d0O3oQ2hMJ2nOgwgBcY4g6pdHej+t+WO0VGEiABFoj4EfXun7Mc2ul4b2rKAAcKJPbpscEHv2uLqkBC0PbBFoRCXaisLmIRcMCMdAsEHaLBVwX4dRHGxy3bRFAG7RSqZq/6zK2GjHjp1ypGHffdm8WerS8bAdT9d1YekjXAxhpq6x48dEJUAAcnd2uO++YnTDd21dUBMCTH4M7BPAjXClWJS+tMcYQBISA6UWIhFUQRCSqWxNVTNjbSPMxfNbzXv5xd4dwMFKFIDcVeFMljuNWZV4xW1O5149tn6vf0woJfK/OTo/LzOigJ2fL+K01XYkPiYQ4JNjKd8+JaygAnKBYT+PkxIgcHx+W+dWszK9nzaqAJZe9BDqY/UAmhd4FCLKjijIMOUAI2EIB22YRAfEQUaGBayE40EuBrf0ZW+v87uOBBN7mS6F8YEui/5ttVdvX2/u6s7v1vbtFXq5albjVMrcqdrvi79YoMnxuvHht3vT+3Xdm1nP2LOXkhFaoOmwGqD4IlfSUD3IZnCxSADhclvjhR2sAESGv8+6xPPD6lsZcXjbyBanqtDsGfxBAWRW1onHD3TP8L1hCYUcY7CUU8PsdQvvS+t/s45g5Wj+GH3kc2n3cOmkdx7/WeetK7OOYVeHuqojNsZrga2pVzg37TRW0XVlrKruux3GT5gHX+6ROMtwO+yerf9fPXbkp33HmWJ3rYXd053wtmpLC6Ot94w0wP/mm7oDhUwwBCgCXvwhwsIOI6YII+EHN6nx7IwogCFQYbKmff0oClwvCg8nD/4IZUdYuZwb/E1jdzMuFm8tybnbcUy+Tm36bbwRAbvrtnmIX9MxQAHS5hNHqGtTlfRGPi453aUC35YbpJcgbYQBRUCi3Nsbd5ezzcSRAAgcQuL6yLrfPjHmqFyA38/b/v70rjZHjuM7VPfex98H7kkTxWJE0ybUl64i8lGQ5UhTbiaMECAzHyQ/DCBD/sGMjRg7F/mEFhgMECRIZ8RHAhyRashwHoi0nFqFYPEVR4qlIPMSb3Htm557pI9/rmV7tjpa7MzvdPT0zr6Rm9VFdVf3VbL+vX716T3S+9b15eu2OS2qoT+Q7bnVHZ1qkF0wAXDDQNMfcFQkZm9kdmrMmLQGpFslDH2kNaDqBNQUmQpwzAu5DgOwRYgjQRX/PbklKeCki7N2CULvn3dKlOfuRXvrhOc/zSfsQYAJgH7Y11UzLjPpoa49M10Pz0UZYYCIEFB4Y5ICIgR3z09ON8g4jwAhUhQAF4XITAaDOx9c/Lnpff7Kq53CysC77ReKWTzjZJLcFBJgANNDPgKzJzemDmd0uYG2yqSWYJgggBvQ1wokRYAScRaBoiOlsmwu1lll6t8h33i78sXcWKlqX68l1vwP3v1ixwMlRBJgAOAq3PY2RA5xOqBxpm5myeQWaguIUAhGDDPn0xzQCLa3ixAgwAvYgQM6B3Jhimz4r+g/8leu6pvmiYurWP3Bdv1qhQ+78pbYC8g48I0Xxo6237b1pBGq2AAJguOcFITDd9Jo5Tyc4MDDcRFMjQKt+3Jhy3QOCNAGhG/td1b347X8sNN/sd5SrOtjEnWEC0MSDe7NH88FxjQ+rENqxlSeaNjDJQDqnTO/TucU60ylvg48ZgWZFgKbo3Db/PxPriW1/IfqTl4UPmxtSauUukVz7qBu60pJ9sJwAjMbSbX0d4ZYEsxkemrzYRYMBYyt/HjJCzBSgNShpDrIlD3tEDGifvB7yKoVy1Pi4lRC4bam7fACUY695w2Js8K/Fkn1fFHIhWX7Z0eN810YxueXPHW2zkRuDnZflgtVyAjCSiPczAWjkn9nN+05GiJGA39jmKkVOjnIgAUQITFJg7hdz8qinMEmYCzw+1/AIrO3rep8djhsfSoksE+M7viJ6Dz8hJF2tSxeVUL8Y2/lVocvunC6pCygLNJrI5i2PkmQ5AcBa9SjNI1OQDE6thQA5OSIDqPmMoMpJwmyiUCQItKqBvORxYgQaAQHSmm1c0Tft7bMR+pzt3SZG7/ya6D36pJDzCUe7nO+4zdBCcNS/ymEnZ3H4eJpt5V357TctaTkBIO/j1yfjYk1f900b5Quti0AlJIHQIQJAUwp5kAHKZ+4TwSSSYOSlMhxfoXV/U/V4corhQKtuetrCohe+OuYjvfXoXyVt5nq2iOF7viV6X/u6YzYB6eX3iYmtXxC6x19JF7lMCYEYvMN6fJ5iQA8LUbGcAFDfLo1NMgGwcJBasSoKlOOhVQwVuqog48UiSSjlZaThvbCviCAHcqGCQFBOGglOrYcAfbXPjPA4c98IDT19fXb4aPMa5Za/jeswDOQlcOSeb4qu4/8iwtdfta0HJPCn1v8Rlvt9yrY2mrni8VRG9HcW48lY+Zy2EIDr8IedhbFY0MfzO1YOFtd1cwTohe7xyyAM1SUjIA/IQ5EgUHhZkINSmFmTNBhx5afLlOLMzzhm7UN1mNdaei7hPdc5crFdFNjvF+LNILxrxdG8nwwDx3d8WSRiH0fMgP+wNnAQNCWplQ8IWuqnBt1tIGni4baclm3H4Ba+YQgAfY2duHhdfPC21W7DkvvDCMxCwNA0yJ6SzcriCSuFviUioOqakRf36RyOS9coJ8Khlcqo5vnSufcdlzQUpKNAURhPGv8YefG4eKF43bhqFLxZ+VkPfpMDUm3TNA3+N3L6zjX36TwUM6XrpX3jerHM3PfOd62sLqPd2fXS+Hjh6IqEOX2lk6Cn/nCyHoF85wYx8uFviNDwYdF2/gURmHwLv6fFOQ3TPUGR6d9pfPUX2tZY39kWqvHyZMJ4h9jxyLZoAKij54bHxO3L+0RH2HK7BTtw4DoZgZoQIOEnY4rOK+Sa6rHzZiIGxCRmEgaSpYbALwl6O9vnuhsDgcySDwna5PyUCI0cASE4JAJjx4SspOd9ADXUKzJ9g8a9ud6tsPDnef55AavgYhreXEcSqQpKLq6IbQSA5lYPnbkoHty6AV8NTNkXNzx8FyNgHQLGXyF9ZVOV/DdpHbBNWpPmb4f6fpex0SMSAfBkx7FNCE9uQuiS11Drq8Fu5N0s8C3+HZAMPTcWMwi7xVVPV2cbAaAWxsFcjp6/LAZv5amAacR5hxFgBBiBBkSAbAW0aFgUoqsasPeN1+ULE1NG1Fc7e267vvLM9VFxfnjczmfguhkBRoARYAQYgaZBYDSZFjem7FP9m0DZTgCoocNnLggiApwYAUaAEWAEGAFG4OYIkOA/Oxq7eQELrzhCAMjo6Mi5S+LYhasWdp2rYgQYAUaAEWAEmgeBS1hC/+543LEHcoQAmE9z+soNcfCdC+x8xQSEc0aAEWAEGIGWR4CW9dJX/9WYswGabDUCnGtU3x0ZN5wE3bvxVmNd71xl+BwjwAgwAowAI9AKCJBvkHdGJgxnP04/r+UaAF1IhYUegjwF/vrE2wYRWKgsX2cEGAFGgBFgBJoRAfLyd+rGWGXCX5MUqzGwnABIHvF2JZ2cgJXjnqOnBWkEODECjAAjwAgwAlYgQB43GyGRpf+bV0dEKrfgN7PxOH6vXJFsrebZLZ8CkL3qkUo7QKFgySbgXSwTJLfBbaFqPblX2hKXYwQYAUaAEWgFBCh2h5tTFnLv/FhcxLO5qroJV9j/XdUNFRS2XAPwye3bY+GAvypVxXA8Ifa8cVqcvHTd8KNeQb+5CCPACDACjAAj8D4EFLUq8fO+++06QZqJK7GEOHZ1tGrhH/B6xMM7Np+zum+WEwDqYFc0dKzajlLwlBOXrolfgAiMgBBwYgQYAUaAEWAEqkGAgm/l85Wp1Kupt9ayU/jaPw7Bv9jAPj3R0BRidlg+t2ELAQj7/U8tFrCpTBYGgu8gjsAFQVMEnBgBRoARYAQYgUoQyEDQWi4lK2n4JmXIyI+W9526Pi4yNcizjlDohZs0UdNpW6L0IIiB9K8v7UvE09lILb2j0J+3Le0Vm1YuFSH/4kO11tIHvpcRYAQYAUagMRC4MYpl5vl83TubV1VxDWv6hxPpmkP5RgM+sbm3v/fBOzdZbjFviwaAVBVLOtu/UusoqFDnvH1tRPz8tRPi8NmLIlGl0USt7fP9jAAjwAgwAo2BQDKdqbvwJwM/iuB39PKIuA6XvlasSFjd3fFLO4Q/jaotGgDz5/Lv/3PwyuhUcoV5XGtOcctX93aJzdAIdEZCtVbH9zMCjAAjwAg0AQI09391eFTQR2M9Uhp2B+TFbzyVsXQKojsS1O5Y09t578aNthjGWb4McCb4PW3BXcls7nQmX/DMPL/YfYqPfHF0wthWdHcYRKC3PbrY6vg+RoARYAQYgSZAYAKG4/UQ/olsXlyNJ8VkOms5in5Y/q/t6fqyXcKfOmyrBoAa2H3g+J+cvzH6fStUIVRfeervaBMbV/SL5V0dgjQEnBgBRoARYARaBwGa86e5f6cS+RmKwVj9GgT/FAiAHYlk2eYlPS9//O4PPGBH/WadjkjMZ149+tS7o5Ofoy94u1LQ5xNr+7vFLUt6REeYpwfswpnrZQQYAUbALQgoMLYj4U+53SmdVwR576ONrPvtSiSUb+nrHJG6Q6seHxiwh2GUOu8IAaC2ntn/5t9fHJn4WyfUNN3RiEEE1vR1C1KjcGIEGAFGgBFoLgQUBcJ/zF7hr8CmYDyZESMQ+skKXfbWgrKML//1/V2XIp2B7R8bGJiopa5K7nWMAFBnfnLw+GdBAr6TVxRbVh+UPzAtI1zZ02mQAaxKsH++o7wDfMwIMAKMACNgOQIFRYHwnxCqTV/+8UzOEPoTqawllvyVAABXv2JDX8+R9lz7fUND66w3KpijE44SAGr/pwdPPHRpfPLFdC7v6MJ+uCcW6/p7DDIQDQbmgIJPMQKMACPACLgdgXyhIIZJ+Fts8U9L+EZLX/t5aBecTOTqd+Oynp+9Nrjl95+QJPvmF8oeynECQO3//PCpgcsTk4fhKChc1h9HDrujYbGiu1Os6OkQXZG6dMGR5+RGGAFGgBFoJgRyWG43PD6BmDHWyMgU6iML/glslUblsxrPCBz9bOjr/tbHPrTlS1bXvVB9dSEA1Kmf7jvWP57NHB2NW+cnYKGHnes6aQZWlsgArSigORhOjAAjwAgwAu5CIJFKi4n4lKjFmJzuJct9Evgk+HMOf+mXI9oTCerrers+/9GdA98uv+bEcd2l3bMH3nzy6nj8S1mLfAXUAprP4xHLutqhGeg0lhWyAWEtaPK9jAAjwAjUjgBZ+I9NxkU2V134XLNlMuSLpXOG0KfleyoCz9U7+SFr1vR2DPcEQ4/u2rnp9Xr1p+4EgB78P4/+3/LYVHLPtYnYtvoPTXEoaB1mH5wMrYTDISIEbDdQr58ot8sIMAKtikAyja/+2FTVhng0n19U7edEAsTBxhXoVQ/N0vaItqor+vXJc3d8/fHHJWeNDcp66woCYPbpuQPHPnM9lvi3RCbruoX87aGgWNLZJpZgmoCmCgI+W50ompBwzggwAoxAyyGgYp39WCwmKLpfJUlB+TjKknqfLPhribxXSXuLKRNGQLt1vR3Hon7/xx/YsfniYuqw+h5XEQB6uD17zgTGI1M/uTYZf8xqK08rwaNYBEQEioQgCn8DTAisxJfrYgQYgdZEgIL60Fz/fIZ+pNY3hT3l5IvfrYnsylZ2tWWXd7T92a7tm37spn66jgCY4Ozed/zD8Uz6WQQTWmWec3NOqwn6DQ1BFFMHbeyAyM2DxX1jBBgB1yGQzmZFbCoh8lDflycS+OR3P45tCl/4ZL3fCAnBfMTqro4XfHL4sw8N3hp3W59dSwBMoJ7b/+bDUOn888hUcn0t1p9mfU7kBGoXlhoaGgKQArIlIANDTowAI8AIMAKzESA1fyyRELTEz0xkqDdlqvSR12uJntmfanJaSNYLDTG++F8J+eQv7Npxx7Fq7neyrOsJgAnG8weP3QXm99RIPLnNzVMDZn9n5mRQSDYEPW1hbBFBroppCoGXHM5EifcZAUaglRDI5vLGF38GRnrkZz+JoD7kbjeJ8xkcu8UgvNIxofd5XzSsL+uM/FfE6/3S/ds3n6n03nqVaxgCYAL0zIETm3K57HeH44m7YPjRcP03n0OWJcMJETklMklBezjI7opNgDhnBBiBpkOAhPoYQvdeHZsUk1jXTwKf5u/tihbrBIAevMuXtEU0WPf/KODXvjq0bdsVJ9q1oo2GFaBPHz6xSsnkQASSDzgVW8AKwOerg6YJaOqANAWkJejBFgn657uFrzECjAAj4FoEUpizH0+mjG0M4XMnUxnLXfjW6+G9iDWzrCNS6G8LP+UX/q8NDW4Yq1dfFttuwxIA84F/euitnkw+84+xVOaT8XSmzTzfLDktNyQyQJoCmjagUMftoYCgaQVOjAAjwAi4AQHDwx6M8/AOFngXiwlEz5uA4M/NYdDnhv7W0ocovMf2tYUzfdHQN/N5/7ceuWv9VC311fPeppIiZDAI69C/G0ukPoQfXtNa3dFcE00XEBkwSUEn9llbUM8/JW6bEWgNBOirPgZBbwp7yqfgVreR1fgLjZwPkfpofr83Gv5N1Od5cuTs5l/V24nPQn2u5HpTEQDzgZ/Yu9e7wdf95WQ2/bnxRHp1M/8wzWemnMJJGqQAZKAD2gIiBR1YhhL0ORp4cWaXeJ8RYAQaFIEsou7FEQ7XEPb4qjeFPjndaYVEWtZufGhB8F/tCPn/we9Vf3jf1q2TzfTsTUkAZg7Q8/uOrslo4huxVPoxsNTozGutsk/TCO9pC4KiLRgUUUwjUCCkpv8BtMog83MyAotAgIzyEJpdJKG+T2AdPiK0Gip8+qpvRvV9JRBRdL7+aDjbHQn9wOeV/mnXBwZOVXJfI5Zpqff/7n1vPJpSlL+JJdI7M/lCy7vuo6mESDAAQhAwCIGRl/Yp9gEvU2zEP2nuMyMwGwHSgCaxlp6EPOWJ0j7lKWytoiGdjcrsIwr81hMJ6fjaPwAC8A0xeeOXQ0ND7/dINPu2hj9qKQIwc7R27zv2qaxS+DwY712IPRCeeY33haEZIA0BaQqIDJjkoA3+DOiYphs4MQKMgDsQILW8IdwR7W5ayJcEPX3hN9qaeidQjcA3f1c4qGF7IxrwPaXmpRcevHPTuBNtu6WNliUAMwfguVdPDOb0whcTmcyDsVS2lxnxTHTm3ie7AiIHEZAEIgoU6MLIS/tBHHNiBBgBaxBAuHRjvTwJc2OjY+ynSup7mq/nND8ChkM2LKuGwM91hYK/Cvo830uq6V89NjiYnv/O5r3KBKBsbJ8/cmRZPuv5y1Q+/4nJRHptQVUZozKMKjmk6YMQ5tLC/hJBmGOfSUIlSHKZZkegKONdUOsAAAksSURBVNxJsBeFehoe8WbuZ3CeP0oW9yvwYK1+Fz5UIPQn2yPBZ/yy+PEr2zbvf0KSWsOScQHYWLjNA9D39+4NhoNdn09lC5+Op9J3wG6AP2vnwavaS3ORhBAIQxBGi6RhIONF2qec/R5Uiy6XrycCtC6ejOgoLn0xLxj7GRbutg9LAPP5EPi0XWgPBL4jeeXndm3b+LbtDTdgA0wAqhg0ilCo6Mqfgp0PTWWya8DcW96QsAr4aipK4ZZNMlDMfcVjfzlZAHHAC4AJQ01w881lCBgCXVEhzIuC3BTqOfisLwr5mecVAe+kZTXwoV0I+OFBtT3kF+3BQLIj6H8VHw/P5uX8noe3bRuxq81mqZcJQA0juXv/8fsVVf1MupD/SDyVWY2XQtM6H6oBJsdvpR+1v6Q5MDUJARAIH4gBuVsmi99Z++Y55F4iD473mBt0AgEyhFMgxDGtBwE9Oy/g2DxH+zkI8Gkhj694ClHLhnROjNLCbZBTng4YIsMjaqot6N8f9nqfVb3evQ9uvf38wndziZkI8LtuJho17u8+eOKhQqHwaRjn/BZ8DqzCS4RN5WvEtB63E0kggmAQBXO/lJdfozI0zzh7k4QHLynyFS5j4z+yxY0iCVwNceApFrwKK3cKEUuRQGduptA28pJQN4Q5hDzl08K+tL+4nvBd9USABD6+7rH501iBdDDq9z6tqereBwa3nKtnv5qhbX432TSKUBlKu/ed+G1MGRAhuAdrbpfxlIFNYLu8Wor8SGTgPZIAgjDrmK6hDF50s89Lhi8Gms4wNjxncZ+WaZbO4S949jW6UjyHKkvXqKy5X8qpzhJuJGhJxW1s0/s4R//hPORu2TW6Yt5jXqOy5r55je4loT1bcNOStfJzRaH+XjkS+ho1zKnlECCVfjToI6GfaQsFDmG53tOSqr08tHPgbMuBYfMDm+8Am5vh6gmBZw68vknX5D8sKNpHMrn8ZpCCnmaJZMgjzAgwAoxAtQgQMcYafCwn9mkIsnMtHPC9EpI9L4GfHrx/++Yz1dbH5atDgAlAdXhZXvon+9+4W9Wl38sohXuz2cLtcErUia8fHhfLkeYKGQFGoJ4I0KqforCHg7GAbwx+Qw5FPJ4XNV063K6njg8ODrIzA4cHiAWNw4Av1BwFMtrs73xYFeJ3YV18F1x13gIXnlFeB7wQcnydEWAE3IIATUuFsUInimW9EPbJcCDwZtgnv4hJrQNSQHt9aGAg6Za+tnI/mAA0wOh/+8iRcFfB+xjmTodyqvqBfF65BR7AumFTwKsOGmD8uIuMQDMjQHP2JOxD5A3U503CAdgZWOb/ArYv+wty4TVejufe0WcC4N6xWbBnu/e/uULX5UcUod2nFJStcDKyOpnNd7BdwYLQcQFGgBGoEgEyUg3DQRcJe7j+zmCJ7QUI/P0+j3RQaOKkLyKfunfjxkSV1XLxOiLABKCO4NvV9O7Xjm2QFekREIG7s4o6kM3nV6ay+Si7NbYLca6XEWgeBGhFiino8VWfD/l8V0J++VDA492HxU0ntYI42WpBc5pndGc/CROA2Xg09dHPjpy6s1BQH1I0dSscm6zPKepyTCN0Ypmin20Mmnro+eEYgVkI0Bx9ED4sDLfbxTwPl9sjIZ/3jZDPs1cV0ilVk05+dMfGa7Nu5IOmQoAJQFMN5+IeZi8MDyfDPR9Udf0eLFHcBgcqt0N7sBIRxrrh9jhIa7Q5MQKMQGMhQFb3iHgHQV90ow1hn4Wb7Bv4on8L8/YHJaG/I4R8VkiZs0Pbt8ca6+m4t1YgwATAChSbuA5yaPT8oZNbdFW7t6Cr27FEcSO0B6uyeaUXUcvCMEzk31ATjz8/mrsRIHX9ewLegzgY3hQE/VV83Z+Eyv41uFLCWnr1rBSQzrHlvbvHsh6945d3PVBvojaffvXoctnj2SlUcYeqa+sVXV0HDcKygqL05BStLZcv+NmvQRMNOD+KYwjQFzwFtiJ302RpX9pP43gC7nEvQ8Cf9nrl03CZeBY6urOeePj80NC6rGMd5IYaHgEmAA0/hO5/gB/875FlAY9nB1YsbDVIgqauhUHiciYJ7h877qE9CMwh3HUI9jQE/RjiUFwKeKXT2H8b/pWvCF2+IvmUK9rY2PWhoSEOM2jPkLRkrUwAWnLY3ffQu/ceXooQfjuhshyAC/jVCAKzApqDfmw9mqp15FU1AvuEIAIseWGTwL9b9w1hy/eIhDoFriluiCwJN7el4zyCSKWwjG7S+HKXPSf9HultBHqAcNeuyKp85eWdm4afkCQ2tmn5X5GzAPCL1Fm8uTULEPjhnoPt3o7ABkmSb4N94jpN6Kt0TV2uaioIg94Nu4QOaBhAGNQgosR5mDBYAHoLVmEKdFr/7jOEOYWTNoR6AedSXtkTx/Gw1ytd9UryGb8kXdFlaUST9FHEgBxRZXV04q07xh5/XIJjT06MgPsQYALgvjHhHlmMwI9+85su2dO21qPryzVZXqarol8SWh9WPfRg69I1vVPTtTZEqItqmhpGsLogNA8BRVV9iqp7FFWROS6dxYPiQHXFCIzFyIteGMsVIy2WjvG1jpDNikeS8hDmGVmSUzCoi2ObQNlRnyRd9Hg8lyVdGkGcw1FVl0f8ujaqJoZHWQ3vwOBxE44gwATAEZi5kUZGgFZCfPelA13hzraVXk1brkvaEng+W4Kpij5Eu+2BBiKKudowfCmEcBxG+SA0EwEEww3gHG0+Y9OM3AOy4UGoW2gmdEQ51eRWXWZJX9jGBuE8vW+cw+K0m15DWVnScF3FVvBIchYf5SlZluMQ+BM4NwrPdNch1IcR+DgmaXoc4xPXaV9ocUnyxL2eQvzXW7bEWeXeyH+V3HcrEGACYAWKXAcjUCMCu/eeivojWhc4QTcEV4+kayvwx7lESKITX6DtuqZF0URE6NgkHSTDIBphnAthC+I4IITuhaZCFqiEcmMDecF12i/mOKZ9IjU4P53gGIZO6JTjpLEvMCdN53AMgUu5cawZ53GMayoM1DRJ1iFjdRX3Fq/hPOQ31N4yNj2Pr+w0hHYSWvSER8hx1DUJMT4lS3oGDWbQ32IuiaysadiXM6g2oymejI9yuZBRs/5MxpPKvL5zZ5YF9/Sw8Q4jUBMC/w8+Lhush7oqIgAAAABJRU5ErkJggg==;fontSize=13;fontStyle=1;fontFamily=Verdana;shadow=1;textShadow=1;" parent="1" vertex="1">
          <mxGeometry x="1400" y="-820" width="170" height="170" as="geometry" />
        </mxCell>
        <mxCell id="C_XI61WrGr2y75dWy_v_-46" value="&lt;div style=&quot;&quot;&gt;&lt;span style=&quot;background-color: transparent; color: light-dark(rgb(0, 0, 0), rgb(255, 255, 255));&quot;&gt;{&lt;/span&gt;&lt;/div&gt;&lt;div style=&quot;&quot;&gt;&lt;span style=&quot;background-color: transparent; color: light-dark(rgb(0, 0, 0), rgb(255, 255, 255));&quot;&gt;&lt;span style=&quot;white-space: pre;&quot;&gt;&#x9;&lt;/span&gt;&quot;Regions&quot;: {&lt;/span&gt;&lt;/div&gt;&lt;div style=&quot;&quot;&gt;&lt;span style=&quot;background-color: transparent; color: light-dark(rgb(0, 0, 0), rgb(255, 255, 255)); white-space: pre;&quot;&gt;&#x9;&lt;span style=&quot;white-space: pre;&quot;&gt;&#x9;&lt;/span&gt;&lt;/span&gt;&lt;span style=&quot;background-color: transparent; color: light-dark(rgb(0, 0, 0), rgb(255, 255, 255));&quot;&gt;&quot;RegionId1&quot; : &quot;Unique identifier for each region/cell&quot;,&lt;/span&gt;&lt;/div&gt;&lt;div style=&quot;&quot;&gt;&lt;span style=&quot;background-color: transparent; color: light-dark(rgb(0, 0, 0), rgb(255, 255, 255));&quot;&gt;&lt;span style=&quot;white-space: pre;&quot;&gt;&#x9;&lt;/span&gt;&lt;span style=&quot;white-space: pre;&quot;&gt;&#x9;&lt;/span&gt;&lt;/span&gt;&lt;span style=&quot;background-color: transparent; color: light-dark(rgb(0, 0, 0), rgb(255, 255, 255));&quot;&gt;&quot;Locations1&quot;: {&lt;/span&gt;&lt;/div&gt;&lt;div style=&quot;&quot;&gt;&lt;span style=&quot;background-color: transparent; color: light-dark(rgb(0, 0, 0), rgb(255, 255, 255));&quot;&gt;&lt;span style=&quot;white-space: pre;&quot;&gt;&#x9;&lt;/span&gt;&lt;span style=&quot;white-space: pre;&quot;&gt;&#x9;&lt;/span&gt;&lt;span style=&quot;white-space: pre;&quot;&gt;&#x9;&lt;/span&gt;Driver1:{&lt;/span&gt;&lt;/div&gt;&lt;div style=&quot;&quot;&gt;&lt;span style=&quot;background-color: transparent; color: light-dark(rgb(0, 0, 0), rgb(255, 255, 255));&quot;&gt;&lt;span style=&quot;white-space: pre;&quot;&gt;&#x9;&lt;/span&gt;&lt;span style=&quot;white-space: pre;&quot;&gt;&#x9;&lt;/span&gt;&lt;span style=&quot;white-space: pre;&quot;&gt;&#x9;&lt;/span&gt;&lt;span style=&quot;white-space: pre;&quot;&gt;&#x9;&lt;/span&gt;&quot;DriverName&quot;:&quot;Name of the Cab Driver&quot;,&lt;/span&gt;&lt;/div&gt;&lt;div style=&quot;&quot;&gt;&lt;span style=&quot;background-color: transparent; color: light-dark(rgb(0, 0, 0), rgb(255, 255, 255));&quot;&gt;&lt;span style=&quot;white-space: pre;&quot;&gt;&#x9;&lt;/span&gt;&lt;span style=&quot;white-space: pre;&quot;&gt;&#x9;&lt;/span&gt;&lt;span style=&quot;white-space: pre;&quot;&gt;&#x9;&lt;/span&gt;&lt;span style=&quot;white-space: pre;&quot;&gt;&#x9;&lt;/span&gt;&quot;DriverLocation&quot;:&quot;Driver location details&quot;&lt;/span&gt;&lt;/div&gt;&lt;div style=&quot;&quot;&gt;&lt;span style=&quot;background-color: transparent; color: light-dark(rgb(0, 0, 0), rgb(255, 255, 255));&quot;&gt;&lt;span style=&quot;white-space: pre;&quot;&gt;&#x9;&lt;/span&gt;&lt;span style=&quot;white-space: pre;&quot;&gt;&#x9;&lt;/span&gt;&lt;span style=&quot;white-space: pre;&quot;&gt;&#x9;&lt;/span&gt;}&lt;/span&gt;&lt;/div&gt;&lt;div style=&quot;&quot;&gt;&lt;span style=&quot;background-color: transparent; color: light-dark(rgb(0, 0, 0), rgb(255, 255, 255));&quot;&gt;&lt;span style=&quot;white-space: pre;&quot;&gt;&#x9;&lt;/span&gt;&lt;span style=&quot;white-space: pre;&quot;&gt;&#x9;&lt;/span&gt;&lt;span style=&quot;white-space: pre;&quot;&gt;&#x9;&lt;/span&gt;...&lt;br&gt;&lt;/span&gt;&lt;/div&gt;&lt;div style=&quot;&quot;&gt;&lt;span style=&quot;background-color: transparent; color: light-dark(rgb(0, 0, 0), rgb(255, 255, 255));&quot;&gt;&lt;span style=&quot;white-space: pre;&quot;&gt;&#x9;&lt;/span&gt;&lt;span style=&quot;white-space: pre;&quot;&gt;&#x9;&lt;/span&gt;&lt;span style=&quot;white-space: pre;&quot;&gt;&#x9;&lt;/span&gt;...&lt;br&gt;&lt;/span&gt;&lt;/div&gt;&lt;div style=&quot;&quot;&gt;&lt;span style=&quot;background-color: transparent; color: light-dark(rgb(0, 0, 0), rgb(255, 255, 255));&quot;&gt;&lt;span style=&quot;white-space: pre;&quot;&gt;&#x9;&lt;/span&gt;&lt;span style=&quot;white-space: pre;&quot;&gt;&#x9;&lt;/span&gt;}&lt;/span&gt;&lt;/div&gt;&lt;div style=&quot;&quot;&gt;&lt;span style=&quot;white-space: pre;&quot;&gt;&#x9;&lt;/span&gt;&lt;span style=&quot;white-space: pre;&quot;&gt;&#x9;&lt;/span&gt;...&lt;br&gt;&lt;/div&gt;&lt;div style=&quot;&quot;&gt;&lt;span style=&quot;white-space: pre;&quot;&gt;&#x9;&lt;/span&gt;&lt;span style=&quot;white-space: pre;&quot;&gt;&#x9;&lt;/span&gt;...&lt;/div&gt;&lt;div style=&quot;&quot;&gt;&lt;span style=&quot;background-color: transparent; color: light-dark(rgb(0, 0, 0), rgb(255, 255, 255));&quot;&gt;&lt;span style=&quot;white-space: pre;&quot;&gt;&#x9;&lt;/span&gt;}&lt;/span&gt;&lt;/div&gt;&lt;div style=&quot;&quot;&gt;&lt;span style=&quot;background-color: transparent; color: light-dark(rgb(0, 0, 0), rgb(255, 255, 255));&quot;&gt;&lt;span style=&quot;white-space: pre;&quot;&gt;&#x9;&lt;/span&gt;&quot;UserId&quot; : &quot;Identifier for the user who created these regions&quot;,&lt;/span&gt;&lt;/div&gt;&lt;div style=&quot;&quot;&gt;&lt;span style=&quot;background-color: transparent; color: light-dark(rgb(0, 0, 0), rgb(255, 255, 255));&quot;&gt;&lt;span style=&quot;white-space: pre;&quot;&gt;&#x9;&lt;/span&gt;&quot;CreatedAt&quot; : &quot;Timestamp when the regions were created&quot;&lt;/span&gt;&lt;/div&gt;&lt;div style=&quot;&quot;&gt;&lt;span style=&quot;background-color: transparent; color: light-dark(rgb(0, 0, 0), rgb(255, 255, 255));&quot;&gt;}&lt;/span&gt;&lt;/div&gt;" style="rounded=1;whiteSpace=wrap;html=1;align=left;fillColor=#fad7ac;strokeColor=#b46504;shadow=1;textShadow=1;spacingLeft=11;fontFamily=Verdana;" parent="1" vertex="1">
          <mxGeometry x="1793" y="-885" width="437" height="305" as="geometry" />
        </mxCell>
        <mxCell id="C_XI61WrGr2y75dWy_v_-51" value="" style="shape=image;verticalLabelPosition=bottom;labelBackgroundColor=default;verticalAlign=top;aspect=fixed;imageAspect=0;image=data:image/png,iVBORw0KGgoAAAANSUhEUgAAAgAAAAIACAYAAAD0eNT6AAAAAXNSR0IArs4c6QAAAERlWElmTU0AKgAAAAgAAYdpAAQAAAABAAAAGgAAAAAAA6ABAAMAAAABAAEAAKACAAQAAAABAAACAKADAAQAAAABAAACAAAAAAAL+LWFAABAAElEQVR4Aey9CZxcxXX/W7e3menZV+37hiRASKNBCAwIAVrAxltkx4AETt7j848TZ30viRPnPf75xM7qbHacPBLbIDBe5CVmk9gVMAhtgMDatxlppJFm36ent/vOaanFSJre6lbdvt39q49G3X2XWr7VfevUqVPnGAIJBHKEQOMnHvF7jIHy0Ki73OVylRuGUR4RZoUratB7UR4V0dgxERXlhhAVJh2jpsWOmaZJ780KIYzYMTruoWsGTPqj9/zXf+HVHDAN14BhmrHjdL7fZdJ1LjpOx1ymO/Ya9ZgDRYbRH41EBnaumDcoHn00SvcjgQAIgEDOEKBnIBIIOIfALff9RnkoHFpgmq4FNGAviJpigXCJBYYp5lEt/c6p6WU1ocHfbCbh4jD/mUb0sDCMw9Gg5/B7L3/37GVX4gMIgAAIOIQABACHdEQhVWPDhg3uE4P+mYYZpUGeBnqXuUCY9CcM+hOT8ozFIP3ISDDgPzMmIAjDdXg0HDn6wUtPDuVZW9EcEACBHCIAASCHOivXqhqbzQfD15o0kxcu48JsngZ5Q5hzqS2+XGuP4vrS6oJoFQYJBlHWGlwQDjwifGDn1u+3Ki4L2YEACIDAVQQgAFyFBAdkCazcsKEkPOC/mQaz1fTFWk0j3HLKyyObX8HeZ4iTpA15jQSn10Qk+vreF59qK1gWaDgIgIA2AhAAtKHN/4wbGx/xivrAChcN+KYwVlOLb6K/ovxvue0tPChM4zVDRF/zmL7tO178TrftNUCBIAACeUcAAkDedam+BvHafctQ8VIyzKMZvsEz/I9RaaX6SkTO4xAg7GKfMMVrJgkFxUXuN9565ru8YwEJBEAABDIiAAEgI1wFd7HReM/D17pEdLVJgz61/jb6qyo4Cs5ucJh+xHtIKnjNiIrXPRUjb+3YsmXE2VVG7UAABJxAAAKAE3rBQXVovOuRSsMb+CwN+Gtpb/0dVLV6B1UPVUlNYJQueYcEgldpl8WP92x7incgIIEACIDAVQQgAFyFpPAOrFq1ytPvn76OZpAbadC/jwgUFx6FPG2xIXbRcsGTpif0w73P/qAzT1uJZoEACEgQgAAgAS1fbll270ONbjO6idaSv0Btwkw/Xzp2/HaE6PBWclC0udeseO7Y1m+ypgAJBECggAlAACiwzm9a88VpUVfkAZrpb6KmLyyw5qO5Fwj0klOiH5MTps17tj7xFqCAAAgUJgEIAAXQ7+yQJxgMfZa26m0ixzOrqMno9wLo9/SaaJ4grcCT0Uj0qXdffOpYevfgKhAAgXwggIEgH3pxnDbwlr3modK7hRndSAZhn6JLnOpHf5za41BWCJjibQp69GTQiPzow+ef7slKHVAoCICAbQQgANiG2p6Cblz74JKo4eKZ/v1U4kR7SkUpeUYgSN+f50wz+qRo9z+/d+9jbD+ABAIgkGcEIADkSYc2rXvoTnId++f04L4jT5qEZjiDQCtpkP7OVzbyX/Av4IwOQS1AQBUBCACqSGYpn8a1D93rcplfpYc0u+FFAgFNBIzzQkT/cWQk8O3927cMaioE2YIACNhIAAKAjbCVFfXoo67lO098hvL7c/q7QVm+yAgEUhPoJr8C/zrqDv8r7ARSw8IVIOBkAhAAnNw7V9SNDftODhXfT4FhvkKnsIXvCj74aCuBAdpK+m+jYfOfPnjpyXZbS0ZhIAACSghAAFCCUW8mizds8PkHix8iNf+f0g6+2XpLQ+4gkBGBYfpe/qfPLf5+x3Obz2R0Jy4GARDIKgEIAFnFn7zwlRs2lAQH/P+nYZj/N105NfnVODuWgEHTUxf/uVz0F3+9+N5w0dZ3WtGmsIbRaPTCqxkVEXpv0rHYKwVDQMqIAO8c+J4rbP7trpeePJnRnbgYBEAgKwQgAGQFe/JC2XFPIBT+kkuIP6RhqCH51fl/lgdzn9crfD6PKKJXt9t92cDujg/yNLDHB3u+x0oySQCI8l9cQIi9krAw5hgLCqFQSIwGQyJIr5FI1EqR+XJvmLwMPm1G3H+996XHD+VLo9AOEMhHAtaekvlIJIttuu7e+6uLIp7fpbHr92jgr85iVbJStNfjoYGe/nw02McGfG9swPfSsVxILACwIBAXCMj7YuxzMBQWLFAUWIqSEPZTIxL52q4Xn9pXYG1Hc0EgJwhAAHBCN5FVf+Ou44+4TOPr+T7ws0o+PsjzbP7SYE/vefaer4kFg2AwfJWAEI5E8rXJ8Xax5PM9ikb4J4hGGEeCVxBwBoH8feI6g2/KWtx4z8bltOz8bTLua0p5cQ5e4Ha7hL+kWJSWlNBfcWzAz8FmaKtyhASAoZGAGKY/fmWtQZ6mbkOYf7p765P/Re0rOHVInvYpmpXjBCAAZKkDY+r+qPfr9Cx8hKpAy/35kXiG7y8pig34PPAXF/nyo2E2tSIcZoFg5IJAMBwQoTAtqedX2knN+a09Wze/l1/NQmtAIPcIQACwv8+MpnUbHzIN4++o6Hr7i1dbIhvb+YuLhN9/YYbPA75VAzy1Nczt3EJkP8ACQUxLQAJBniwZ8LrHv5uh4q/ufeWxvtzuIdQeBHKXAAQAG/tu2bpN19MyN6n7xS02Fqu0KB7ceZAvvTjgl9DgjwFfKeKkmbGB4YXlggtagtzeeWCcN0zz/9q9bfNTSRuNkyAAAloIQADQgvXyTFesf6AiIjz/m9T9X6Yz7svPOv8TD/BlpSWisrwsptrPZ2M95/fG5TUMjI6KvoEh0U9/Oawd+B+3iHxp59bvH7i8dfgEAiCgkwAEAJ10Ke/l6x76gjDMb9DbSZqLUp49z+550K8oK6W993ljpqCck1MyHBweEX39g2JgaDgXtx2S9aPxT8FI9C/JtfCQU5iiHiCQzwQgAGjq3WX3blzoihj/lmvheXnPPQ/6leWlsb34mvAgW40E2HlR/+AwaQYGY8sFGovSkfVpWhb4/d3bnvyZjsyRJwiAwEcEIAB8xELJu+vXbCwtcht/Qfuc/pAy9CrJVHMmbLlfUeaPDfxsuY+UPwTYiJAFAV4mYF8EOZNMc5tpuH5n79YnjudMnVFREMgxAhAAFHbYsnUb15L/+f+kLKcpzFZbVmVkyFdZUSbKS/0w5NNG2TkZjwTYXmAwZi/AboxzIAXIbuav9qyY89fi0UdzosI5wBRVBIFLBCAAXEIh/yYWpnew5C8pBw7T62imbMEfW9cnFb+HfOojFR4BdkvMdgKsFRgiuwHHuyk2xeuGy3X/7hceP1d4vYUWg4A+Ao4erPQ1W13OKz++aUo4avyAHqK3qstVfU68ba+uujLmlU997vbn6I25EfYJr89H3gU/+vNSHIEiX9G4x8dex8sewWDwsr9Q7DO77L1w/MLnj64Z+3mUrO/zIbGjoa6ePtFLxoNOFgToQdVuGtEH97zw1Mv5wB1tAAEnEIAAYKEXLqr8n6QsHOvQp4zU+zzws0V/riUepCurqkRNTbWorqm9+FpD72tECbkWzmYK08DZ29Mjuru7RU93D/11X3zfHRMgslk3mbJ5C2F3b7/o6RuIRUCUycOGeyjAkPn1maWBR7ds2cLOhJBAAAQsEIAAIAEvF1T+vHWvrqaSZsPOd8Vb4vdfGNyrLwzuPMDX1NaIysrKWNhfiS7K6i1DQ0Oiu6vrKsGgv7/f0bNshsaOhbr7SBAgYcDBdgJvRMKeL7z38nfPZrWjUTgI5DgBCAAZdqCTVf7ssIe379XSjJ/D6Tox+WmwnzZ9upg6fZqor6+PzeaLiwtj58EFrUEvaQq6xJnWVnG65ZToIkHBiYm3ErI2gLUCDnUw1GEYrk1kF7DNifxQJxDIBQIQADLoJaeq/HngryJrfh74vR5PBi3Sf2lRUVFssJ9Ogz4P/LV1dfoLzaEShskY7/TpUzFh4PSpU6K3t9dRtWe7gN7+AbIT6HdiYCIKqSH+tnT41F9s374976ImOeqLgMrkJQEIAGl0q1NV/rxGXl1RLmqqKxxj0c9GeFOmTI0N9tNmTBcNDQ3YYpjGdyx+yQAtE5w+dZr+TolT9Dc4MBA/ldVXFgR41wAbDDrQn8Bb5Er418mVcGtWIaFwEMgxAhAAUnSYE1X+bh74qypETWVF1l30umkr4eQpUy4M+KTWnzhpUk6u26f4GmTtdG9Pb0wYYIGA/4aHh7NWl3jB/YNDorO7T4zSbgkHpS4zajy098UnnndQnVAVEHA0AQgASbrHiSr/ahr0G2qrsjrIemiZYc7cuWLh4kWxgZ8/I9lDoLOjQxw6eFAcPHAw69oBdirU3tnjJBsB0lOIb4j24j/bu/exHHJ7aM93B6WAwJUEIABcSYQ+O1Hlz9v4JtbXxkLxjlNlWw5NmTpVLLp2sZi/YEFs770thaKQcQmwSp6XCg7u3y+OHjkiQlly88s7BTq6aBskGQw6JdFD7Z2wEf719154usUpdUI9QMCJBCAAXNErK9f+Zk3IFfo5Hb7tilNZ+chR+Bpqq8nIrzwr5VdXV9NMf7FYuGihqKBteUjOI8CD/7EjR8UBEgZ4mSAbDn0Co0Fxrr1LjDjEQRI92HrIcdDn4TjIed9X1Mg5BCAAjOmLpjVfnGa6Iy/SoYVjDmftLVv2N9B+eLtD8fK2vAULrxGLaODnNX2k3CEwODhIWoEDMc1ANrYYsiaANQIO8SEQImlo055tT/4wd3oQNQUB+whAALjIesX6BxZFhJsH/6n24R+/JPbXz+p+O733sTHfrNmzY+v6/MqfkXKbwPnz52OCwKGDh8SIjcaDEfIqeJ5sA9hGwAGJFCLG7+/d9sS/OqAuqAIIOIoABADqjhvXbVoZNcRz9LYmm73D2/rqa8j1LVn425VYrd+4fLm4hlT8heKQxy62TimHnfo0nzwp3tu7V5wi50N2peGRgDjX0e2U3QJf37N185/b1XaUAwK5QKDgBYDGtQ/da7jMH1Nn+bPZYRXkwW9CXY1t+/lryN1u000rxDULF2Z1R0E2mRdi2W1n28Sud94RJ44ft6X5bI8QWxbo7s16jAHDFP81s3zkfyGOgC1dj0JygEBBCwBN6zY+TK7E/pP6KWv72IrIcQ6r+/0l9rjDrSfHPDfSwD9v/nw46MmBH6iuKvJ2wl3v7BRHDh+2xWgwHOZlgW7BPgSymkzxi7KA69e3b388kNV6oHAQcACBghUAlq/f+MdCGH+brT5g971xdT+/150mTZ5EA/9NYvacObqLQv45RKCHIhruJkHg4IEDtszQh4ZHRBvtFuAwxNlK9Ht7Mxos+sTeVx7ry1YdUC4IOIGA/pHHCa28vA7G8ns2fkOYxh9cfti+T+yvf8rEeluM/Nj//oqVN8Uc9tjXQpSUawQ4UuGeXbvE/g9/JThokc7EEQfPtneKQYqDkMX0gRmNrtv74lNtWawDigaBrBIoKAGgsfERr2gY+Z4hjAeyRb281C8mTagT7M5XZ2JLfh74J02erLMY5J1nBDiU8d7de8QH+94XoaBeZ3ocabCdtgxmw28Bdxt5DWz2uF1rdj73+NE860Y0BwTSIlAwAsD1azaWFrmNn9KPfm1aZBRfxGp+duij08Kfy5g7f55YQap+XutHAgFZAoFAILZr4P133xP8XlcaCYyKM+c6srkk0BF1Gevfff6JvbraiHxBwKkECkIAaPzEF+qMiPd5EvlvzEZHeL0XVf4UGldXYoc9q+++S0yYMEFXEY7P10UCkM9Df+Q9kc0qwlGT/NTTH71G6A8pcwI8+L/95i9JI7BP20ydnQa1ne8UA9lbEhg0ouLTu1/c/ErmhHAHCOQugbwXAJbec/8Mt+lhBz8LstFNulX+vHf/lttuFdddf33eW/V73RcGdx7kvTTIxwd7n4fe0zm3K/HXeSgYET1DIdEzHI4JBNn4LuRymefPnROvvvyK4FddKctLAkH69mzavXXzj3S1D/mCgNMIJH5iOq2mEvVpWvvQYtNlvkS32r4QbofKf/F114lbb79NlJSUSNBx5i0eGsjLfG5RQn88qMcHdx7weVZvNbEeoGMgKNr6RgWUApnR5LX6D97fJ956800xqsnnP8cSiC0JhPQaIiZoeZR8BXx597bN305wHodBIK8IKHikOpPHxZn/21Q72wd/VvlPJSv/Yk0q//qGerH6rrvF5Cm2N015ZxfR7J2MM0TZxT/+bEcKhKKipTsghkkzgJQZgWFyK/zm9v+JBR/K7M70rmbPhbxLYGAwK7sESEY0Ht6z9YnN6dUWV4FA7hLISwEgtuYf9r5F3TLf7q4pL/OLyQ11Wrzr+Xw+cfPHPiZuWLY0Z9X9JT4XzfA9sQGfB35W62crcfD4E50joj+QldlmtpqtrNwzra2xZYGuzk5leY7NqKevPxZTIAu7BMJk8PBJCiL0wtj64D0I5BuB7D19NZFka3/SHr9OUnyTpiLGzZZV/hPqqkV1pR4//hyd7/Y77hClpaXjlu/Eg7wk76fOiM/wuWOSrdNnow1RkgKOto9AEyAJn2frHGNgx9tva9k2yGGGz5xrF0H7lwSGo8J157tbH39HEg1uAwHHE8grAYD3+bsaAs/SxM7WrX4eipw3dXKDKNGg8mef/Wzdzw59ciGxJX6V3yNq/N7YLF/Fur3udodop8CR88MiSA5qkOQIDA4MiO2vvS6OHjkil0GSu1jIaKWtguxF0ObUHXWZH3v3+ScP2lwuigMBWwjkkwBgNK3f9BQN/vfbQu5iIbzeP33yBOHzepUW6yFvgTfdvFI0NjVpWU5QWVn+EpUX06Bf6hGVJR7BQkCupZ7hkGju0rffPdd4yNa35WSzePWVl0Vfr1ovu7wMwHYB/QO2xxI47RaRm3du/X6rLBPcBwJOJZB7T+oEJMm97z/a7d63uMgnptHgzxoAlYln/ffed5+oq69Tma3yvEq8Lhr0vaKaZvvZXMtX0TASHMXBtiExGoYWwCrPYDAoXnnpJXH44CGrWV11PwcU4u2CdiZTGAeCrtDHPnz+6R47y0VZIKCbgNqRS3dtE+TfuH7Tn5B7379IcFrLYY7exzN/t+LBf+HiReKTn/m0KC8v11Jvq5nyQF9XRoJPTbGYVFkUW9932rq+TBtZEnZT2/pGYBAow2/sPfyb4GiTZeVl4lRLi9IgQ2X+kpiGaWjEPm0NfTfqPVHXrTOWzv9B64ED+IKM7Wy8z2kCOS8AcEhfMon/lp29wJb+0yY1KFXNe2gJ4a41a8jK/xblQoVVNhfW9b1ialWRmFpdLCpI3Z/rM/7xmBR53KK9PzjeKRyTIMBeKefMnStaT50SIyPq1u9Z+OaAWrYGEzLENDPoXTJ/avWW5uZmqIkkvg+4xXkEcloAWHbPpo/TzP/7hNWezeNUUHVluZg8oV7pNrza2lrx2Q2/JmbMmkklOCex1f5kmuXPqC2Oqfl5j37erBmNg5lNF3pIA8Cug5HUEPBT8KvF110rBshIsLOjQ02mlAsvv/Gfze6D5we9ldPOHtv3C2UNQUYgkEUCOSsANN374M2GaTxL7PQ52L+iY+pqqmirX80VR619XHztteK+T3+K1KXOUfnz1r3ppOKfTDN+9sjHWxwLJQ2NRgQ7CUJSR4CXBObOmycqaItsi8IlgSKfV7A2gIUAG30FLJ0yb0kJCQGvqCOEnEAgOwRyUgBYsf6BRVHT/TIh07Ppfpy+mFhfK2qrK8c5I3fISyr/u9euFTfdcrNwKbYjkKvRhT37PPBPoYHfLo98snXVdd9o2BQDJAQgqSfQQBEqWRBoPd0qRsiboIrEu3DKS0tiQkDUPs3NxybPu77v7LEP4CNARScij6wRyDkBoGnNF6dFXWI7EbMl7B3PfqeQW9+qijJlnVRbVyc++7kNYvrMGcrytJIRz/in0dp+IQ/8cX6sAYAAEKeh/tXvpyWBaxeLIZq1d7S3KymAd+FUkIOsQfITwJEF7UnG2knzlxxtO7rvQ3vKQykgoJ5ATgkAK9f+Zk3EHX6dMMxRj+LqHF0uV2ybH0f0U5U4gA+r/EvL1AkUsnVjt7zTLw78xbSlD0nE3AKzEICkjwBrvNg4sKq6ipYEmkVUgQMmNwWLqigvFcO0OyAcsaX/eGHsvknzbtjZdmzfcX20kDMI6COQM4u7GzZscJ8cLHmNUNymD8dHOfOsgvf4s6GRinTByv9usXDRIhXZWcqD9+/zFj522oN0OYHTPQHRORi6/CA+aSPQ090tnnvmGTIQVBNPIOY1sK1d2LhNcJC8Bd4Ib4HaviLIWCOBnNEAlExv/Bqp4x/UyOJS1jz4z5g6URRR8B0Vqbi4WHxmwwYxa/ZsFdlJ58EDP+/f5618mPGPj/EshQnGLoDx2eg4yqGsWShuO3tW9Pdbd/DDS3asCeAYAjbFD/CRMfLtkxaueKLtyF5Ijjq+JMhTG4GcEACWrdu4lvai/wdR0K6xYLX/9CnqBn926LPh1z8vGiY0aOvEVBnzYI+BPxUlERv4z/aOpr4QVyglwLsErlm4UHR1dYnurm7LebMQUE42AbHlgLAtywENRjQ8GdsDLXcdMrCZgOMFgJUf3zTFNI0XiYv2MHj84GC1v79Yzc7CGtrf/zka/Curqmzu1o+KqyevfbPrSgTP/pGSE+gaCpENgC0DRvKKFOBZFrznL1gghgaHRPv585YJxIWAQdptEFFgY5BGhZZOnnfDSRIC9qVxLS4BAUcQcLQAwOv+3UEf7/VfaActtvZXZfA3afIk8Wuf/5zwZyl8L1sozaKBv6HcR/v47aCX22Ww6x8OBhSxbytZbgPTUHsetGfPnSNMsuQ/02o99o6L4lGXkQHvwOCwUnfESZq+ZuKC63/edvQDNQYNSQrCKRBQQcDRAgCv+1MjH1DR0FR58D5/VVv9eK3/U5/5jPBpCA+cqh3x8zMveu+Lf8ZrcgLdNPvnP6TsE5g2Y7ooIQc/zSdPWq6MmzQLpRQ/oJ80CzY4C4I9gOUeQwZ2EnCsAGDnuj97+FPl5IeD+dzziY8LN/kqz1ZiC39W/SOlR4AjAJ7oDAjWAiA5g8DESZMER8U8fuyY5YGbjXrZYyCHErahj2EP4IyvEGqRBgFHCgB2rvuzb39V7n0bm5aLO+++O6uuc3mtf0ZtiX5ryTS+XLlwCav8j3eMiFDEhqEhF4A4qI4cDpuX0o4dPWpZhc/Bg4rJtoeXA2xIsAewATKKsE7AcQKAnev+HNWPA/uoSLfefrtYecstKrKylAev+xeqG99MwYVp0D/eOSJG4Ps/U3S2XV9FBrTTZ8wgIeCYCIetReL1kfttdh1sUwAh2APY9i1BQbIEHCcA2LXuzypBDunLhkdWElsvr1m3TixZeoOVbJTcyy59OXofUmoCQ8EIqf1HEPgnNaqsX8GBsthz4Injx0Vw1No2TXbsxXYBQ+Q2WHOCPYBmwMjeOgFHCQB2rfvzQ2A6bffjwdtK8pBa8ROf+mRs+5KVfFTdO6HCJziEL1JiAjzrP0POfk73jMLiPzEmx51hh0HzF8wXLSebxciItcG7hJYC2CBwJGBNmEgDEuwB0oCES7JHwDGjhV3r/qwCnEGOftj5iJXEwgMP/tn27je2DdNqSmh2Y02jMTa/fHjPK/tBMvIboP39bbGBPyCGg3YFjMkHgs5pA++qmTt/fswmYNTi4M07A3hJgT0Gak6wB9AMGNnLE3DEaMHr/s1D/tdJKr9Vvimp74y7+OW1QKtp7T3rxaLFi61mo+x+Hvivn5L9AEPKGpRmRjzAh2iAD9LMPkQOX4IUzjc45pUt/Gmyh5RHBHp7esWPnn5aDCsIKdxKcQNssAkYongBTYgXkEdfwjxpiiMEgMZ1G79Oa/Ff0cmU1/rZv3+Jgr35t626XTQ2NemsbsZ5s+p//gR1UQszroDGG9g3zzCt2QfIWG/s4M4DP1vvY3zXCN+hWbO3wC0//JEIBq3N4HkpoLm1zQ5NwK9MT/GKvc8+Zss2BId2G6rlMALW9OAKGmPXuv+E+ppYzHCrVeaBf+UtN1vNRvn9bPlfW2pds6G8YhIZ8tY8Vtmza95zfUHR2huIve8PhAWH6mVBgAd++odUoAQ4nDZvETx86JAlPwE8MeDlgL6BQUv5pNENbA8wiVwFP5PGtbgEBGwhkFUB4Po1G0s9rpif/0qdreXtfir2+rPK/86779JZVem8vRQPvbYsNwUAXqPvo8Gdw/ByNL4zFJCnZ5gGe5r1Y3++9Fci72+srKwU1eQs6NiRo5ba6qbfjo+3B+r3EbB00rwbdrQd23fcUoVxMwgoIpBVAWDa/KV/Re24R1Fbxs2Gjf44wA9FExz3fLoH2diPPfxZ3TaYbnmZXsc2ALni/Y9n+DzAtw+EYrP7c/1B0TcSjhnnIRRvpj1f2NfX1tWR22C/OHnihCUQHPo7EiHtkn6jwJtK5932WPexXYg6ZanHcLMKAlkTAFasf2CRKYwnqBHa6sCDNQ/+Vo3+Jk2eTL79P51V976pOpsH1QbaBuhUAYUN8ViFz5b4p3oCsQGfVfm8vo8EAlYITJw0kW43RetpawGEeClgkPwDhEkQ0JVoGlJbJEaDpAV4Q1cZyBcE0iWgbfBNVYFJ85ZuoWtmp7rOynlW+1eUWYsiXEshfT9LUf2yGdgnXQblRR7HeQFkNf55muGf6r6wjh8gdT8SCKgmMG36dDE8NCTOWwglfMEeoJjsAfQGDiIh4Kaps69/+szxD3pVc0B+IJAJAWuecDIpacy1Tes2PUgfbx9zSPlbDutbU1VhKd9y8kD2mQ2/Rj7Eiy3lY9fNfSPOiGbHa/qs1j/QNiSOnB+Ore1DtW/Xt6Bwy1lN9jnzyE+AlcTawkkUGVRzKol6jG9qLgPZg0BKArZrABrveqRSuCPPUs20bVrnwB/Tplhb9+dBf8Ovf15Uki/yXEmBkCnqyBDQqr2DTHvj6/pswMd/g2Stz8eQQMAuAjyDnzNvrjjTekb09/dLF1tEnkLDYe32APMnz1/y/tmj+w5LVxQ3goBFArZrAAxvgAz/zAkW653wdn4ITJlYH/P3nfCiFCc8NAv41Gc/K2pI/Z9LKUoL7R0D1vZFZ9peHuR5tr+fZvus5ueBHwkEskWAPXx+kux16hsaLFVhIm0bZsNArckU/9L4iUfy03mHVnDIXBUBWzUAy9dvWkoVf4z+tAkeDXXVltf916xf5ygXv5l0Nq+5VxR7BG8L1JlY2DhPVvzNXYGYcR8b+SGBgBMIsBAwa/YscWD/fukIgjF7AAoYdsE/gLZWVYlIyNV27INXtZWAjEEgCQG9o8TlBfM+vH+nP21CR1lpiaitsuZSYPF114mFixZdXvMc+sQDMQ/KPEDrSLGBn2b8vzo7FLPoh5pfB2XkaZVAeUWFYHfdVpLP5xUTNdsDkKDxR41rHr7GSj1xLwjIErBNAGhav/H/oEqukK1oqvt43X9yQ32qy5Ke5z3Fq+9cnfSaXDjJ/u+PdYwoXYOPD/z7aeBnZz0Y+HPhm1DYdZw9Z45oXL7cEoTK8jJRVaHNXInr5nO5o/9mqZK4GQQkCWibjY+tT+MnvlAnou5f0LGSscdVvWd1XWy/P0nssonX/T/7uQ2ijFyM5kNiD3rsXY+XA8jbonSTeOBvJw99zZ20d5/yg12fNErcmAUC02ZMFy3NzWJwcFC69Jh/gKFhchSkbQvrrMlzbzhCboJ/JV1J3AgCEgRs0QAYEd/fUN1qJOqX1i111ZWCY3xbSavvvFPwnv98Suxo59C5oZiRXqYrArGBnwwKYzN+surHNr58+mYUTls4bPe9933C0lZe3lXDhsU80dCWDPMb5BzN2r5lbZVDxvlKQLsG4MZ1m1bSavS3CKCWXw/v27X641y4eJG4+WO35GUfsyUAW+ZzYB1W2/soaFAyjQAvH7TTwM92BOyeFzP+vPxaFFSjiigCaE1tTSxwkGzDOZQ4C8UjgVHZLFLdVx4VLj95CNyW6kKcBwFVBLQKABs2bHB3h73P0MjPvjq1JB782VhHNtVQMBHeNsSWw/mceCBnQaCD1Pnd5Id/gN6PBKNkwR+JDfQsILT2jJJlfzAWcS9TjUE+s0Pbcp8A/86Do6Oira1NujEl5Bukn7wERqN6lgLoOdk0dc51vyAPgeelK4kbQSADAlqXAJqHSn7HMMWSDOqT0aXs5pfX52SThwwH773vPuElLYLdidUhOjWKydrDnvr6aXbPM332G8BR+Hi2DzV/Mmo4l+sEbl11u5g4aZJ0M1xkS8NhxTUmd9Tl4p1SWrSlGuuNrHOUgLZp79L1X6w3hPlz4mJtcT4BWF7bmzaJvP3Rq2xi16G8X1h3YpV7bZlPTCj3iSlVRWJqdbGYWFkkJlYUkec+nygrcsdU8zwwQ+WuuzeQf6ES4DX8GTNmiAO/2h+L/CfDoYi0jQFaBgiGwjK3p3PPtElzl5ykpYB96VyMa0DACgH50TNFqR4j8od0iTajlvqaKuHxyMsvC665Rlx3/fUpWmHtdBGtt8+sLRbXTi4TU2ngr/J7YgP92Fy9bkNUltAWRhIIFtN1s+pKHBfQZ2x98R4EcplARWWlYEdfVhL7BtBpEEhyyld5+dRKHXEvCKRDQMuX7IZPPVzlCptPUwW0zP7ZReekBvkfYVV1Nbn6/YzWdX/2yT+bBnO/z522qp/1fsVeV0xbwGvw7NUPCQRAQC0BdvE9GgiIc5L2AO6LXjaHRwJqK/ZRbjU9Ie/htqP7PvzoEN6BgHoCWjQA7tHol6mq2mb/VgZ/NvbjbUE+jX6+p9cUi2mk5pcNysPb9nmpgLUHSCAAAuoJsD3AhInytsm1tPWYdyDpSmQ79WeUN2wBdAFGvjECygWAxas2lNG39vd08WWvXFb2/K9YeZNosBgoJFnbeOCvLVXzYKj2e2NLB8nKwzkQAIHMCfBEgF0Fy9oQ8RIABwzSmBY3rn/wkxrzR9YgoD4oj7/E/7+IqxaPOqx6a6itlu42Vv0vv/FG6ftT3TixwhcLx5vqukzO15Ph4ATKFwkEQEAtAXb8tcyCq2DegcQ7kXQlQ7j+XFfeyBcEmIBSDcCqVQ8Xm8L8I11oefC3sl9/9V13Wro/WbvKi90xy/5k18ieYwPBErINQAIBEFBL4KabV4ry8nLpTCfU1UhrEdIodPmydRvXpnEdLgEBKQJKR5Wh4uhvUC3kF9aSNIHV/lUV8j/U+QsWiBkzZyYpQf4UW/LPrCnRumDXAC2AfAfhThBIQIB9gKxavTrB2dSHeScS70jSldwuaAF0sUW+CjUAjY2PeE1D/LEuqFbCcnpp7+7tq+/QUjW20plZWyI8JAToTGwPwG58kUAABNQSmDt/npg5a5Z0ptWV5YJ3JulIpmneumztg7fqyBt5goCyEcVVP/IA4ZyhA2l1ZYUoLpL/ga285RZtUf4mk7U+O/LRnVi8aChXY1you67IHwRyjcAdtDzInkFlUswgsEGfQSC0ADK9gnvSIaBGAHj0UZdpGF9Jp8BMr6EvPxn+yavY6urrxNJlyzItNq3r2YFPAxnp2ZU4tC8SCICAegJVVVWiacUK6Yz9FCegolyPQSC5BFl74z0bl0tXDjeCQAICSgSApp0nNlD+8xOUYelwdVWFJSOb1Xfdben+RJVndfwM2u9vZ/JedEBiZ5koCwQKhUDTihtFVbWFyYaFe1MxjpqwBUjFCOczJ6BCACCfFTGnFZmXnuIO3qNbQ+p/2bT42mvFlKlTZG9Peh8P/m722GNj4uKShfK1sSooCgTyjgDvMFp9513S7eI4AeVlfun7k99ofrJp7UOLk1+DsyCQGQHLAkDT+o0fpyK1ONVn45q4283MmkUudUkld+vtt2V6W1rX118M4JPWxYovgiGgYqDIDgTGEJgxa6aYt0BemVmnTwtAbgFM9g6IBALKCFgWAExhaHFWwYY1NaT+l0233HqrKPGrl8Y5wM/kKvvW/a9sv706hytLx2cQyH8Cq+64Q/DOIZnExsplFkKUJyuTNK2fpx0Bc5Ndg3MgkAkBSwJA07qH7qTC5C1nktS0mvb8e0glJ5PYx/d1S7QoJQT7+Zf18S/TlivvGQlFrzyEzyAAAgoJlJFjoJU33yydY50+vwBut+H6E+mK4UYQuIKAJQHANKJfvSI/JR9js/9qudk/33vnmru1hOtki387tvwlgjgajooohwlEAgEQ0EpgaWOjqK2rkyqDnZb5S/QYCJOvlYea1nxxmlTFcBMIXEFAWgC4ce2DSyhY1aor8lPysbK8THgl9+TOmz9fTJgwQUk9xmbCqv9J5JI3m2k4iNl/Nvmj7MIhwAbIK29xpBbAKzyRLxVOT6ClOglICwBRw7VJV8U41KZsuvGmm2RvTXofW/3bbPR/VX0GR8NXHcMBEAABPQR4MlFDAYNkUilpAKxELU1WJikBHxTkeyXZNTgHAukQkPoSbdiwwU2O7+9Pp4BMr+HZv88r5/Bm9pw5or6hPtMiU15fQ+F9S23w9pesIqz+7xoKJbsE50AABBQTuPEmeRMnjTsCpi7beXyV4qYiuwIkICUANA+V3k2stAT9sTL7X7FS/eyfDf44Gl+205neUYHl/2z3AsovNALXLFwoKqvkNJJlpSWWXJgnY00zMG0a2GTl4lx+EZASAIQZ3agDAzvRYGcaMmn6jBli4qRJMrcmvWdipU9wtL9spsHRiOgbgfo/m32AsguTABsVN90orwWwMqFJRpxMgT/b+IlH1O9zTlYozuUdgYwFgFvu+41y+vJ9SgcJKyozHbN/NvxrIKc/2Uw862/tCWSzCigbBAqawKJrF0sHE6soK5We1KSAXuYKj346xTU4DQJJCWQsAASDoc9SjsolTyvqMnb3O3Wa+p0xUyjSH00AsprO9o0K7P3Paheg8AInwC6Cl994ozQFXVoAIUwtmljphuLGnCOQsQBAnv+0rD1Zmv3ftFI5eI68x9H+spn6A2HRPhDMZhVQNgiAABG47vrrpD2LxrY1Sxo2J4NPysG7Gtc+qH7dM1mhOJdXBDISAGIOKAyxSjUB3i4ju2WGvf7NmDVTaZV41j+1OruGf+GoKU51Q/WvtGORGQhIEvB4vaJxeaPk3cJSULMkhbppb7KW3VhJysSpPCKQkQAQdUUeoLYrV4qzhCybdKz91/i9gtf/s5laaPAPRUjGRwIBEHAEgSVLl4qiIrmJQUV5qRbvpJQplgEc8e3IzUpkNMrRzFi5+p+tbNlQRibV1deJOXPVxsbg2T9b/mczdQwGRT+s/rPZBSgbBK4i4PP5xA3Lll11PJ0DHNeEnQOpThSLfcmydZv0BD5RXVnk5zgCaQsAy+59iPVfC1W3gCNnyYb81eH1r5ac/vjcaWNRjUMEKNjPWdrzjwQCIOA8Assal0lHCqyskNd0JiNBkxZoAZIBwrmEBNIe6dxmVPnsn2slq/6vrq4W8xcsSNgwmROx2X+FnIpPprwr76Flf3Gya4QC/lx5Bp9BAAScQKC4pERcv+QGqaqUl/oFxxhQnUhp+UDMO6vqjJFf3hNI69u4atUqj2kaX1BNw00/Bt7+J5Mab2xSvqZWR3v+s+n0h2f+rAFAAgEQcC6BxqblUgP5heVO5TuoGdSkE4N+Ds2OBAIZEUhLAOj3T19HuSp3si9rGOOhSIELrrkmo4amupgD/UygcL/ZSrzmz2v/SCAAAs4mUFpaKmbMnClVSVmNZ+rC9GhoU5eLK3KZQFoCgBHVs8Yk+2OYM2+uYIMclSmbs/8wWfu3wNufyu5EXiCglQB7B5RJfjIElA11nqw8QxifXrxqgx4jg2QF41xOE0gpADTe9UglrY3fp7qVHPFPdu//osVyP75EbeC1/4Yszv5P9wYECwFIIAACuUGAI4/KbgmspC2BGpK/pMT/GQ35Iss8JpBSADC8AXb9q3z/iuzs34r6LVE/Vpd4s7b2PxSMiN5hBPpJ1Dc4DgJOJMDLkPMWzJeqmuyzL43CHkzjGlwCApcIpBQAKBjN2ktXK3xTIen8h8NzsjGNylRfLheBUEUdsOVPBUXkAQL2E5DVRPoo4mmJpEOh5K00b1u5YYOcVXXyjHE2TwmkEgB4rL1DddtZ9c9LADJpoWL1v9/nFvyXjcQhfjnULxIIgEDuEZgydaqorKyUqnhlhZZlgKLwgP9mqQrhpoIkkFQAaLzn4WuJinLrf1kVGHv+q29QW52szv4p0h8SCIBA7hK4ZtEiqcqz91PVmkyuiGmYq6UqhJsKkkBSAcAlosq/TLG9sJJGMLIqt0Q963Ebgtf/s5G6hkLY858N8CgTBBQSWLRYTgDgEMOl5AVVdaLFUeXPbNV1RH7OIZBUAKD1f+VfJnb8ww6AMk0sOMhK24nKqiO3v4rNCRIVddlx9vTXhtn/ZUzwAQRykUAVeSSdNHmyVNV17AagR8vyW+77jXKpCuGmgiOQcCS+6FryNtVEZNX/02fMELwDQFXigZ/3/mcjdQwEEekvG+BRJghoILBQUgugyTWwZzQYulVDM5FlHhJIKAC0DBUvpfZWqWwzz+JLyZe2TFKt/q8o9mRl61+Epv/nSQBAAgEQyA8C7JWUVfqZpgvPQ+U7rEmr6VKuuc20bbg+NwgkFABonFL+JSou8pEP7cy38Hlp28xc8v6nMtX4s7P2f64/KFgIQAIBEMgPAsXFxWLWnNlSjSn1qxcATAFDQKnOKMCbEgoA5FpSuQAga/Qyb/584fGqG7DdJIRUlshtQ7TyHQmGo/D3bwUg7gUBhxJYtEjOOym579PRoiUr1/5mjY6MkWd+ERhXAGhsfMRLc9SPqW5qKfnBlkkLJX9cicqqosE/G8Z/bX1BQYaVSCAAAnlGgDUArAnINBWRdtMjsXyQohxX2AiuSnENToOAGFcAEPWBFcRGncUdZcbrXTK+/1n9P3XaVKVdVUPW/3anEPn67xkO2V0sygMBELCBgIt2NslGCPRrWQaAHYAN3Z7zRYwrALg0OJPwk/c/FgIyTVOmTCW7gXGrmWlWset9bpcoK8rcYEeqsDE38b5/TP7HAMFbEMgzAtOmT5dqkaxmNGlhGp7hScvDyZwkMO7IampY//dLOr2YPkPuR5WoN6pL7V/757qwAIAEAiCQvwTkBQAtdgALm+55eGL+0kbLVBC4SgC4GEziJhWZj81DVsqdKilVjy177PtsWP8PBCKCDQCRQAAE8pdAVXWVKC/P3AePl+KieCm6oOpkRs07VOeJ/PKLwFUCwMVgEkUqm8kqfN4CmGlio5qGhoZMb0t4fZGH6uG9qskJr1d1omsI+/5VsUQ+IOBkAtJaAA12AAa2Azr5q+KIul01GuoIJuEvkVz/J+M/GbuBRGSzsfUvTHv+eynqHxIIgED+E5AVAPySO6SSEdXxLE9WHs7lHoGrBAAy01utuhmy3v+mK1b/s/c/u1M3G//B+s9u7CgPBLJCYJqkzZLsMzJ5I43ZS++5f0bya3C2kAlcJgBwEAkaq5arBiIr3cpK0+PV30U7ELJl/T9efXAMBEAg/wiwDQDbAmSaPB638NGWZ9WJrAuUT+hU1xH5ZY/AZQJAKBi+lqqidJrspm13Muv//lK/qK2rU0amvNhtu/OfodEIQv4q60FkBAK5QUB24iJrKJ2cSvSG5OdxtpAJXCYAmC7jGtUwpGf/09Ru/8vG+n8ntv6p/johPxBwPAFZAUD2WZkMiGmqf6YnKw/ncovAZQIALVYvUF192bUt2bW0RPW3e/2fA/70DsP4L1F/4DgI5CsBWQFAjwZAKH+m52u/FWK7LhMAyFhNuQZA9ks9TaEGoIS2/nndmXshtPKF6KHBPwrrPysIcS8I5CQBv19u+ZJDCsssl6aANP2ib5cUl+F0IRK4TACgyABKpUXe/y9j2CJrSJOoA8uyYf0Pv/+JugPHQSDvCchqATQIAEakv2h+3gNHA6UIXBIAVq1a5SFn9XOkcklwk488XMkk1er/Up+9vv955j9MBoBIIAAChUlAdguzT2HY8zh50+1WOrGL54vX3CdwSQAY9k+fTc1Rug9FZvbPSFWq/zm/UpuD/wzS4I+t/0weCQQKk8AUyQimss/MpJTNqPKl3aTl4WTOELgkAJgaDACLJKXZuoZ6ZQB57d9n8/o/+/5HAgEQKFwC7Ma8vKIiYwCyz8zkBRnQACQHVLBnxwgA6reLyEqz1dXVyjokG85/WAOABAIgUNgEamoyf45xYCCV7s+5Byi6KzQAhf1VTNj6SwKAcKmXEmXWs8rKyoRXUnMwXiv9Nq//8/a/4SAEgPH6AsdAoJAIVNfUZtxcHvzVRwY0YQSYcU8Uxg0fCQCmqVxKlBEAqmtqlJK3WwOA2b/S7kNmIJCzBGQ0ANxYWc1pElBlK9Y/MDXJeZwqUAIfCQBC7RZAlmJdrsz33tcoFAC4+BKvvTsABqD+L9CfEpoNApcTkJ3M6LADiJoe2AFc3j34RARiAsDKtb/J0251jvcpM9ktgFUS62aJerKYBn/SqNmaBgPw/mcrcBQGAg4lICsA+Hxy26eTY1Dv5TV5eTibCwRiAkDYM6pe/S8Z2UqlBqDIM1bBob87wrT+PxKK6i8IJYAACDieADs0k7Fnklk6TQXDNNR7eU1VJs47n8CFEdJU7yhC9ktcXa3OBqCYXADbmQax/c9O3CgLBBxPQGZHkwYbAOaEJQDHf1vsr2BshNQRA6BIQgPAvrArKjPfO5sIW7HNGoCBUaj/E/UFjoNAIRKQWQbw0HPQTW7UFSflWl7F9UN2WSBwUQOgfn1IRgNQVVWldA+s7RoAGABm4SuMIkHAuQRkBABujQYtwLTGTzzidy4p1CwbBC4IAIqDAMX2skrEAZD9sSQCZ6cNAO//D2D9P1FX4DgIFCQBWZsmmQlUCsCGOzg8L8U1OF1gBFwbNmxwqw8CJBdSQKUAwIO/nTsAAmEY/xXYbwfNBYGUBKpr5WyaNGgABIICpeyugrvAdWjYy4vuciN2Alwy6/+clYzBTIIqCDtn/1wHzP4T9QSOg0DhEpB9punxBSAyd01YuF1XEC13+VyectUtlfUBoFIDYPf6/yjU/6q/RsgPBHKeAG8DLKPtgJkmHb4ADBHNvCKZVhzX5xQBlytoKP9SsDW/TJJ1nTleWXYLAFgCGK8XcAwEQEDmuSb7DE1Gm5ZElT/rk5WHc84n4Iq41AsALoktLCwpF5eUKCPGYYDtTFgCsJM2ygKB3CFQUVGZcWVlnqGpComa6p/1qcrEeWcTIHf9YeVSoUwMAJ/Pp5SURyIOgWwFyI+CCMIIUBYf7gOBvCYg82xzabBgpimR8md9XndcATTO5Yq6ylS3U0Z69eawADBKgz/JAEggAAIgcBUB2WebzHP0qsLHHKCJivJn/Zjs8TYHCbiihnq1kIwXKxkpORlvj41LAMEItgAm6wucA4FCJiD7bJN5jibjDBuAZHQK8xxtlldvGZrtJQBWn+lQoSX6ioQjmP8nYoPjIFDoBGQFAJnnaArWWAJIAajQTrvMqHoNgMvI3I+17I9kvA6zc/bP5XMUQCQQAAEQGI+A7LNN+RIAdgGM1z0FfYwmyobydSEZydUrETwoUc/ZaQDIdYAAkKgncBwEQEDaBkCxIaABGwB8Ga8gQAKAjiWAzDUARb6iK6om/9F2AQBLAPKdhTtBIM8JFBXJ7XBSrQHALoA8/6JJNM9lKt4byoGA+C/TJCslj1cOlgDGo4JjIAAC2SAg+2xTLQDQQiVsALLxBXBwmTxVV/qlkFH/Mx/ZdbLx2EIDMB4VHAMBEMgGAdlnm+yzNEkbS2LB35JcgFOFRcAlTFOpDYCMASAjl/2RjNddEgqI8bJJ+xhsANJGhQtBoOAIyD7bVGsAGPyJnmqlz/uC68w8azDHzM07DUDmCxDWejXCrgCRQAAEQGAcAj6vpA2AhpmMxzuk9Hk/TnNxKIcIaFgCyNwAkHmp3AUgY4Ngqc8w/lvCh5tBIJ8JyD7bdGgAQi4XBIB8/rJl2DbSAKi2AZATAGTVZBm2V8vlGP+1YEWmIJA3BGSebzoEAFdYrcY3bzqoQBtCNgBq/UPLGq7I/EAS9ZndSwBYAUjUEzgOAiDABGSeb7LP0mTEoy61Nl/JysI55xNQvwQg4QWQMcn8QBLh1bB0lqgoHAcBEACBlARktgJq0QAotvlK2XBc4GgCLAB4VNZQdvDV8WVX2a5keZmIBZgMD86BQMETkHm+6dFkGkqf9wXfsTkOwEVfsgGVbYhK+sUPBoPKqqHnh5OkejACSAIHp0AABGSeb1ENa4uUpdLnPXo2twm4aOwaVNmEaFQuNK7MDyRhvWXVEAkzTH4C439yPjgLAoVOICQxwZF9liZj7XJFlD7vk5WFc84nQAKAoVQiLEQNgJ2hh53/lUINQQAEriQgM8GRfZZeWfbYz1HTo/R5PzZvvM89ArQEYCr9QkTN7GsAIpLLELLd55bb+ShbHO4DARDIIQLhcFjIzOZl7kmFxRvFEkAqRoV0nv0AKBUAIpJLADIqskQdZbdnPjdbUiCBAAiAwDgEZJ9tOgSAaCiq9Hk/TnNxKIcIkB8AQ+makCk5+w4GQ8qw2a4BsNnmQBkoZAQCIKCdgOyzTYcRYLevUunzXjs8FKCVAAcDUioRymoAZNbIEpGxXQCABiBRV+A4CBQ8AdlnmwYNQOjY1m+OFnyHAMAlAi7TpXYJwKR9JvyXaZL9kYxXTkTODGG8rNI6BhuAtDDhIhAoSAKyzzYNRoBKJ3sF2Zl51mgXbQNQ/qWQUV3JrpON1x/QAIxHBcdAAASyQSAUkvNxIqtNTdJG5c/6JGXhVA4QcEUV2wBwm2VUV7JS8niMw5J2COPllc4xN2wA0sGEa0CgIAnIPttknqMpAGP9PwWgQjtNHirV2gAwQBnVleyPZLwOs3sXgNeDfYDj9QOOgQAICCH7bJN5jibjrdrra7KycC43CLh0uIaUkVxlfyTjYbZ7CaDIg22A4/UDjoEACFgQACR9qiRirtrpW6JycDx3CJAAoEMDkLkVnkobALZBlLFDkO22ImgAZNHhPhDIewKyzzaZiVRSmIb6Z33S8nDS8QRoCcCt3DBEZvBVqQFg6qPhzHciyPaWD9sAZNHhPhDIewKyzzblSwAaDL7zvvPyvIEukjKVG4bISK6yP5JE/TMazlwLkSivVMfZBtDrxjJAKk44DwKFSEDm2Sa7nToZX1ODwXey8nDO+QRcblO9a0gZyXV0dFSwz2xVKWijAMB1xjKAqp5DPiCQXwSGh4YzbpDMMzRVIYYGg+9UZeK8swm4TI9P+RKA7P7V3p5eZbTs1ABwpSEAKOs6ZAQCeUWgp7s74/bIPkOTFaTD4DtZeTjnfAIu2jOvXAAIheT8+vf0ZP5DSYTYThsArgMEgEQ9geMgULgEWJXf25v5xEb2GZqMNFlFKX/WJysP55xPwDUgyvpVV3NUMrBPT3ePsqrYvQTg97mV1R0ZgQAI5AeBvt4+EYlEMm7MqOQkKmlBplD+rE9aHk46noCLg0OQZHhGZU2Dkl9eGVVZonoHKSCAffsAhPD74AwoUV/gOAgUKgFZraZsBMEUnI+nOI/TBUYgNmqR/fohle2O0ODLf5mmbom1skRlsC+AkI2GgG6KCIhlgES9geMgUJgEZJ9pwZA6g+hL5L0hpc/5S/niTc4SiAkApiEOq26BjBagt0fdEgC3x247gNIiLAOo/h4hPxDIZQI9XXJ2TRo0AN17n/1BZy6zRN3VE7igt44aygUAGTuAQCAgRoYz3zKTCEsgnPnaW6K80jmOZYB0KOEaECgcAjIaAHakFlK4JfoibeXP+MLpxfxt6QUBwFC7BMC4ZDQAfF+3QkPA4WDmyxBcB9lUCkNAWXS4DwTykoCMDYCG2T+zhfo/L79h1hoVEwCiRki5dCj7Je5VuBVwOGivBqDE6xaIDGztC4m7QSBfCLBzMxknQLKTp2TcyCRK+TM+FhwWUgAAQABJREFUWXk4lxsEYgLAey88fYqqO6KyyrJfYpUagECIjBGj9u0F4MEfWgCV3yLkBQK5S0B2V5Ps5Ck5qSgEgOSACvLshSUAIchNtDiikoCsFavsjyZR3e1eBqgo9iSqCo6DAAgUEAGZ9X/Go8UHQMSDJYAC+u6l29S4AEDxc9WqiNgDlowWQL0AYO8yQEUJBIB0v3y4DgTymYDss0yDBiAsunzwAZDPXzbJtl0SAGgbu3IVUTCY+V7Wvr4+UkeoU9vbbwfgQmRAyS8jbgOBfCIg69lUVnuaiB09TU/u3fuYnH/2RJnieF4QuCQARB2yE4DdZrL7TFXJ7iUArjeWAVT1HvIBgdwlILMEEKatyzLh1JNRMoQB9X8yQAV87pIAYBrO8AXAfdHd3aWsS9glcDiiTqOQTsUgAKRDCdeAQP4S4EFcxrGZzLJpKoqmMJVrd1OVifO5QeCSADA6NKz8SyL7ZT7TqjQ0gRiyeTtgeTFtB8yN/kctQQAENBA4f+6cXBAgyUBqSZugYXk3aXk4mTMELgkA+7dvGaR5stKRV9aY5fSpU0oBDozaawjIcQHgFlhpFyIzEMgpAqckn2Gyk6akcKJwApSUTwGfvCQAMAP6oFQLEKb1fJlQmO3nzwt2oqEq9Y9kboxotexqv9dqFrgfBEAgRwmcbpGbxMi4UE+FKGq4lT7XU5WH87lD4DIBgKqt/IsyNBLImAbvAmg9fTrj+xLdMEpRAfnPzlTt98AroJ3AURYIOIQAT3razp7NuDb83BuReF4mK4iWInve2/q9jmTX4FzhErhMAIia6q1FhyW/0LISdKKu7A/YqwXgZYBKOAVK1B04DgJ5S+DsmTMiLBHMZyQwKjgQkMpEuWEHgEqgeZbXZQKAKdS7i5TRADBj2TW0RP3TP2KvHQDXo6YUywCJ+gPHQSBfCcjaMMk+K5Nx1LG7K1l5OJdbBC4TALxGdL/q6rMhIO9tzTR1dXYqDQ08OBom6TrTWli7nrcDekgTgAQCIFA4BE6fklu+lNWWJiPrMoXyZ3qy8nAutwhcJgDs3Pr9Vtq/dlJ1E4ZG5OIMnVZoB8CDPwsBdiYODlRFtgBIIAAChUEgFAqJc21tGTeWVf+8BKA6mVHzDdV5Ir/8IXCZAHChWcZrqpsnK9kqtwPAMoDqrkV+IAACYwicaW2V8uTHxn8qXaBfrFLfrIqRvWOqh7cgcBmBqwQA8hqlXAAYGs58JwDXUrkdgM2GgNwGDg/sc1+FmU8hgQAI5BkBJ63/C2G8sWXLlszXX/OsT9CcxASuHpki0dcTXy53JkQWsaFQ5up3dqU5ODAgV+g4d/FWwEDI3u2AXI2KEvc4tcEhEACBfCMgq7UclpwkJecXVT6ZS14ezuYagasEgL0vPsULWAdVN0TWDkC1FqB7yP6gWIgNoPrbhPxAwHkE2HlZe3t7xhXjuAEjCh2fxStA27ohAMRh4HVcAlcJALGrNHxxZLe4yKrUxm0tHewetl8AKPaOjzlRHXEcBEAg9wi0kvW/zDq+rI1UCkKd727b/GGKa3C6wAmMOzIZQr3qSFbFJbulJlG/higy4IDNtgDYCpioN3AcBPKHgKy2UnZylIycYRi8lEt7n5BAIDGBcQUAj+nbTrco/fJwXAAZP9cD/f2ih2wBVKauocztEayUz14BkUAABPKbwKmWFqkGyhpJJyuMtj2zAIAEAkkJjCsA7HjxO910176kd0qclFV1HT6o1iShj4IDqXa5mQxH2G4PRMkqg3MgAALKCXS0d4jurq6M8+W4AaPBYMb3pbrBMCNY/08FCec5AGCCZArlXyBZQ8CD+w8kqKTcYR78e4bt0wLwsgMSCIBA/hI4uF/O4Z4O9T9RPrtn21PKA7vlb+8VbssSCgCmBkNAWQ1Ab2+v4AAbKpOduwFGgtiKq7LvkBcIOIkAG/4dktRSyj4Tk7bfUD95S1oeTuYsgYQCQHGR+w1qldJpciRC+/Alt7uo1gIMjkZE0KYQwbzkgAQCIJCfBFqam8XQ0JBU43Ss/xsC2/+kOqMAb0ooALz1zHcHyHRtj2omfQNyP5TDhw4JXi9Tmbps8AnAyw39AbX1VskAeYEACFgjcEBS/c+ToSDFDlCdyO2a8uVb1XVEfs4gkFAA4OrRyrXyL1L/oJwAwE42Thw7rpRax2BIRDQb6LUPhGw1OFQKCJmBAAgkJRAkA77jR48lvSbRSdnJUKL8Lhw3T7z3wtNy2xGSZ4yzeUggqQBgRNVvJeHQwEPDctEBZSXtRP3Gg/+5fvUWuPHy2Pr/vMb84+XgFQRAIDsEjh4+TOHOM1/iY7sBLQKA4cL2v+x8FXKy1KQCgKdi5C1qlfIYlX0Dg1Kwmk+eFCOSoYUTFdgxGKQwwXpU9C1dAcz+E4HHcRDIAwIHJHco8SRI9ZIm49QRzC0PuglNSEAgqQCwY8sWnqq/k+Be6cMDg8NSITPZZ7ZqnwAkiIsTnSOCAwWpTGd6R2ntP/OZgco6IC8QAAF9BPrJSVnr6dNSBWiZ/VNNXMKlfNlWqoG4KScIJBUAuAU0Pr6quiVsGDcwNCyVrazEnawwXgo41jEiRhRECiReopUG//YBfUsLydqCcyAAAvYQOHhAzj8JT2Rkn3/JWmYK48DuFx4/l+wanAOBsQRSCgCGGf3x2BtUve/rl1sGOH/unJTHrVT15i2BR84PW3IQFCaHP8dJkOjA4J8KN86DQM4TkN2azIbQMkGDUgEzTFPLszpVuTifuwRSCgAxj1KG2KW6iewBKyRhPMP1kJW8U7WBNRPNXSPiaPuwGMrALoDva+sbFfvbhmwPNJSqTTgPAiCgnsC5tjbR080e0zNPutT/htvzZOa1wR2FTCClABCDYwotX6x+SZ8AspJ3uh3NRoFHSAg4eG4oNrDzZ3bny+p9TrxkEKDlAvYjcJLsBz48MxTbTcCCABIIgED+E5BdigyFwkKL9z8h3tr9/HdP5D95tFAlAU86mZme0A+NsPcf6VpvOtenew3vBqitrkz38kvXDQwMiNOnTolp06dfOqbjDQ/y50LBy7YKGuQdCeO8DtrIEwRyg0DMGJkck8kk2R1Qqcoi73+bU12D8yBwJYG0NAB7n/1BJ9249cqbrX7m8MCBUTljuff27rVavNT9GPylsOEmEMgbAqyBDEhuR9ak/h8NFRlY/8+bb5h9DUlLAIhVx9AjYcpKxMfJK2BnR4d9pFASCIBAwRNg473dO3dKcRgJ6HH9S5V59v3/frxXqlK4qaAJpC0A9JoVzxEp5V8ytgOQtYjduUO5i4KC/jKg8SAAAskJHCHPfz09PckvSnBWdrKTILuPDpuGFhutjwrAu3wlkLYAcGzrN8kjoPptJmEK8CMbE/vokSPSlrj52qFoFwiAgD4Cu96Rm/3zJEc2DkqK1nSaHUXKl2dTlInTeUIgbQHgQntdm3W0W9YnAP+oZH+QOtqBPEEABPKXgJVlx8GY61+13kYvkv7h3r2PqQ8pmL/diJaNIZCRALBn6xMUG8BUvtWEvWKxJkAmHTp4UPT19cncintAAARAIG0Cu96RX3Ls7RtIu5yMLozq2aKdUR1wcc4SyEgAiLXSUL/exDP57t5+KYi8JWfPTuV+iqTqgptAAATyk0BLc4tg5z8yiXc6sQZAQzq858XNePhpAFsoWWYsAEQj0ad0wOkhCTkSkVOR7f/Vr8TgoJxrYR1tQZ4gAAL5RcDK7L+zW7nt9EW4Joz/8utrZntrMhYA3n3xqWPkEu9t1TXlmXx3n5wWgMNq7tkFQVh1nyA/EAABIc6eOSMd9Y99negI/EP9YkaMiJbJGPq8cAhkLAAwGtOlR/LsoWUAFgRk0of7PhDDw3IRBmXKwz0gAAKFQcDKduPOHl2zf/HGey883VIYPYBW6iIgJQAEjciPqEJyLvyStCRCgz8vBcikMAUWenfPHplbcQ8IgAAIjEug/fx50Xzy5LjnUh0MhkJCNt5JqrzJeQrU/ykh4YJUBKQEgA+ff7pHGIIdAylPXawFIKNAmbTvvfdFIBCQuRX3gAAIgMBVBHZasPzv6tG2O2nEbUS3XFVZHACBDAlICQBchmlGtUigvJ4vu2UmGAyK9/a+myECXA4CIAACVxPo6uoSx44cvfpEGkc41Lkmv/9c+jM7t35fzmAqjbrjksIhIC0AiHb/84SpVQeqrt4+affA77/7LrQAOjoFeYJAgRHY+fYO6Rbz7F/WxXnKQk3Xf6S8BheAQBoEpAUA9j5lmsbfp1FGxpeEw6QF6Jfb1sdLAG+/+cuMy8QNIAACIBAn0Hr6tDgsGfKXnZrJPr/i5Sd53bFn2+Pbk5zHKRBIm4C0AMAl+MqH/9MQoj3t0jK40IoW4IN9+8T5c+cyKA2XggAIgMAFArwT6bVXXpXG0d3Tr232b0aNr0lXDDeCwBUELAkAO7ZsGaFNe/94RZ5KPoZCYengGax6e/XlV7T9CJU0EJmAAAg4ksC7e/aKrs5OqbqxM7OefrmdTGkU+P7eF5/gpVckEFBCwJIAwDUo9nq+TVoAufiYKZrQacGKljUA7BsACQRAAATSJTA4MCDe2SHv54ydmcn6Mkmjjpj9pwEJl6RPwLIA8NYz3x2ICuOb6ReZ/pVB8qJlJYTmW2++KUbgHCh94LgSBAqcwPbXXxcheu7IJB742ZmZlmSIQ3tWzP6ZlryRacESsCwAMDlf1PMv9CJntZcCfWe3/F5aNgh883/eSFECToMACICAEC0nm8XRw0ekUXRzPBNJT6YpCzWNvxaPPirnJjVl5rigUAkoEQB2vPidbnLdo2Vryijt7e8bkJctOFAQ+/JGAgEQAIFEBNj/yGuvvpLodMrjbPnfbWHJMmkBhjhZNtLydNJrcBIEJAgoEQC4XJfh+ga9aHHD197ZY0myZoNAjetyEthxCwiAgJMIcDCxXgt++60+o5KxMIX5d9u3bw8nuwbnQECGgDIBYPcLj58TpvEdmUqkuoel644ueTvDzo4O8f6776UqBudBAAQKkEAfOR7b9c5O6ZYPjwQsaSlTFHy2z6z6XoprcBoEpAgoEwC4dNNr/h29yFnQpKg+BwkKjMrHH9rx1lticFB+KSFF9XAaBEAgRwm8/uqrgoOJySTecnyuo1vm1vTuMY1/OLb1m6PpXYyrQCAzAkoFgL3Pbj5FxWuLUX2uoyuz1o25muMEvPH69jFH8BYEQKDQCRw/dkycPHFCGgNPTNhOSVPqNL1F/5+mvJEtCAilAgDzdBnib+hFi7XqSGCUXGzKO9lg156nWlhGQQIBECh0AmEK17v91dekMbDL8o7uXun7U99o/vPeZx8bTn0drgABOQLKBYBdL2zmfTTaQlW2ky0AW+zKptdeflmE6IePBAIgUNgE3qZlwf5++X375zu7dRoX95mhkm8Vdg+h9boJKBcAuMJRU3ydXmhnoPrErjZZCJBNPT094jXaFYAEAiBQuARY7b939x5pAEPDI5aclKUu2PjW3lcek3eCkroAXAEC6pcAmOm72zazD95ndfHlSFu8HCCbDuzfL9g/ABIIgEDhEWB3v9te2CrdcO2Gf0IMm57gP0tXEDeCQJoEtGgAYmVHhVa/1VYMArl+HO2rq0veqDBNvrgMBEDAQQTYH8gLzz0nAiMj0rXqIoc/QZ3LiKb4j73P/kAuGpF0q3BjIRLQJgDseXHzLgoSpM17FW8J7Lbgd5sNgJ5/5lnBr0ggAAKFQeDtX74lzrTKewblKKVWgpSlQbnTa3q1Tp7SqAMuKRAC2gSAGD/D9Uf0Km9lk6IT2AKXLXFlE4f8fI32ACOBAAjkP4HmkyfF7p3yDn+Y0Dky/OMlAF3JMIw/ZtfquvJHviAwloB77AfV788efX9w0rwlQ6QJWK86b86Pf4jsJbCirFQ6+472dlFVVSXqG+ql88CNIAACzibATsB+9pOfWtL4DQwNi06t2/7EW3u2bv49Z5NE7fKJgF4NAJGaXTbybXp5Xxe0/oEhMUSuOK2kV2lrYHc3hG4rDHEvCDiVAE8UXnj2OUuhwaOUx3mdHv+ECNPuqS8RQ33qBad2EOqVNQLaBYAtW7bQxj3Xb+n8Yre1d1oKFsR+AZ77xTPS7kCz1nsoGARAICWBHbF1/9aU1yW7oJ1U/yFJd8HJ8r10zjC/eXH31KVDeAMCugloXQKIV77t2PutU+YumSoMsSx+TOUrW/YGgyFRUS6/FDAyPCyGh4fEnLlzVVYNeYEACGSRQEtzi2ANn5XUPzhkyfdIGmWfLfJ6f+304fe0+RROow64pAAJaNcAxJkaIfGn9F7bvjten7OyK4Dr+asPPhSHDhyMVxmvIAACOUxgaGhIbHv+eUtGe7zdr61d22MrRpdspP7wrWe+K+/jPIf7CFXPLgHbBIBdr27uMo2YEKCtxewhMDAq7yCIK/bKyy+JHtgDaOsjZAwCdhCIr/sPk2ZPNnEeZ8516HT3K0gr+srurZt/JFtH3AcCVgjYJgBwJfe+sPk7JO2+Y6XCye7lH2yrxR9siJYSnnvmGVpSgDYuGWucAwEnE/jlG2+K1tOnLVWRff1bCUGeRuFBki5+J43rcAkIaCFgqwBALTCFETMIlN+8nwIDO+o4S0aBVlJnR6d45uf/bSnokJXycS8IgIA8gffefVfs2bVLPgO6k9f9OdSv5vQPe7Y9dVhzGcgeBBISsMUIcGzp5Bvg3JT519eS7mvF2OMq37NBoNvtEiXFRdLZ9vf1xbYGzps/X5BzDul8cCMIgIB9BA4fPCRefvFFSwUGaRJxuq3dku1AqgrQXr9mX9nI51sPHAinuhbnQUAXAbs1ALF2uMzoX9Cbc7oaxfm2d7I9gDU1/tHDR8TrFDMACQRAwPkEWpqbKcjPC5YqemHdv13vuj/V0DCN39uxZYt8QAJLrcTNIHCBgO0aAC72zLEPRyfNX9JG8+rP6uyIIQr4UVVRZmkGf/7cudj9U6dN01lV5A0CIGCBAP9Of/7Tn4qIBdfgXDyv+w8O6R6XjWf3bHviUQvNxa0goIRAVgQArnnb0X0fTp675Haygp2lpCXjZML+AdgmwIqrYM6WjYlKyd3whIkTxykFh0AABLJJgHft/ORHPxajFncA2bDfnzGNeEzXx1uPvd+bTWYoGwSYQFaWAOLoo27zt+m91nB8qox5Xnv5FXHs6NF41fEKAiDgAAIxH/9bfiJGLIT35WbwREH3fv8LuMyvvbPt8eYL7/E/CGSXQNY0ANzstqMfdJJBoI9WxG7TiYFjBZSV+oXHY625x48eE1OmThUVlZU6q4u8QQAE0iDAM36e+ff29KRxdeJLeN3/1Nnzel39Xih+/0hZ4KGOAwe07YJK3EqcAYGrCVgbEa/OL+Mj86fUvBn0Vq6mG6dnfHMGNwyTEGDVHoAfFCwEzJo9W/hL5d0OZ1BtXAoCIDAOgTD55f9vWvM/f+78OGczO8QGw+xJVHMadovImvd+8UOtxs+a24Ds84xAVpcAmOX27dvD9MP4Ar21tnk/RcewS0/26sWDuJXEs46fkcqRtwkigQAI2E+Af8PPP/OsONN6xnLhvf0Doruv33I+qTIwTPO3d279/oFU1+E8CNhJIOsaAG4s7Qronzxvya/o7f30p23TPe/vDZGVcHmZn4uVThw98OSJk+Kaa64RXq9XOh/cCAIgkDkB3ud/5JB1/zk86z97Xuu8I9Y4eqA9sXvbk49m3lLcAQJ6CThCAOAmnj2279iUeUtK6O3HdDZ5lFz88u6AMj8XJZ8CgYA4feqUmLdgAdkWeOQzwp0gAAJpE3jj9e1i3/vvp319ogt5SbCVnP3oTuT69IDpKf5U25G9Wo2ddbcD+ecnAccIAIx3/tTq7XbYA4wERoWLvPv5S4ot9SpHGzt5/HgshLCvSN7roKVK4GYQKAACrPZ/+cWXlAz+PAlgoz+ry4FpYB/2iMjdu59//Gwa1+ISELCdgKMEgObm5ui0ede+bArXJiJhTU+fAiXvDPB5PaK4iDYhWEi8/Yg9Bs6cNUuU+LVW2UItcSsI5C4BNvh7ngJ0HT50yHIjeLtfy9lzFOcjajmvVBnQuv8ju7Y99XKq63AeBLJFwFECAEOwyx6AyxocHhHFFC/AZ3EdnyMHsg/yqdOmivLycs4aCQRAQAEBNrpla/+W5hbLuYUjEXHqjC3b/diQCev+lnsMGegm4DgBgBtslz0AlzU4OCxKyR7Aa3Edn2cph2iG0tDQIKqrqzlrJBAAAQsE2MkP7/NXsdWP7X5Y7T9KgcJ0J6z76yaM/FURcKQAwI2zyx6ANwWyNXA5OQpyu63h4IfMkcOHRUVFhagnQQAJBEBAjkAPOff5yQ9/ZNnJD5fOa/1s8Me2PzYkrPvbABlFqCFgbcRTU4dxc7HTHoAfEBwAhGMGuFzWXCNwXsePHaPtgR4xecqUcduGgyAAAokJcGAfnvmzka2KxFv9eLnPjoR1fzsoowxVBBwrAHAD7bQH4Nn7ED0kKsrLYjsErAI+1dIigsHRmHGg1bxwPwgUCgEO6ctR/awG9onzOtfRJfoGBuMftb5i3V8rXmSugYCjBQBur532AGwZzPuDK0kIMGiboNXUdrZN9Pb2xLYJqsjPan1wPwg4mQAb0j5H1v5WQ/rG29jZ3Su6evV7+ePy6HFxOOopvg/7/eP08ZoLBKzpu21qYenIqa9SUb+0ozheJ2wll8Gq0qEDB8V//+xnFG1Mv/GRqjojHxCwm8B7774rXnjuuZiTLhVls4vfDhIA7EjsU2Tm1MnG/PmTsQ/YDuAoQxkBx2sAuKV22gNweRw3IEjWwmwYqGLm3tfbK061nIoFEfL5rPkd4PohgUC+EGCbmV++8aZ4+5fq5Hse/O0J7XuhFyY11FG00ZJaV8Rct/jWO37yqx3btUcWypf+RzuyS8C6ntvG+i9f9/AqYUS3UZG2uN1jT4HTJjVYNgyMI2JHQevvvUfMmDkzfgivIFCwBHib39bnnhetp08rY8Bqf7tm/lzpmqoKMaGuZmz9Pwj7XHf+4BuP6g8yMLZUvAcBCQI5oQGIt+vssfebJ8+/4SB9/jX60y68hGhvPxsGcvAgq7sDuA1h0iwcPHCA1JwRMW36dCXaBc4XCQRyjUDLyWbxs5/8RHR3dSmr+rmOblrzty9KJ+8a4tn/FWkCawJuaLp5y77dv7Rn68EVFcBHEEiXQE4JANyos0f3HZw0//p2QxgfT7eRVq5j72HsJ4BUfJb9BMTrwWFMT586LWbMmimwJBCngtdCIMC7bVjd/8pLL8cEYhVt5mUE3upnl7U/15mdh02dWJ9IiJ8gDPdaCAEqehd56CSQcwIAw2g7+sGeyfOXsAZgFX/WnfihNXDRY6DHowbZQH+/OLh/v6irrxdV8ByouwuRvwMIDA4MiF/8/OeCDWNVJf5tstHuIAnpdiWOHzJ98oRUWsGJEALs6hGUI0tAzWgmW7qF+0gTsH3yvBsmUhbLLWST9q1RmmX0Dw6JkljsADXhf2Pug+lhGImEKY7AtESzibTriAtBwKkETp44QSr/n4qe7m5lVYywb39y72uTh79YvTluyPQpE9PVBkIIUNbbyEgHgZwVABjG2Qc/vXXyme5ryRxgkQ44V+bJqkYWAnw+ryhSaM1/9gwvCZyKGQcWFdli33hl0/AZBLQQ4Bn6m//zhnj9lVcFC7yqUiyqHwX2scO3f7zOHnIVPoMG/wzjhkw0hXsNLQf8BDYBcZJ4dQoB7YZ0uhs6d/2Xi6pEL+0MMFbpLmts/hPqa0RNZcXYQ5bfF5eUiHX3rI9tF7ScGTIAgSwT6KdlrheefVawQyyVaZSib/LMPxyOqMw2aV5sBMyDv2z4cJo7vF/kdd35nX96VJ0KJGmNcRIEUhPIeQGAm7hi/QMVEeH+H3p7Q+omq7uirrpS1Neqj/zX2NQkPnbbranWGNU1BDmBgGICHA/jpa3bRCAQUJoze+o8TYF9WLNgV2JfILzmz9uCrSQIAVbo4V4dBPJCAGAwTfc8TKq26NvCFLN0gEqUZ1VF2XhbgRJdnvbxSZMni7Xr14nqmsv2GKd9Py4EgWwQCJEDrV+++aZ4nzz7qU68G+cMGfzxUpydaQpZ+/OWPxUJQoAKishDFYG8EQAYyLK1D851u1xv0ePB1li87DGQHxIqvAaO7VgOT9zYtFysWLlSeDxqDA/H5o/3IKCSwNHDR8T2118XbO2vOtnt3S9e/4n1taK6sjz+UdXrez6P6y4sB6jCiXxkCeSVAMAQlt37UKMrar5Ob5X/apNB5rXBKRMbhI/CAKtOFZWVYtXq1RRUaI7qrJEfCFgm0NvTK1579RXBzn1UJ57tt3f2iO4+e4L6jK1/XU2VqKc/TQlCgCawyDZ9AnknAHDTm9Zuust0iefpra2O99lQaFJDrTJ14ZXdOHvOHLHqztWikgQCJBDINgG26t+9cxf97aStrOoN8oKhMKn820VgNGh7U6sqymO/Zc0FvxcJB+98+t//pkdzOcgeBMYlkJcCALe0af2mz9NSwNP01vaIh6wyZP/gqpcEuF28FHDjTTeJ5Tc2pbsXmW9DAgGlBJpPnoxt7eulQFc6Em+35YA+dhr7xdvBS3pTKQaITeldEgLughBgE20UcxmBvBUAuJVN6zZ9yTTEt+it7e28sCRQT0sC3suAq/rA3gNX33UnAgupAop80iIwQOv72197TRw7cjSt6zO9iFX+5zu7RU+fejuCdOrClv5s8a9DeE9SPoSAJHBwSh8B2wdGfU0ZP+fl92zcKEzju3RW/eL8+EVeOqp7SYALmr9ggbh99R2irKzsUrl4AwKqCfBM/N09e8Q7b+8QIQpqpSNxGG628s+Gyp/bo8uYN01WEALSBIXL1BHIewGAUS1fv2k9vfyE/vz82e6kc0mA2+Ilz4Qrb75FLG1cBt8BdnduAZTH4Xpfe/kV0aUwct+V2PoHSOXfkR2VP9fFpjX/K5t95ee9tBxwN5YDrsSCz7oIFIQAwPCWrX/4JpeIPkdva3XBTJav7iUBLru2rk7cfMstYu78ecmqgnMgkBYBHvB30oz/8KFDaV0vcxGr/DmML2/zy1bSbO2fabMgBGRKDNdLEygYAYAJNa55+BrDHX2J3k6TJmbhRjuWBLh6tbW1MUPBBQuvsXst0wId3OoUAu3t7WLXjnfE0SNHtFYpSE6DOJIfu/bNVtK0z99qc/a63a67Hv/nR/VYWFqtHe7PGwIFJQBwr5Hb4KnkNphiB4jF2epFVjdOpFgCug2NqqqrRNOKFWLR4sVYGshWZ+dQuWfPnBW73nlHcOQ+3alvYDA288+GlT+3jX97kyfUaduyq4DfHhIC7oYQoIAkskhIoOAEACZx3b33VxdFPM/R3oCbE5LRfIKjCU4l74EcWVB3Kq+oEE20bXDxddfBo6Bu2DmYP0ei3Ekzfn7VnaJRtvLvIpX/oO6iEubPmrhptM3Pqm//hAWoO6FOCHj0UVfjOyduJrlnPT33ZomooFDFseXQXl6FMVyihXZMbZ3tH3ljy5Yt6p06qGOCnBQSKEgBgPmt3LChJDxY8mPyFfBxhTwzyopnIbVVFYLXIHVrA7hipaWl5Fq4SVx/wxLh1bQ9MSMAuDirBHimv3PHDuXR+hI1amBwOLbFL6QwLHCishId55C+02ibn2xUv0T5ajxuSQiITXZMz1coRsoXqY51adSzk/QjT0WE6+vvbf1eRxrX45IcJlCwAgD32apVqzyDJdMfo7f848ha8pL74InkOKiMHJDYkTjs8LLljeKGpUtFUVGRHUWiDIcQYKM73sO/k1T9HbTWb0dij37nycJ/cHjEjuISlsE+OXiPP//ecizJCAFG0z2bfpe6+/+htspEFBswTePvygMtf7N9+/ZwjvFCddMkUNACQJwR/VD+mn4ofxr/nK1X3ofMHgTtekDx4M9CwFISBkpIKEDKXwK81n744CGxi9z2dmvczjeWIAsbXT19opP++H02E8/4eebPGoAcTbvJJmBNOjYB16/ZWOrzGJtp1v8Zy201xCujRvhzHz7/NNwVW4bpvAwgAFzsk+XrN/4+qb7+kT5mlQkvBfCSAC8N2LEswM3nqIOz5syOGQvOmj0bBoMXvxP58NJ+/rw4uP+AOHTooBimcLp2JZ7t86yfZ//ZTqX+kpi9Da/953jaHRgdvXvLY3/bl6gdsbDoZvRFOn99omsyPU6i21Gv6VrzzrbHmzO9F9c7m0BWBzunoWm8Z9P9hikep3rpt8xL0XhWV/JOAX542Zl4eWDBNQvEwkWLxaTJk+wsGmUpIsDheA8eOEh/B0RXJy3p2ph4fZ9d+fJ6vxNSRVlpzNrfLmHahjYnFAJig7+Ivk4z/2s01KPFY7pWQQjQQDaLWUIAuAJ+4/qH1hjC/CkdLrviVFY+8gOMlwU8HvtVlxxvYOGiRbG/yipEIMzKFyDNQkO0p5737R88sJ+s+U/brnJnFT+H7O3s7qUAPtlV98eR1ZAWjX87eZh2kSZgzVhNgObBP44QQkCcRJ68QgAYpyOX3btxoStq/JhOXTvOadsPseqS45KzS+FszWSmTJ0S0wrMJ+0ADAdt/wqMWyAPuqeaW8QBGvSPHT0mwpp89I9b+JiDwyMB2tPfRQ599MQIGFNUWm9dtIw2kcJyV5Y7QoZPq84SF10SAlbc94UJkZD3dcpjoUQ+md4CISBTYg6+HgJAgs5p/MQjfiMc+Cad/o0El9h+mH0HTGyoEf7iYtvLjhfI9gKz58wRCxcvErAXiFOx97WjvSM20z9Eav6hoSF7Cx9TWjgSEe2dPYKd+jgl0dh/eObUyQYZ/c13Sp001mPXubPnH+wZHvkFlWHH4B9vSkuFEb79tReebokfwGtuEoAAkKLflq9/aJMQ5rfpstIUl9p2uqK8VNSRl78iG5wIJWtUMQkiM2bOFNOmT4/9sedBJPUEAoGAOHO6VZwiRz2nWlpss+JP1BLeUdBN4Xq7ybo/Qu+dkuhh9kTUU/yl62fWlkaE91VaiLjOKXXTUY9wONJ1rKW1jzRBs3XknyjPCm/0g2c+dtBT6o3ca/zB+82JrsNx5xOAAJBGHzltSSBe5fIyf0wQcIpTk/Ly8kvCwLQZ0wV/RsqcAK/nnzlDA37LKdFKgz775s/2NjpuRSTCA3+/6O7tp3V+5wz8VLVhWg350t5tm5+I0/7il79Sn89CQDYH/2dvPTjH747yhKhFGOYqCAHxb13uvUIASLPPnLgkEK96Ge0U4K2DJcXOcurDGoG4doBf/X57HB3FueTKa5gs59vOnhWnacA/ffqUONd2zlEDLA02oqu3LxaxzykGfvG+NYVxwCPCG3Zu/f6B+LH4a74KARcHf3Lha86Jt9WOV575jxn840VCCIiTyMFXCAAZdpoTlwTiTWDf5iwIlNKrExOHK2ZBYDr9TZk2VfASQiEmnj2fa2uL+d7nWT4P/hFaT3da4i197MiH/fY7QQNxJR96eMVU/nuffSzhnsN8EwIcNvjHuwRCQJxEjr1CAJDoMKcuCcSbwpoAthEoK7XXh0C8/HRfOUhRTU21qK6pvfhaQ+9r8mbpYHR0VPR0d9Oafbfo6aFXet9D73t7ex054Mf7LUi7CXjg7xsYcuTAT/W8SuUfr/t4r/kiBJDRZdex5lanzPyvRA0h4EoiOfAZAoBkJzl5SSDeJLYNqK2udHLI03hVL3vlQEXV5IOAhQH+q+HXWvqjY04LYsQz4z5Sj8cGeB7oecDngZ7+hocTTkwva69TPowGg7SPv0/0D2ZvZ0EqFslU/snuzXUhIFuDf01x5NDPbz407eKafzLEfA5CQCpCDjsPAcBihzh5SSDeNN4twIJAPuyLLiPDQtYaVFRUUihln/DSH7/G//hzEQk+lx338ufkzh15HT5EA2CQDPCCsdegCIX480d/F85f+MxudXmg73P4bD7+HUj2OhIYjc34B2x0FZysPonOpaPyT3QvH89VISBbg/+EsujxH/1+aHbp+W5DNKftURJCQLIvocPOQQBQ0CFOXxKIN5GDDNVUVgjeRpjDQVHizcn4dayQwM6VeHCPD+oOs2rPuG2Z3sCai8GhEdHTPyCGshylL426Z6TyT5ZfrgkB2R78/SWu2BhhsAAAISDZVysnz0EAUNRtubAkEG8qexNkQ8HKijLBEQiz5V0wXh+82keAZ/vsuKef1vedtIc/CYH9bhH53HhW/knuSXoqV4SA7A3+kWM/+v3wnPjgH4cJISBOIn9eIQAo7kuOJUCOg75FYOcpzlpLdjwTriB/Arw8wLsIkPKPQIgi8vGgz0Z9bOCXI2mEfkdfGykL/P3+LVuCquvsdCHAaYN/nD+EgDiJ/HiFAKChH+eu/3JRpej7Y4L7Fcre2ab4Y9rv9XhIECiNCQO+FGvmY27DWwcS4Nn9ABnz9fUPiWHyJJhbyXjWYxq/qzvy3Bf+6NE6TzD6KrFRFjpXBWce/I+3tPaQz4W5KvJLN48JZePP/K+8H0LAlURy9zMEAI19d+OajbOiHuObFJ7zXo3FaMm6pKiIlghKYzsI2P8/kvMJ8Lo+r+fzTJ8N+py4dz8ZRXLd22yYxu/t2fbEM8muU3nOaUJA1gb/Uhr8/+BqtX8i1hACEpHJreMQAGzor+X3bPokCQH/QkXNsKE4pUXE7AXI0yBrBmAvoBStsswoNGxspt9HM34nOhRKo6Gs4v8Hb9nIX+3YsoVU//amTb/9lVrT5WVNwBJ7S768tFwZ/OO1hhAQJ5G7rxAAbOo7NhIUoZGv0oD6R1Skz6ZilRbD9gJsPFjqLyZ7gZKsByNS2rgcyowH+SEKwctheIeGA7m0rn81ZUO8Qn6Pf2fPtqcOX33SviMsBEQN7ytkH3uDfaV+VFKuDf7xmkMIiJPIzVcIADb3W+Oah69xuaP/RurO1TYXrbw43kroJ2EgJhSQQMDbDJHUE+AtimMHfHbYkwfpLD18/nD31s0/ckpbfvMPHq0ZDUVftVsI4MGfPPx105KNrYbDMd/+dx6bW7J8il+UyM9JIAQ45RuceT0gAGTOTMkdy9c99AWKpPUNymySkgwdkAkbEV7QDrBQUCI8HtgOyHRLlNbyR3h2z7N8muGPkIo/j1KYvvffLPJ4/9+3nvnugNPaxUJAMBx9heq11I66kTan62i2Bv94VL8ijzBvmE7myhAC7OhzJ5UBASCLvbFi/QMVYeH+S+qE36Fq5N1oyTsJWDvA2wv5FcaE43/Z2FiP9+fHZ/n8PtcM+MZv2VVH34pS2N53t23+4KozDjpwUQh4maq0TGe1HDH4xxsIISBOoqBeIQA4oLtvXPvgkqjL9e9UlZUOqI62KnBsAv7zka9/Fg6K6JWXDQrJERGH1uW9+KPscvjiK8/2edafx6mT+viPd7/wxOPUxpxo6P2/9afVbo+PNQFahABHDf7xLx6EgDiJgnmFAOCcrjYa123aROuPX6Uq2br/N5sIePDnpYO4QODz0fuLAkKuuivmwTwWU4AGeH4dvfgaJIc8BeZymPYiiv/wmt6v7XjxO93Z/J7JlH1RCGBNQKPM/YnuceTgH68shIA4iYJ4hQDgsG7esGGD+8RQyecNU/wZVW2xw6pna3XctOuABYO4QOAjbQEHNuKlBN6R4CLhIRuJ1fPkpCXmSjfEs/gxAzwP+CEKLFTgqU8I41vm/9/e3QfJTd93HP/+9vb8dD472IZgKLZ5KIZmkhoMpiQlPUgHm5RAhgxpJvUDLRnaCR0SkzTMJJmp0wFSMkkgDTMt/FNqaCm40+KQloeh5uikgQBnXxnc4Ab8/BCwje07P935dn/96ozsXXl3Je1KOkn73pkbraSfpN/v9Vtbn5W0UnH4gb6nHw/8FJk0mt3y1RUfKpXKTgi4LIr6OTt/veBvr4bEC6NYX9B1jF7w557z91uIEOAnlJv5Y/M/aG74Ym2ImX/d4huNFL6lW4nkP59YaztGK3eCgBMUCvrMEjcUjA59pjkffOebuvON3NmZHx/q+4ppzt30Tsy3J9/n9Px8FD2oO3v7gD028cG+Fx7WEJCPV1QhIBM7f7fLCAGuRK6HBIAMdO+li5Ys1J3ct3THc1UGqksV209gp1jzfds5/qG+px8+nMfmfxACnte2Xd5M+zK183cbSAhwJXI7JABkqGsvXbj4qtEgILIwQ9WmqnkVMLJJynLffjP1kbef+XGufqtYq8tuvu2uqRPGj3dCwIJa8+tNy+TO320MIcCVyOWQAJDBbl3w6SWXla1zasDeqNWnDzPYh5muspG39Bv/dycf2fJPvb29bXXBw2gIGDf+Of1Xd0WQPjy+89+2R88yzQ1SPqoyoc75+22UEOAnlNn57Dwy23V6LHLhso9IwX5Tf1f1h9qM3N1HIMNdk9eq92vD7nn9ivP+VVasKOe1kX7tChoCcrHzdzEIAa5EroYEgBx0p54auKDDFO6yRpZpczpz0CSakC6Bl23Z3NP33D/8e7qqNXa18QsBudr5u8yEAFciN0MCQG66Uo8IXPvH50ix9GW9kH2xNus3ctQ0mpK8wFHd5Gqxhb97/dlHepPffPq3WC8E5HLn73YHIcCVyMWQAJCLbvQ0YsWKwuUvb7zGFuwSvUTgczq3y1OCUQRqCVi9MdPPymJXyvCEVXn6KV+txkYxzRsC9J4Be97ZvG1PydqLolh/0HVEes7fb6OEAD+hzMwnAGSmq5qr6MeuXdKlN9e7SYPAUr0rm/MEwkJza2KpHAu8rdeRrOwo2cdeff7RTTluZyxNc0OA3jfi/Nzv/F1BQoArkekhASDT3Reu8ldev/Ts4ZJzesAsNWJ/K9zSlM6TgP7D32fFPFGwduWrz658OU9tG4u2LPrCV+fsHdj3jN6rI7/f/L2whACvSObGCQCZ67JoKnzpHyybb8p2iX4AvqhrPD2atbKWlAsc0/o9o09fWrnfTvlpO/x2P4n+uHLhrdOOFY69oNtK5BHCbpsSPezvbtQ7JAR4RTI1TgDIVHdFX9menp7iwKRZizr0qIB+e7lBtzA++q2wxrEVsK/pt/1HpXjs8azfm39sHU/delvv/F2OKELAJr2L9JbAj43YIsb2mOX9m90qMGxOgADQnFsul5r32Vs+1DlkP683OVmsYcB5NHExlw1ti0bZjfprkCek3LGy7/lH3mqLJifcSHb+FeCEgAqM7LwlAGSnrxKt6Sdu+JPuo0OlTxpjr9FA4Fw8+Nv6x+cl0V4ItbGdVuyLRsyaoi2seeXZRzaHWprCoQTY+dfgIgTUQEn3JP5DT3f/pKZ2Cz61dLrttL9npaCBQEOByMWpqVx7VsQ5Xtqrh/bXGFta8/qzj21oT4bkW93Tc8uEgxPLvbrlQLcDjqqGqTjn79cYQoCfUKrmEwBS1R3Zqcz8hYtn6nN4r9ZvnBoGNBBYOTc7tc9kTQf0AMxL6vxiQXf4rz732BvaCv31Hq+EBcxl1y19XLfp3H47sVcmdv6uBiHAlUj9kACQ+i7KRgV/Z9Etc0oFe7UehnbCgHOE4Kxs1Dy1tdTH6pr/1msx9Bu+rDl3ypG+VatWlVJb2zap2PxFy+7Q02I/SrK5mdr5uzCEAFci1UMCQKq7J7uVu2zR4rnWdFxjpDxPd2RztSXO35nZbVGsNT+kRhv01MoGvef+/xYK8l+Huw6/sn7VquFYt8rKQwlccd0fTSlJx0ZdaHqoBVsonMmdv9teQoArkdohASC1XZO/ijn/gZZtpwaB8lx9iqEOC3P1G64TDH5T/ybmr8VVLSrrJZRbpKw7eaM7e93hWylvGN9hNrz805U7qkoykkqBy65bdreeddHHcCfzyvTO3yUiBLgSqRwSAFLZLW1XKXPJp784qzAaDuxcY/WIgRMQjj9D3XmoUZY+p/u1vrqDt6M7eb3pjn6zL2+YfKjj7d7eR5wH7PDKpoBz7t8JajOTqH4udv4uFCHAlUjdMEv/saYOjwrFLzD/M7dNKpSGL9Qd6oX67XlG2Ui3XnjYbUy521rTrdOnaD7QoXj/dHrT9zFwLq47qH+DGj0GxNpB3eag/q5+UJ+kMKjn5Af16vtBPZIxYG1Bh/aAteWNI9ZseOP5R9/T5XjlTGDBoqVX6mfv50k0K1c7fxeMEOBKpGpIAEhVd1CZKAWcn2sdmGi6iwUNDCPD3SMiUwrGCQ9OYDBFZ4duO+xgh+7gdXxAn+Q2eHRoaHB97yo9J88V9lH2RdbXpd/+79E2fDPuduRy5++iEQJcidQMCQCp6QoqggACaRWYv2jpE8bI5+OsX653/i4cIcCVSMWwkIpaUAkEEEAgxQK684/1Z61tsfN3+ndoREz/VpEjzf/AxZ47Q2S2/gV7zRZreu398+YEK95epQgA7dXftBYBBJoTOKO5xfyXapudv0sRWQgI/GtMQoBr7xkSADwgjCKAAAI1BPbWmNbypLbb+btikYQAfYr5bEKAS9rMkADQjBrLIIBAuwlEfq+Gtt35u58cQoArMWZDAsCY0bNhBBDIjoBx7gAY2avtd/6uJCHAlRiTIQFgTNjZKAIIZElAb2n9H1HVl52/R5IQ4AFJbpQAkJw1W0IAgYwKzJl89GdadecRzC292PnX4SME1IGJdzIBIF5f1o4AAjkQOP4kRvNYK01h5++jRwjwAYp+NgEgelPWiAACORQoSeFebZbeNTL8i51/QDNCQECoaIoRAKJxZC0IIJBzgXXP/P1uff7E98I2k51/SDFCQEiw5osTAJq3Y0kEEGgzgfO6D39Xm/x80Gaz8w8q5SlHCPCAxDPKswDicWWtCCCQU4H5v3/bVNN59GVt3sWNmsjOv5FOwHmRPDtgt8iWwPdx2iLG9pjl/ZsD1jDTxTgCkOnuo/IIIJC0QN8LDx/okNK1ut136m2bnX89mZDTORIQEixccQJAOC9KI4AAAvKLZ/5xuyl1XK1PjT7lBkHs/CP+gBACIgY9uTpOAZy04B0CCCAQSmD+Z5bOMiXpFSvnOguy8w/FF64wpwPCeQUoTQAIgEQRBBBAoJ6AEwJkRF6a2lkeePqqX54/qaPcVa8s01sUIAS0CFi9OKcAqj0YQwABBEIJ9D29cutUM9Lzk9/9ZZGdfyi68IU5HRDerMESHAFogMMsBBBAIKiAvX/eHLGmV8vPDroM5ZoU4EhAk3DVixEAqj0YQwABBJoWIAQ0TRd+QUJAeDPPEgQADwijCCCAQCsChIBW9EIuSwgICVZdnABQ7cEYAggg0LIAIaBlwuArIAQEt/KUJAB4QBhFAAEEohAgBEShGHAdhICAUNXFCADVHowhgAACkQkQAiKj9F8RIcDfyFOCAOABYRQBBBCIUoAQEKWmz7oIAT5A1bMJANUejCGAAAKRCxACIietv0JCQH0bzxwCgAeEUQQQQCAOAUJAHKp11kkIqANTPZkAUO3BGAIIIBCbACEgNtpTV0wIONXEM4UA4AFhFAEEEIhTgBAQp65n3YQAD0j1KAGg2oMxBBBAIHYBQkDsxCc3QAg4aeF5RwDwgDCKAAIIJCFACEhC+YNtEAJqYhMAarIwEQEEEIhfgBAQv/GJLRACTlC4bwgArgRDBBBAYAwECAEJohMCqrAJAFUcjCCAAALJCxACEjQnBJzAJgCcoOANAgggMHYChIAE7QkBo9gEgAQ/c2wKAQQQaCRACGikE/E8QoAQACL+TLE6BBBAoBUBQkAreiGXbfMQQAAI+XmhOAIIIBC3ACEgbuGK9bdxCCAAVHwOeIsAAgikRYAQkGBPtGkIIAAk+BljUwgggEAYAUJAGK0Wy7ZhCCAAtPiZYXEEEEAgTgFCQJy6nnW3WQgoeJrPKAIIIIBAigTM8v7NYmyPVmlLiqqVz6oMjYjp3ypyZLjp9tlzTxeZNT3o8rPFmt7RkBd0iQjLcQQgQkxWhQACCMQlwJGAuGRrrDeKIwEbd4ts3Vtj5TUnbXFC3mjYqzk7nokEgHhcWSsCCCAQuQAhIHLS+itsgxBAAKjf/cxBAAEEUidACEiwS3IeAggACX6W2BQCCCAQhQAhIArFgOvIcQggAAT8DFAMAQQQSJMAISDB3shpCCAAJPgZYlMIIIBAlAKEgCg1fdaVwxBAAPDpc2YjgAACaRYgBCTYOzkLAQSABD87bAoBBBCIQ4AQEIdqnXXmKAQQAOr0MZMRQACBLAkQAhLsrZyEAAJAgp8ZNoUAAgjEKUAIiFPXs+4chAACgKdPGUUAAQSyLEAISLD3Mh4CCAAJflbYFAIIIJCEACEgCeUPtpHhEEAASPBzwqYQQACBpAQIAUlJ63YyGgIIAAl+RtgUAgggkKQAISBB7QyGAAJAgp8PNoUAAggkLUAISFA8YyGAAJDgZ4NNIYAAAmMhQAhIUD1DIYAAkODngk0hgAACYyVACEhQPiMhoJAgCZtCAAEEEBgjAbO8f7MY26Ob3zJGVWifzQ6NiOnfKnJkuOk22/NOF5k1Pejys8XKf9oHFwRewFkxASAoL+UQQACBjAsQAhLswMRDgDlPho/9i31ofmfQVhIAgkpRDgEEEMiBACEgwU5MPARIjxwq/03QFhIAgkpRDgEEEMiJACEgwY5MPgT8mf3hvC8HaSEXAQZRogwCCCCQQwEuDEywU5O9MFAvQjALzfK1axq1kADQSId5CCCAQM4FCAEJdnCyIeB9GSksMN/oe6deCzkFUE+G6QgggEAbCHA6IMFOjup0wJlTg1R6mhTL/2ZX9BTrFSYA1JNhOgIIINAmAoSABDs6ihBw4ZkiUycGqfRHZcqBL9UryCmAejJMRwABBNpMgNMBCXZ4q6cDhvU0f5/e0mHomF+l35XxwxeY29cf9BbkCIBXhHEEEECgTQU4EpBgx7d6JGBcUexHzxbp8N2Nf1iOjv96rZZxBKCWCtMQQACBNhbgSECCnd/qkYDdg2LW7/Cr8CEZKV5gvvHarysL+kaHysK8RwABBBDIvwBHAhLs41aPBJzeLTLT96LALimO/KW3VQQArwjjCCCAAAJCCEjwQ9BiCLBz9LkBBd8D+l+yD3xsbmWrCACVGrxHAAEEEDghQAg4QRH/m1ZCgJ5GkLNP86tjUcqFv6osRACo1OA9AggggECVACGgiiPeEScE/M82keFS6O1Y58mBxQ6f5cwN+rCgSW4hAoArwRABBBBAoKYAIaAmSzwTjx7Ti/q2i5RtuPV3doidNc1vmQlyuHStW4gA4EowRAABBBCoK0AIqEsT/YwDR8T86t3w63VOA+jPAxu/Cje68wkArgRDBBBAAIGGAoSAhjzRzty1X2Sn/oV5OfcE8LtNsLXX2ydvHj1XQAAIg0tZBBBAoM0FCAHJfQDMpt0iI+VQG7QzJvuVnyHb3/m4U4gA4EfFfAQQQACBKgFCQBVHfCPHSmK27Q23/m59RsA4v4sB7ehpAAJAOFpKI4AAAgioACEgoY/B9n36q4CR4BtzbgcwzfcowGgA8L1zQPCtUhIBBBBAoN0EuG1wAj1+zjSx558RfEN79PbAb/rcHtgUz+cIQHBSSiKAAAIIeAQ4EuABiWNUd+ihXqd1BbgzYGkOASCUKoURQAABBLwChACvSMTjR/SRv4eHg6/U+TVA9wSf8uWZBAAfImYjgAACCPgLEAL8jVoqEfYogN/9AKycRQBoqUdYGAEEEEDAFSAEuBLRD837h8Kt1C8A6DMECQDhSCmNAAIIINBAgBDQAKeVWXqL4DAv6xcAjOEIQBhQyiKAAAII+AsQAvyNQpcI81NAZ+V+AaDMEYDQfcACCCCAAAL+AoQAf6NQJZyHA+mNgQK//G4GZLgGILAlBRFAAAEEwgkQAsJ5+ZYOcxTA7wgA1wD4clMAAQQQQKAFAUJAC3jeRU2Ie/f5P024xEWAXmDGEUAAAQQiFSAERMTpd1i/cjO+RwvMLgJAJRjvEUAAAf/IO0QAAAZKSURBVARiESAEtMha0G//Rb+H/FRswzcAyE4CQIUXbxFAAAEE4hMgBLRgO74YamHjGwAsRwBCiVIYAQQQQKAlAUJAk3wTx4VbcMj3CYIEgHCilEYAAQQQaFWAEBBe0E73fcRv9Ur9jgBYTgFUgzGGAAIIIJCIACEgJHPYADDkc+fAgnAEIGQXUBwBBBBAICIBQkBAyK7xIhM6AxbWYs4Ngw4NNS7PEYDGPsxFAAEEEIhXgBDg72vP6PYvVFli70ERv/sA2OJGfgVQicZ7BBBAAIHEBQgBDcg79ad/Z09rUODUWWaPBoBGL2veNF97bRsBoBES8xBAAAEEEhEgBNRmtrOn6+//Q+yqnWcG7PN5dLCxTzlbC7HW2pVjKgIIIIAAAlEIEAI8is55/7NO80z0Gd1/WKRUblyobAgAjYWYiwACCCCQtAAh4KS4veDD+jU9xP3/dVGzZ/DkCmq/22a+vrbPmcURgNpATEUAAQQQGCMBQoBewzdnhsiMkL/9d67+f2/Ar9dWuwUIAK4EQwQQQACB1Ai0dQg4Xa/6dwJAyJfZuldkxOfwv5XRw//OqgkAIYEpjgACCCCQjEBbhgD9zb+9aGZ4YOfWvzv2NV7OyD4ZnPqSW4gA4EowRAABBBBInUBbhQBjxF6sO/+O8Ltms3mPiPMLgMavfzYrek88JCD8VhqvnLkIIIAAAghEKtA2IeAc/b3/5Anh7Q4Pi/z6gN9yh2VY7q4sRACo1OA9AggggEAqBdohBNhpXU3Zm0279apBv2//5gFz17qdlRsgAFRq8B4BBBBAILUCuQ8Bk/We/2FfO/eL7Pb96d8eKXbe5101AcArwjgCCCCAQGoFch0C/K7g9/aK3vTH/Opd79Qa4/Zuc8cvTvl9IAGgBhWTEEAAAQTSK5DbEHDQ5wl+lV1y9JiY9TsCHPqXTTJw7G8rF3XfEwBcCYYIIIAAApkRyGMIMDt9fsbn9o7e6te8uf34Y3/daXWH9ttmxXq9SvDUFwHgVBOmIIAAAghkQCB3IeB9fYjPLj2n7/Myb+0SCXa04OeyvP/xeqsjANSTYToCCCCAQOoF8hYCzP+9K2ajXtVf6zf9R4bF9G8NctGf0287ZKT4OefWAvU6MdxTBuqthekIIIAAAgiMoYC9f94csaZXqzB7DKsR3aadJwGe1iW2W+8LoPf4N4NHRd4/WDsYnLrVI1I2V7kP/Tl19vEpBIB6MkxHAAEEEMiUQO5CQLP61nzBfG3tE36LcwrAT4j5CCCAAAKZEMjb6YCm0I29J8jO31k3RwCaEmYhBBBAAIG0CrTtkQBrnpI7197U6Lx/ZZ9xBKBSg/cIIIAAApkXOHkkwG7MfGMCN8CskwlDS4Lu/J3VEgAC41IQAQQQQCArAqMhYNy4BVrfE4+/zUrdm6jnahk/9Elz+3q9SjD4i1MAwa0oiQACCCCQMQH70PxOOVz+sf4Y7k8zVvWA1TX3yvK13w7zzd9dMQHAlWCIAAIIIJBbAXv/pbfrE/Me0AYWc9LII3oV361m+bq6N/rxaycBwE+I+QgggAACuRCwP7jkU7rTfFIbMy3jDdKHAMhnzZ3rXm+lHQSAVvRYFgEEEEAgUwL2h5deoE/QeUor/ZFMVfxkZV8RU7jJLO/bdXJSc++4CLA5N5ZCAAEEEMiggLlz7dvSVbhEjPlzrf57GWrCVr2OYZkMrPtEFDt/p90cAchQ71NVBBBAAIHoBOx9c7ulOOkvdE94p661K7o1R7qm93Vt90px8EFzx9shnhfsXwcCgL8RJRBAAAEEcixgv3f5mdI5skK/Yd+qzUzLRYJHNZj8SE9X/LX+pNH/EYFN9A8BoAk0FkEAAQQQyJ+A/f78i6RQ+o4eHL9BW6dP4RmT14AGkSels/Qdc8cb2+OsAQEgTl3WjQACCCCQOQG9d8AkOVy6Vu+Vd6P+dPB6bcCMmBuxQ7/t/0SvS1gt+4deNCvWD8e8vdHVEwCSUGYbCCCAAAKZFLBP3twh29/5uB6Kv1Eb4PzprwgieFnzphTKq3XHv1q+0v96MzfyabUWBIBWBVkeAQQQQKBtBOz9l58nUpojUp6ph+rP0obP1G/uZ0nZGX4wrgX0NILzM72dGhyc4S4tu1Nvvn982FHYZL7St1Wnj+nr/wFNKWk1E2L03QAAAABJRU5ErkJggg==;shadow=1;fontFamily=Verdana;" parent="1" vertex="1">
          <mxGeometry x="1510" y="-760" width="102" height="102" as="geometry" />
        </mxCell>
        <mxCell id="C_XI61WrGr2y75dWy_v_-52" style="edgeStyle=orthogonalEdgeStyle;rounded=0;orthogonalLoop=1;jettySize=auto;html=1;exitX=0.556;exitY=0;exitDx=0;exitDy=0;curved=1;exitPerimeter=0;shadow=1;fontFamily=Verdana;entryX=0;entryY=0.5;entryDx=0;entryDy=0;" parent="1" source="C_XI61WrGr2y75dWy_v_-51" target="C_XI61WrGr2y75dWy_v_-46" edge="1">
          <mxGeometry relative="1" as="geometry">
            <mxPoint x="1760" y="-680" as="targetPoint" />
            <Array as="points">
              <mxPoint x="1567" y="-770" />
              <mxPoint x="1660" y="-770" />
              <mxPoint x="1660" y="-732" />
              <mxPoint x="1760" y="-732" />
            </Array>
          </mxGeometry>
        </mxCell>
      </root>
    </mxGraphModel>
  </diagram>
</mxfile>
